<?xml version="1.0" encoding="UTF-8"?>
<svg id="Camada_2" xmlns="http://www.w3.org/2000/svg" viewBox="0 0 87.93 117.92">
  <defs>
    <style>
      .cls-1 {
        fill: none;
        stroke: #000;
        stroke-linecap: round;
        stroke-linejoin: round;
        stroke-width: 2px;
      }
    </style>
  </defs>
  <g id="Camada_1-2" data-name="Camada_1">
    <g>
      <path class="cls-1" d="M56.65,91.97c-.13,1.93-.87,3.71-1.49,5.5-.38,1.1-1,2.2-2.59,2.22-1.02,0-1.3,1.01-1.72,1.86-.99,1.98-2.02,3.99-3.35,5.75-3.44,4.56-8.3,5.85-13.63,4.76-7.15-1.46-11.51-6.49-11.8-13.37-.16-3.78,1.35-7.11,2.45-10.55,1.56-4.89,2.58-9.83.92-14.87-2.17-6.62-9.28-8.27-14.6-5.02-6.52,3.99-7.67,10.24-7,17.25.5,5.27,2.16,10.32,2.71,15.59.65,6.24-.39,11.72-5.56,15.84"/>
      <path class="cls-1" d="M72.01,60.07c-3.87,9.28-7.51,18.65-11.03,28.07-1.06,2.82-2.28,4.19-4.05,3.49-1.43-.57-2.95-1.18-4.2-2.45-1.57-1.59-.79-3.06-.34-4.38,3.2-9.47,6.41-18.94,10.5-28.09"/>
      <path class="cls-1" d="M65.77,47.59c1.25-4.54,6.25-20.24,7.38-23.36,1.28-3.54,3.68-4.07,7.02-2.31,3.18,1.68,3.72,2.73,2.62,5.75-2.83,7.77-5.51,15.87-7.9,23.51"/>
      <path class="cls-1" d="M76.86,20.98c.21-1.83,1.42-6.35,2.06-7.77,1.25-2.8,1.19-4.09,6.16-2.53,2.15.68,1.86,2.03,1,4.03-1.09,2.53-2.5,6.27-3.52,8.66"/>
      <path class="cls-1" d="M75.12,51.43c1.5,1.45,2.64,2.97,1.94,5.28-.86,2.83-2.74,3.79-5.55,2.9-2.93-.92-5.44-2.74-8.6-3.28-2.46-.42-3.41-3.55-2.42-5.87,1.19-2.79,3.09-3.54,6-2.4,2.71,1.06,5.44,2.08,8.15,3.12"/>
      <path class="cls-1" d="M53.29,90.29c-1.36,1.95-1.66,4.29-2.42,6.47-.43,1.25-.13,2.23.74,3.12"/>
      <polyline class="cls-1" points="82.05 10.01 86.93 1 85.68 10.91"/>
    </g>
  </g>
</svg>