<?xml version="1.0" encoding="UTF-8"?>
<svg id="Camada_2" xmlns="http://www.w3.org/2000/svg" viewBox="0 0 60.06 50.43">
  <defs>
    <style>
      .cls-1 {
        fill: none;
        stroke: #000;
        stroke-linecap: round;
        stroke-linejoin: round;
        stroke-width: 2px;
      }
    </style>
  </defs>
  <g id="Camada_1-2" data-name="Camada_1">
    <g>
      <path class="cls-1" d="M1.23,16.82c.29,3.82.77,7.23,1.01,10.04.39,4.53,1.56,9.09,2.61,13.53,1.24,5.27,3.59,9.04,17.78,9.03,6.92-.41,13.9-1.15,20.41-3.7,3.97-1.55,7.46-3.74,10.76-6.32,4.21-3.3,6.18-7.44,4.85-12.95-1.07-4.43-1.64-8.98-2.71-13.42-1.94-8.07-5.27-10.97-13.64-11.73C30.58.24,19.31,1.84,8.7,7.25c-2.48,1.26-4.49,3.04-6.17,5.11-1.39,1.71-7.51,9.07,20.57,10.44,3.21-.1,6.44-.57,9.6-1.35,1.28-.31,5.22,2.11,5.78,3.32.12.25.19.25-.01.51-1.97,2.4-.09,3.73,1.38,5.31.49.52-.09,1.52-.47,2.09-1.05,1.58-1.34,2.91.51,4.11,1.18.77,1.52,1.72.77,3.13-.62,1.15-.54,2.38.66,3.36.65.53,1.14,1.26,1.7,1.9"/>
      <path class="cls-1" d="M42.54,9.44c-.72-2.96-3.39-3.12-5.52-3.27-6.33-.45-12.38.86-18.01,3.95-1,.55-1.79,1.29-2.58,2-2.16,1.92-1.74,3.67.92,5.01,2.71,1.37,5.62,1.15,8.4.87,4.36-.44,8.61-1.58,12.48-3.77,1.89-1.07,3.72-2.23,4.32-4.55"/>
      <path class="cls-1" d="M52.89,5.88c2.97,5.51-7.81,11.82-13.72,13.86-1.5.52-6.23,1.68-6.23,1.68"/>
      <path class="cls-1" d="M18.31,37.51c-3.06.88-5.85-.1-8.64-1.2"/>
      <path class="cls-1" d="M12.55,9.68c-2.27,1.14-4.58,2.19-5.34,5.02-.16.59,0,.98.06,1.46"/>
      <path class="cls-1" d="M10.15,41.58c2.31.92,4.6,1.95,7.2,1.44"/>
      <path class="cls-1" d="M47.09,6.08c1.97.53,1.27,2.88-.23,4.09"/>
      <line class="cls-1" x1="31.11" y1="31.75" x2="31.25" y2="32.01"/>
      <line class="cls-1" x1="49.83" y1="19.55" x2="50.05" y2="19.3"/>
      <path class="cls-1" d="M49.49,24.83s2.5-1,3.41-1.91"/>
    </g>
  </g>
</svg>