<?xml version="1.0" encoding="UTF-8"?>
<svg id="Camada_2" xmlns="http://www.w3.org/2000/svg" viewBox="0 0 81.41 14.84">
  <defs>
    <style>
      .cls-1 {
        fill: none;
        stroke: #000;
        stroke-linecap: round;
        stroke-linejoin: round;
        stroke-width: 2px;
      }
    </style>
  </defs>
  <g id="Camada_1-2" data-name="Camada_1">
    <g>
      <path class="cls-1" d="M8.24,3.35c-.44-.32-.89-.64-1.4-.85s-1.08-.29-1.6-.11c-.75.26-1.22.97-1.68,1.57-1.6,2.09-3.04,5.17-2.41,7.85.32,1.36,1.42,2.15,2.78,1.57,2.08-.89,4.31-3.34,4.21-5.62-.04-1.02-1.29-.82-2.74-.65"/>
      <path class="cls-1" d="M43.82,1.93c-.72,3.92-1.44,7.84-2.16,11.75"/>
      <path class="cls-1" d="M16.26,12.11c-.32-2.63.55-7.07-.52-9.66,0,0-5.2,6.77-5.43,10.99"/>
      <path class="cls-1" d="M15.87,9.65s-2.56.56-3.63.68"/>
      <path class="cls-1" d="M19.59,13.1c-.14-1.67,1.1-8.54,1.5-9.81,0,0,2.41,3.39,3.47,4.9,0,0,2.39-3.99,4.64-6.22,0,0-1.15,4.15-1.22,11.6"/>
      <path class="cls-1" d="M33.84,1.56l-2.41,12.28s7.47-1.31,7.71-3.4c.2-1.73-5.62-3.4-5.62-3.4,0,0,6-1.96,5.79-3.66-.17-1.43-5.46-1.82-5.46-1.82Z"/>
      <path class="cls-1" d="M51,4.45c0-.53-.41-1.38-.94-1.32-2.6.32-5.5,7.28-3.96,9.4.67.93,3.68.22,4.34-.25"/>
      <path class="cls-1" d="M59.9,2.95c-2.13-1.76-9.49,5.08-6.42,8.53s9.09-6.33,6.42-8.53Z"/>
      <path class="cls-1" d="M62.69,13.59s1.34-5.93,1.69-9.84c0,0,2.6,5.95,5.34,9.33,0,0,.87-7.43,1.9-12.07"/>
      <path class="cls-1" d="M72.68,13.35s1.95-9.42,2.23-11.16h5.51"/>
      <line class="cls-1" x1="73.78" y1="7.97" x2="77.58" y2="7.56"/>
    </g>
  </g>
</svg>