<?xml version="1.0" encoding="UTF-8"?>
<svg id="Camada_2" xmlns="http://www.w3.org/2000/svg" viewBox="0 0 67.14 49.91">
  <defs>
    <style>
      .cls-1 {
        fill: none;
        stroke: #000;
        stroke-linecap: round;
        stroke-linejoin: round;
        stroke-width: 2px;
      }
    </style>
  </defs>
  <g id="Camada_1-2" data-name="Camada_1">
    <g>
      <path class="cls-1" d="M19.12,1.4c-2.92.36-6.27.59-8.86,2.58C5.1,7.93,2.47,12.87,1.55,19.38c-1.08,7.63-.45,15.08.99,22.56.51,2.66,1.96,4.54,4.11,5.99,2.33,1.57,4.76,1.26,7.19-.96,2.89-2.65,4.89-6,7.21-9.1.68-.91,1.43-1.76,2.15-2.64,1.24-1.52,2.85-2.18,4.8-2.17,3.6.03,7.2.08,10.79-.02,2.21-.06,3.95.77,5.26,2.44,2.05,2.6,4.03,5.25,6,7.91.61.83,1.21,1.65,1.92,2.4,1.71,1.81,3.65,3.59,6.22,3.03,3.28-.72,5.48-3.14,6.21-6.4,1.56-6.94,2.14-14.01,1.44-21.1-.69-7.06-3.5-13.03-9.52-17.33-3.21-2.29-6.8-2.45-10.35-2.53-8.87-.19-20.2-.89-26.87-.06Z"/>
      <path class="cls-1" d="M18.4,9.31c-2.17-.02-2.33,1.92-2.29,3.12.07,2.36-.76,3.03-2.99,2.95-1.01-.04-2.39.14-2.42,1.85-.02,1.38-.05,2.69,1.46,3.35.2.09.48.04.71,0,2.36-.27,3.13.64,3.23,3.12.11,2.86,2.41,3.83,4.71,2.68,1.74-.86,1-2.55,1.25-3.68.38-1.76,1-2.21,2.57-2.13,1.66.09,2.86-.28,2.92-2.39.06-2.49-1.17-2.87-2.92-2.84-1.79.03-2.34-.57-2.48-2.43.1-4.63-3.76-3.6-3.76-3.6Z"/>
      <circle class="cls-1" cx="40.42" cy="17.12" r="2.65"/>
      <circle class="cls-1" cx="47.68" cy="11.62" r="2.65"/>
      <circle class="cls-1" cx="54.12" cy="18.68" r="2.65"/>
      <circle class="cls-1" cx="46.4" cy="24.37" r="2.65"/>
    </g>
  </g>
</svg>