<?xml version="1.0" encoding="UTF-8"?>
<svg id="Camada_2" xmlns="http://www.w3.org/2000/svg" viewBox="0 0 55.93 71.06">
  <defs>
    <style>
      .cls-1 {
        fill: none;
        stroke: #000;
        stroke-linecap: round;
        stroke-linejoin: round;
        stroke-width: 2px;
      }
    </style>
  </defs>
  <g id="Camada_1-2" data-name="Camada_1">
    <g>
      <path class="cls-1" d="M52.26,7c2.17,1.63,2.55,3.98,2.65,6.48.18,4.89-.9,9.63-1.71,14.39-1.87,11.04-3.75,22.09-5.77,33.1-1.25,6.81-4.23,8.08-9.08,8.7-3.94.5-7.85.49-11.76.15-5.11-.45-10.25.07-15.36-.64-4.31-.6-5.79-1.55-7.41-5.81-.04-.11-.03-.3-.25-.48-3.64-2.97-2.55-6.92-1.86-10.54,1.47-7.67,2.87-15.35,4.3-23.03,1.35-7.28,2.73-14.55,4.06-21.83.74-4.07,3.91-6.47,8.13-6.48,7.2-.01,14.39,0,21.59,0,2.41,0,4.79.38,7.19.53,3.34.21,4.75,2.97,4.64,6.67-.23,7.58-1.96,14.9-3.21,22.3-1.2,7.12-2.67,14.19-3.58,21.35-.32,2.53-.72,5.14-1.77,7.4-1.6,3.46-4.86,4.99-8.55,5.04-9.36.12-18.73.14-28.07-.9-.8-.09-1.55-.65-2.4-.26"/>
      <path class="cls-1" d="M19.15,46.1c2.79-.46,3.28-1.04,2.89-3.36-.04-.26.06-.63-.25-.71-2.07-.5-2.1-2.15-2.47-3.84-.4-1.81-2.15-.75-3.29-.95-.82-.14-1.62-.25-1.74,1.17-.13,1.46-.99,2.43-2.82,2.21-1.33-.16-2.08.66-1.92,2.11.13,1.17-.53,2.75,1.69,2.66,1.72-.07,2.71.61,2.45,2.62-.15,1.12.61,1.76,1.87,1.69,1.2-.07,2.5.05,2.84-1.46.16-.72.05-1.5.51-2.15"/>
      <path class="cls-1" d="M34.75,16.36c-3.15,2.27-6.05,4.89-9.36,6.96"/>
      <path class="cls-1" d="M37.39,20.43c-1.29,2.12-3.74,2.95-5.28,4.8"/>
      <path class="cls-1" d="M23.23,14.44c-1.2.88-2.4,1.76-3.6,2.64"/>
      <path class="cls-1" d="M30.67,46.82c-.48.24-1.03.4-1.42.74-.94.81-1.57,1.77-.98,3.1.47,1.07,1.32,1.59,2.4,1.4,1.3-.23,2.46-.86,2.63-2.37.14-1.26-.29-2.27-1.66-2.64-.24-.07-.48-.16-.72-.24"/>
      <path class="cls-1" d="M36.91,37.23c-1.75.61-2.36,2.08-1.82,3.56.37,1.03,1.47,2.01,3.02,1.73,1.41-.25,2-1.26,2.11-2.42.13-1.39-.64-2.32-2.1-2.68-.32-.08-.64-.15-.97-.19"/>
      <path class="cls-1" d="M17.72,9.4c-.3.06-.65.11-.71.48-1.05,5.76-2.11,11.51-3.11,17.27-.4,2.29.34,3.06,2.62,2.61,3.22-.63,6.4.14,9.6.06,4.47-.12,8.96-.05,13.43-.02,1.54.01,2.44-.35,2.69-2.16.75-5.46,1.65-10.89,2.63-16.31.26-1.45.15-1.99-1.48-1.95-8.23.21-16.48-.28-24.71.23-.15,0-.45-.21-.72-.2"/>
    </g>
  </g>
</svg>