<?xml version="1.0" encoding="UTF-8"?>
<svg id="Camada_2" xmlns="http://www.w3.org/2000/svg" viewBox="0 0 118.87 92.92">
  <defs>
    <style>
      .cls-1 {
        fill: none;
        stroke: #000;
        stroke-linecap: round;
        stroke-linejoin: round;
        stroke-width: 2px;
      }
    </style>
  </defs>
  <g id="Camada_1-2" data-name="Camada_1">
    <g>
      <path class="cls-1" d="M23.13,43.19c.12,2.93,1.91,5.19,3.13,7.67,3.66,7.45,7.33,14.89,11.04,22.31.86,1.73,1.79,3.45,2.89,5.03,1.91,2.74,6.12,3.77,9.82,2.93,5.46-1.23,10.32-3.78,15.1-6.52,8.14-4.66,16.68-8.62,24.48-13.89,1.64-1.11,3.09-2.35,4.08-4.09,1.06-1.86,1.12-3.68.52-5.78-1.69-5.98-5.17-11.02-8.23-16.28-2.69-4.62-5.58-9.13-8.37-13.69-2.22-3.62-4.84-4.71-8.88-3.59-4.14,1.15-7.97,3.06-11.75,5.04-10.01,5.24-20.11,10.33-29.99,15.82-1.98,1.1-3.56,2.49-4.07,4.8"/>
      <path class="cls-1" d="M116.24,37.37c1.91,5.8-.45,10.79-4.15,15.15-8.46,9.98-18.17,18.4-30.16,24.08-7.21,3.41-14.12,7.43-21.61,10.29-5.14,1.97-10.42,3.19-15.84,4.1-5.27.89-10.55.79-15.84.93-5.11.14-9.4-1.45-12.2-5.81-4.6-7.17-9.69-14.05-13.65-21.6-1.88-3.59-2.64-7.54-.55-11.49,1.04-1.97,2.8-3.29,4.35-4.77,3.51-3.34,7.89-6.4,9.36-10.89,2.4-7.33,8.36-10.1,14.17-13.04,11.29-5.72,22.81-11,34.27-16.37,2.85-1.33,5.82-1.78,9.11-1.58,6.17.37,12.39.6,18.48-1.26,2.57-.78,4.62.89,6.46,2.57,4.99,4.58,8.47,10.24,11.77,16.07,2.28,4.03,4.85,10.05,6.02,13.62Z"/>
      <path class="cls-1" d="M85.98,49.91c-.37-2.56-1.59-4.78-2.89-6.95-3.5-5.88-6.24-12.15-9.36-18.23-1.69-3.28-1.77-3.28-5.02-1.68-11.02,5.42-21.82,11.25-32.39,17.5-1.88,1.11-3.78,2.2-5.77,3.09-1.7.76-1.74,1.66-.97,3.17,3.89,7.65,7.66,15.36,11.56,23.01,2,3.92,3.27,4.34,7.16,2.14,9.51-5.36,19.07-10.62,28.79-15.58,2.29-1.17,4.52-2.49,6.71-3.85.87-.54,1.88-1.11,1.93-2.37"/>
      <path class="cls-1" d="M116.8,43.18c.46.31,1.94-7.25.33-10.53-3.77-8.74-7.65-17.44-13.67-24.94,0,0-3.32-5.03-8.49-2.46"/>
      <path class="cls-1" d="M84.18,1.06c7.5-.39,10.76,1.3,13.63,3.46"/>
      <path class="cls-1" d="M16.9,33.84c-6.08,3.04-11.49,6.84-14.09,13.46-.54,1.36-1.22,3.02-.06,4.53"/>
      <path class="cls-1" d="M56,43.43c-1.13,4.03-2.68,7.91-4.32,11.75"/>
      <path class="cls-1" d="M25.05,69.1c.65,1.5.25,2.66-1.21,3.34-1.26.59-2.34.46-3.14-.93-.66-1.15-1.51-2.87-2.53-3.89-.69.41-1.47.88-2.12,1.38-1.07.8-1.71,1.14-2.49.08-.74-1-1.75-2.52-.79-3.71.21-.26.79-.68,1.07-.84,2.87-1.69,2.47-1.44.85-4.25-.51-.66.06-1.7.87-2.38.75-.63,1.58-.98,2.34-.65.64.28,1.42,1.56,1.88,2.12,1.35,1.61.61,1.78,3.12.03,1.36-.95,2.42.2,3.29,1.72.83,1.46,1.09,2.46-.31,3.31-.78.47-1.62,1.22-2.38,1.81,0,0,1.26,2.15,1.56,2.85Z"/>
      <path class="cls-1" d="M65.11,42.95c-.96,2.56-2.75,6.67-3.84,9.17"/>
      <path class="cls-1" d="M103.25,34.08l-7.68,7.68"/>
      <path class="cls-1" d="M104.21,38.63c-2.38,2.18-4.38,4.75-6.96,6.72"/>
      <path class="cls-1" d="M106.85,42.47c-2.32,2.32-4.64,4.64-6.96,6.96"/>
      <path class="cls-1" d="M91.98,4.81c-2.15-1.92-5.76-3.6-5.76-3.6-5.85-1.15-14.07,4.24-14.39,4.56"/>
      <circle class="cls-1" cx="92.16" cy="16.66" r="2.82"/>
      <circle class="cls-1" cx="90.83" cy="26.09" r="2.82"/>
      <circle class="cls-1" cx="98.98" cy="28.91" r="2.82"/>
      <circle class="cls-1" cx="100.98" cy="20.45" r="2.82"/>
    </g>
  </g>
</svg>