<?xml version="1.0" encoding="UTF-8"?>
<svg id="Camada_2" xmlns="http://www.w3.org/2000/svg" viewBox="0 0 141.64 49.67">
  <defs>
    <style>
      .cls-1 {
        fill: none;
        stroke: #000;
        stroke-linecap: round;
        stroke-linejoin: round;
        stroke-width: 2px;
      }
    </style>
  </defs>
  <g id="Camada_1-2" data-name="Camada_1">
    <g>
      <path class="cls-1" d="M1.58,20.46c-.84.69-.92,7.5.74,8,12.43,3.73,90.19,20.48,94.81,20.21,1.98-.12,25.09-17.7,29.81-22.83,1.69-1.84,2.46-9.56,0-10C94.71,10.02,38.2-.04,32.83,1.09,25.94,2.53,6.3,16.6,1.58,20.46Z"/>
      <path class="cls-1" d="M4.39,18.29s-1.19,1.42,0,2.67,87.07,19.88,89.69,19.75,29.62-20.97,30.25-22.42.75-1.65,0-2.93"/>
      <line class="cls-1" x1="7.45" y1="16.03" x2="102.8" y2="35.27"/>
      <line class="cls-1" x1="108.77" y1="30.89" x2="13.97" y2="11.48"/>
      <polyline class="cls-1" points="20.13 7.47 104.58 24.21 99.88 29.07"/>
      <line class="cls-1" x1="26.52" y1="3.74" x2="121.17" y2="21.19"/>
      <line class="cls-1" x1="10.11" y1="22.58" x2="15.34" y2="17.63"/>
      <line class="cls-1" x1="19.14" y1="24.73" x2="24.16" y2="19.41"/>
      <line class="cls-1" x1="25.91" y1="26.29" x2="31.56" y2="20.9"/>
      <line class="cls-1" x1="34.33" y1="28.04" x2="38.94" y2="22.39"/>
      <line class="cls-1" x1="58.13" y1="32.84" x2="62.35" y2="27.11"/>
      <line class="cls-1" x1="66.85" y1="35.27" x2="72.05" y2="29.07"/>
      <line class="cls-1" x1="82.13" y1="31.1" x2="76.84" y2="37.38"/>
      <line class="cls-1" x1="93.01" y1="33.3" x2="87.65" y2="39.59"/>
      <line class="cls-1" x1="88.71" y1="26.78" x2="85.03" y2="31.69"/>
      <line class="cls-1" x1="81.05" y1="25.21" x2="76.84" y2="30.04"/>
      <line class="cls-1" x1="73.13" y1="23.59" x2="69.45" y2="28.54"/>
      <line class="cls-1" x1="64.76" y1="21.88" x2="60.72" y2="26.78"/>
      <line class="cls-1" x1="57.44" y1="20.38" x2="53.46" y2="25.32"/>
      <line class="cls-1" x1="49.42" y1="18.74" x2="45.93" y2="23.8"/>
      <line class="cls-1" x1="34.33" y1="15.65" x2="29.69" y2="20.52"/>
      <line class="cls-1" x1="26.52" y1="14.05" x2="21.65" y2="18.9"/>
      <path class="cls-1" d="M28.85,9.2c-.11-.02-4.76,4.36-4.76,4.36"/>
      <line class="cls-1" x1="35.44" y1="10.5" x2="30.06" y2="14.78"/>
      <line class="cls-1" x1="41.91" y1="11.79" x2="38.09" y2="16.42"/>
      <line class="cls-1" x1="40.68" y1="16.95" x2="36.42" y2="21.88"/>
      <line class="cls-1" x1="48.5" y1="13.09" x2="44.93" y2="17.82"/>
      <line class="cls-1" x1="56.89" y1="14.76" x2="52.32" y2="19.33"/>
      <line class="cls-1" x1="64.87" y1="16.34" x2="60.72" y2="21.05"/>
      <line class="cls-1" x1="72.89" y1="17.93" x2="68.71" y2="22.69"/>
      <line class="cls-1" x1="81.18" y1="19.57" x2="76.52" y2="24.29"/>
      <line class="cls-1" x1="88.54" y1="21.03" x2="84.01" y2="25.82"/>
      <line class="cls-1" x1="97.63" y1="22.83" x2="92.83" y2="27.62"/>
      <line class="cls-1" x1="99.69" y1="23.24" x2="105.35" y2="18.27"/>
      <line class="cls-1" x1="96.27" y1="16.6" x2="91.51" y2="21.62"/>
      <line class="cls-1" x1="89.05" y1="15.26" x2="84.4" y2="20.21"/>
      <line class="cls-1" x1="82.13" y1="13.99" x2="77.26" y2="18.8"/>
      <line class="cls-1" x1="73.32" y1="12.36" x2="68.12" y2="16.98"/>
      <line class="cls-1" x1="64.35" y1="10.71" x2="59.5" y2="15.27"/>
      <line class="cls-1" x1="55.97" y1="9.16" x2="51.26" y2="13.64"/>
      <line class="cls-1" x1="49.01" y1="7.88" x2="44.05" y2="12.21"/>
      <line class="cls-1" x1="41.16" y1="6.43" x2="36.96" y2="10.81"/>
      <line class="cls-1" x1="34.89" y1="5.28" x2="39.42" y2="1.38"/>
      <line class="cls-1" x1="47.15" y1="2.35" x2="43" y2="6.77"/>
      <line class="cls-1" x1="53.96" y1="3.34" x2="49.42" y2="7.96"/>
      <line class="cls-1" x1="61.83" y1="4.56" x2="56.19" y2="9.21"/>
      <line class="cls-1" x1="64.76" y1="10.79" x2="69.53" y2="5.81"/>
      <line class="cls-1" x1="73.64" y1="12.42" x2="78.53" y2="7.31"/>
      <line class="cls-1" x1="87.29" y1="8.81" x2="81.68" y2="13.9"/>
      <line class="cls-1" x1="89.59" y1="15.36" x2="95.04" y2="10.16"/>
      <line class="cls-1" x1="102.93" y1="11.54" x2="96.57" y2="16.65"/>
      <line class="cls-1" x1="112.21" y1="13.19" x2="106.86" y2="18.55"/>
      <path class="cls-1" d="M108.4,12.51c3.17-4.42,18.24-7.61,31.24,1.14"/>
      <path class="cls-1" d="M105.01,11.91c2.75-6.89,17.94-10.8,35.63-1.03"/>
    </g>
  </g>
</svg>