<?xml version="1.0" encoding="UTF-8"?>
<svg id="Camada_2" xmlns="http://www.w3.org/2000/svg" viewBox="0 0 70.58 101.85">
  <defs>
    <style>
      .cls-1 {
        fill: none;
        stroke: #000;
        stroke-linecap: round;
        stroke-linejoin: round;
        stroke-width: 2px;
      }
    </style>
  </defs>
  <g id="Camada_1-2" data-name="Camada_1">
    <g>
      <path class="cls-1" d="M42.74,49.93c-3.73-1.75-9.96-3.77-16.48.79"/>
      <path class="cls-1" d="M57.07,34.55c-2.41-10.85-12.81-14.2-20.44-7.71-1.21,1.03-1.61,1.81-2.76.77-6.99-6.28-15.39-2.57-19.17,2.85-2.82,4.04-3.86,12.51-.44,19.78-2.48,6.69-1.06,13.66,5.93,18.15,9.9,5.77,18.91,5.63,28.94.32,5.54-2.94,9.49-9.34,7.6-15.4-.45-1.46-1.67-3.07-1.67-3.07,0,0,4.03-6.57,2-15.7Z"/>
      <path class="cls-1" d="M63.13,23.79c3.58,4.05,5.1,8.92,6.05,14.14,1.6,8.79-1.74,16.3-5.57,23.76-.15.3-.45.25-.72.24"/>
      <path class="cls-1" d="M7.71,24.27c-1.43,1.44-2.92,3.26-3.83,5.28-1.73,3.81-2.68,7.83-2.86,11.99-.21,4.97,1.27,9.61,3.1,14.15.66,1.62,3.14,6.45,3.9,8.04"/>
      <path class="cls-1" d="M9.15,56.41c-.39,1.76-1,3.54-1.11,5.28-.18,2.89.84,5.68,1.84,8.38,1.37,3.73,3.27,7.26,3.85,11.28.24,1.68.44,3.34.47,5.04.01.88-.18,2.59-.18,2.59,0,0,1.32-.9,2.09-1.4,2.35-1.53,4.27-3.55,6.23-5.76,3.64,3.72,5.17,8.13,5.75,12.97.1.87.13,3.12.13,3.12,2.45-1.07,4.17-3.08,6.02-4.96,1.04,1.88,1.49,3.76,1.25,5.68-.1.83-.4,2.22-.4,2.22,0,0,1.5-.74,2.12-1.03,3.58-1.69,6.9-3.79,9.84-6.46,7.27-6.61,11.78-14.88,14.34-24.24.66-2.4,1.63-4.91,1.16-7.41-.33-1.76-.66-3.55-1.11-5.29"/>
      <path class="cls-1" d="M46.09,56.65c-2.95,1.04-5.86.59-8.61-.53-1.56-.64-2.81-.67-4.36,0-2.76,1.2-5.67,1.52-8.62.53"/>
      <path class="cls-1" d="M25.7,57.37c-.81,2.75.57,8.73,8.79,9.23,7.2.44,10.59-5.14,10.4-9.23"/>
      <path class="cls-1" d="M42.5,62.65c-4.34-3.16-10.05-3.16-14.39,0"/>
      <path class="cls-1" d="M47.05,13.71c5.61,1.26,10.73-.17,15.58-2.9.9-.51,1.68-1.24,2.79-1.75,1.28,4.28.55,8.28-1.39,12.07-.74,1.44-1.47,2.42-3.07,3.86"/>
      <path class="cls-1" d="M53.29,13.47c3.99-5.2,2.52-12.47,2.52-12.47-3.72,3.24-8.05,3.74-12.84,3.45-6.25-.38-12.75-1.66-18.97.69-7.69,2.89-12.22,6.82-15,14.53-1.13,3.13-1.03,7.5-.09,10.36"/>
      <path class="cls-1" d="M46.39,44.46c1.35.09,1.22-1.32,1.41-2.17.2-.89.02-2.16-1.17-1.91-1,.21-1.94,3.97-.24,4.08Z"/>
      <path class="cls-1" d="M22.88,40.63c.42-.65,1.11-.32,1.39.23.73,1.43.54,3.58-.94,3.58-1.87,0-1.3-2.52-.45-3.81Z"/>
      <path class="cls-1" d="M32.18,40.58c2.24.08,4.48.16,6.72.24"/>
      <path class="cls-1" d="M38.89,51.4c-1.29.45-2.65,1.54-2.65,1.54"/>
      <path class="cls-1" d="M30.75,51.26c.65.3,2.24,1.29,2.64,1.68"/>
      <path class="cls-1" d="M14.43,37.6c2-3.31,13.91-3.54,15.49,0,1.69,3.79,2.26,12.88-7.84,13.12-8.45.21-9.79-9.58-7.65-13.12Z"/>
      <path class="cls-1" d="M55.34,37.12c-2-3.31-13.91-3.54-15.49,0-1.69,3.79-2.26,12.87,7.84,13.13,8.45.21,9.79-9.58,7.65-13.12Z"/>
    </g>
  </g>
</svg>