<?xml version="1.0" encoding="UTF-8"?>
<svg id="Camada_2" xmlns="http://www.w3.org/2000/svg" viewBox="0 0 92.88 83.4">
  <defs>
    <style>
      .cls-1 {
        fill: none;
        stroke: #000;
        stroke-linecap: round;
        stroke-linejoin: round;
        stroke-width: 2px;
      }
    </style>
  </defs>
  <g id="Camada_1-2" data-name="Camada_1">
    <g>
      <path class="cls-1" d="M72.73,69.12c1.97-.54,3.52-.81,5.26-1.25,2.2-.56,2.08-2.44,2.37-4.44.56-3.76.34-7.57.69-11.34.39-4.21.29-8.47.3-12.71.02-8.24.22-16.47.46-24.71.11-3.83-.19-7.63-4.76-9.12-4.08-1.33-8.14-2.49-12.47-2.96-4.88-.53-35.19-1.52-44.87-1.59-4.18-.03-8.34.35-12.47.96-2.22.33-3.7,2.19-4.06,5.52-1.02,9.41-2.4,18.81-2.15,28.3.17,6.64.46,13.29,1.01,19.9.21,2.55.33,5.17.92,7.67.43,1.82,1.4,3.23,3.55,3.65,3.58.68,7.2.97,10.8,1.43,4.23.54,8.5.68,12.73,1.36,2.2.35,4.49.38,6.71.43,5.28.12,10.54.68,15.83.63,4.8-.05,9.61.53,14.39-.28.55-.09,1.03.12,1.44.48"/>
      <path class="cls-1" d="M67.29,16.01c-2.27-6.39-5.04-6.42-7.29-6.79-9.84-1.65-19.8-1.61-29.73-1.45-5.05.08-10.11.39-15.12,1.36-4.02.77-5.81,2.34-6.47,6.27-1.14,6.75-1.54,13.57-1.13,20.39.3,4.98.96,9.95,1.86,14.87.56,3.05,1.55,4.34,6.53,5.45"/>
      <path class="cls-1" d="M66.55,14.65c1.51,2.27,1.52,4.21,1.56,6.98.11,6.88.41,13.78-.45,20.63-.51,4.04-1,8.12-2.37,12-1.21,3.41-3.13,4.47-6.71,4.87-4.74.52-9.43.39-14.16.19-6.1-.26-12.18-.51-18.24-1.37-3.05-.43-6.07-1.03-9.1-1.54-1.86-.31-3.02-1.12-3.44-3.33-.87-4.62-1.37-9.26-1.96-13.91-.8-6.32.22-12.49.39-18.73.14-5.01,2.01-6.82,7.4-7.67,11.32-1.78,22.68-1.62,34.07-.78,3.55.26,7.06.7,10.54,1.34.82.15,2.08.75,2.47,1.34Z"/>
      <path class="cls-1" d="M75.12,5.55c1.19,7.02.71,14.05.32,21.11-.27,4.95-.72,9.9-.79,14.87-.1,7.85-.15,15.7-1.05,23.5-.26,2.24-.24,5.24-3.76,5.53-3.41,3.65-7.91,3.05-12.23,3.12-5.2.08-10.4.32-15.59.19-4.32-.11-8.64-.04-12.95-.25-2.17-.11-2.54,1.34-3.1,2.71-.61,1.51.59,2.06,1.65,2.63,3.67,1.99,34.39,6.9,44.85-.51,3.82-2.12,3.2-4.19.46-6.65-.44-.39-.79-.82-1.16-1.24"/>
      <path class="cls-1" d="M81.36,60.73c3.47-2.23,7.13-4.18,9.61-7.66.54-.75.92-1.58.91-2.41,0-9.26-.23-24.7-.21-26.63.03-2.14-.75-4.07-2.44-5.22-2.3-1.57-4.52-3.34-7.16-4.37"/>
      <path class="cls-1" d="M73.92,73.92c-3.59,3.19-9.55,5.16-16.55,5.52"/>
      <path class="cls-1" d="M15.63,68.88c.12,2.15,1.63,3.17,3.37,3.8,1.76.63,3.62.95,5.5,1,.82.02,1.71-.23,2.4.48"/>
      <path class="cls-1" d="M45.38,64.32c.24.16.23.45.25.46,1.09.76,2.15.68,3.1-.23.44-.42.49-1.17-.01-1.38-1.05-.46-2.21-.69-3.1.43-.14.18-.32.32-.48.48"/>
      <path class="cls-1" d="M60.73,62.41c-1.78.44-1.6,1.91-1.39,3.11.24,1.34,1.51,1.23,2.59,1.21.8-.01,1.62-.11,2.4.02,1.99.32,2.28-.9,2.41-2.42.16-1.76-1-1.57-2.17-1.73-1.21-.16-2.4-.17-3.6-.19"/>
      <path class="cls-1" d="M52.82,62.89c-.69.23-1.22.74-.92,1.42.42.98,1.39,1.04,2.36.99.83-.04,1.47-.64,1.38-1.2-.25-1.4-1.52-1.2-2.58-1.21"/>
    </g>
  </g>
</svg>