<?xml version="1.0" encoding="UTF-8"?>
<svg id="Camada_2" xmlns="http://www.w3.org/2000/svg" viewBox="0 0 108.9 80.27">
  <defs>
    <style>
      .cls-1 {
        fill: none;
        stroke: #000;
        stroke-linecap: round;
        stroke-linejoin: round;
        stroke-width: 2px;
      }
    </style>
  </defs>
  <g id="Camada_1-2" data-name="Camada_1">
    <g>
      <path class="cls-1" d="M94.16,58.52c-.96,2.81-3.35,4.41-5.56,5.94-5.89,4.06-11.57,8.41-17.18,12.83-2.66,2.09-5.57,2.24-8.43,1.76-3.6-.61-7.24-1.03-10.82-1.79-4.14-.87-8.32-1.59-12.49-2.33-3.32-.59-6.7-1.06-10.05-1.56-4.09-.62-8.16-1.41-12.24-2.13s-8.14-1.53-12.24-2.13c-2.73-.4-3.31-1.27-3.92-3.85-.95-4.03.97-5.98,4.14-7.73,6.77-3.74,13.57-7.43,20.17-11.48,1.55-.95,3.23-1.34,5.04-1.2,6.11.46,12.17,1.34,18.24,2.06,6.38.76,12.78,1.4,19.18,2.04,7.13.72,14.27,1.46,21.34,2.67.74.13,1.52-.08,2.15.23.46.22,1.24.32,1.23,1.16-.01.67-.08,1.22-.71,1.69-7.45,5.57-14.92,11.13-22.3,16.8-3.09,2.37-6.62,1.6-9.84,1.27-3.52-.36-7.07-1.05-10.58-1.7-3.98-.73-7.97-1.44-11.96-2.1-3.52-.58-7.07-1.06-10.58-1.78-4.06-.83-8.15-1.45-12.23-2.19-3.92-.71-7.83-1.45-11.76-2.14-.37-.07-.87-.23-1.2.22"/>
      <path class="cls-1" d="M98.72,7.66c-1.76,1.01-1,2.93-1.33,4.34-2.44,10.51-4.63,21.08-6.77,31.65-.3,1.49-.96,1.8-2.21,1.67-11.74-1.25-23.52-1.92-35.27-3.05-5.1-.49-10.23-.94-15.35-1.21-1.9-.1-1.88-.75-1.46-2.22,1.19-4.14,2.24-8.31,3.39-12.47,1.74-6.32,3.55-12.63,5.25-18.96.36-1.35.82-2.01,2.43-1.95,9.6.34,19.19.71,28.79,1.18,6.39.31,12.8.4,19.19.78.89.05,1.81-.14,2.64.36"/>
      <path class="cls-1" d="M92.48,54.92c.32.64.61,1.3.96,1.92,1.06,1.87,3.17,2.04,4.26.21.5-.82,1.03-1.78,1.01-2.85-.12-6.31,2.38-12.13,3.32-18.24,1.16-7.5,3-14.85,4.36-22.3.35-1.93.77-3.85,1.2-5.76.61-2.69.44-3.15-2.17-4.54-1.25-.66-2.6-1.01-4.07-.99-11.2.15-22.39-.38-33.58-.59-7.11-.14-14.23-.26-21.35-.35-1.68-.02-3.67-1.02-4.95.09-1.27,1.11-1.1,3.24-1.56,4.93-3.15,11.69-6.38,23.35-9.55,35.04-.27,1-.61,2.03-.5,3.11"/>
      <path class="cls-1" d="M104.24,3.1c-1.44,6.78-2.86,13.56-4.12,20.38-1.25,6.75-2.92,13.42-4.22,20.17-.35,1.8-.96,3.61-.78,5.51"/>
      <path class="cls-1" d="M70.9,17.73c-6.88,3.68-13.75,7.36-20.63,11.03"/>
      <path class="cls-1" d="M80.49,21.09c-5.44,3.28-10.87,6.56-16.31,9.84"/>
      <path class="cls-1" d="M37.79,49.64c-3.9-2.49-10.13-1.45-13.67,2.28"/>
      <path class="cls-1" d="M65.86,52.76c-2.48-1.36-5.28-.92-7.92-1.41-1.26-.24-1.89,1.03-2.58,1.7-2.22,2.18-5.24,3.14-7.48,5.23-.91.85-2.29,1.22-2.64,2.64"/>
      <path class="cls-1" d="M52.9,55.64c2.01,1.13,4.32,1,6.49,1.37,2.22.38,3.54-1.6,4.99-2.86,2.14-1.86,4.72-1.79,6.96-1.26,2.51.59,4.96.73,7.47.83.74.03,1.44.15,2.19.38,1.67.52,1.51,1.1.44,2-.92.77-1.81,1.73-2.89,2.11-2.36.83-3.89,2.73-5.67,4.21-3.16,2.63-6.29,2.23-9.66.88"/>
      <path class="cls-1" d="M41.51,54.44c-2.97-.59-5.95-1.07-8.97-1.43-2.64-.32-5.4.12-7.92-.79-.86-.31-1.62-.18-2.15.12-1.6.89-3.09,2-4.58,3.08-.36.26-1.02.63-.69,1.16.28.45.58.94,1.38,1.07.79.13,1.68.31,2.41.32,5.2.09,10.24,1.31,15.35,2.02,5.13.72,10.25,1.5,15.37,2.26,3.33.49,6.69,1.01,10.06,1.31.54.05,1.06.06,1.45-.47,1.28-1.78,3.61-2.4,4.8-4.32.48-.78,1.55-.82,2.13-.66,1.83.52,3.77.4,5.54,1.13"/>
      <path class="cls-1" d="M47.27,50.72c-2.41-1.47-5.24-1.28-7.8-1.37-1.79-.06-3.67,1.58-4.79,3.41"/>
      <path class="cls-1" d="M56.02,51.56c-4.53-2.29-9.89-1.17-12.71,2.64"/>
      <path class="cls-1" d="M35.87,59.47c1.56-2.37,3.98-4.4,6.31-5,2.31-.6,5.38.28,7.85,1.65"/>
      <path class="cls-1" d="M32.03,53.48c-.92,1.44-2.62,1.83-3.89,2.81-.7.54-1.52.85-1.87,1.74"/>
      <path class="cls-1" d="M62.02,56.84c.94.66,2.02.67,3.12.74,1.01.06,2.07.17,2.88.94"/>
      <path class="cls-1" d="M58.9,57.32c-.76,2.21-3.56,2.59-4.32,4.8"/>
      <path class="cls-1" d="M74.25,53.96c-.45,2.11-3.39,1.72-3.84,3.84"/>
      <path class="cls-1" d="M98,50.6c-2.65-1.99-2.83-1.94-5.28,1.44"/>
    </g>
  </g>
</svg>