<?xml version="1.0" encoding="UTF-8"?>
<svg id="Camada_2" xmlns="http://www.w3.org/2000/svg" viewBox="0 0 56.21 56.36">
  <defs>
    <style>
      .cls-1 {
        fill: none;
        stroke: #000;
        stroke-linecap: round;
        stroke-linejoin: round;
        stroke-width: 2px;
      }
    </style>
  </defs>
  <g id="Camada_1-2" data-name="Camada_1">
    <g>
      <path class="cls-1" d="M40.82,43c-.71,2.11,0,4.31-.64,6.5-.84,2.92-2.46,4.66-5.36,5.25-5.01,1.01-10.07.76-14.84-.81-4.54-1.5-7.07-5.18-7.43-9.98-.33-4.51.7-8.75,3.02-12.74,1.38-2.37,3.32-3.19,5.81-3.33,3.87-.22,7.69.25,11.51.73,6.11.77,8.94-1.07,9.48-7.22.3-3.46.85-6.94.25-10.57-.75-4.54-2.89-6.86-7.3-7.99-4.22-1.08-8.38-1.91-12.74-1.84-4.1.06-6.76,2.12-6.94,6.74-.08,2.12-.01,4.24-.01,6.36"/>
      <path class="cls-1" d="M28.82,41.08c3.81.05,7.55.63,11.28,1.42,2.77.59,5.65.54,8.38.14,2.8-.4,4.62-2.68,5.24-5.42.71-3.15,1.2-6.37,1.45-9.59.51-6.46-3.52-9.2-8.36-9.57-1.29-.1-2.49-.85-3.84-.5"/>
      <path class="cls-1" d="M28.34,15.65c-4-.4-8.04-.56-11.99-1.25-8.29-1.46-13.93,2.79-14.95,11.32-.22,1.85-.4,3.68-.41,5.53-.01,4.47,2.96,7.84,7.43,8.38,1.31.16,2.64.17,3.96.25"/>
      <circle class="cls-1" cx="32.33" cy="48.53" r="2.06"/>
      <circle class="cls-1" cx="21.34" cy="7.79" r="1.89"/>
    </g>
  </g>
</svg>