<?xml version="1.0" encoding="UTF-8"?>
<svg id="Camada_2" xmlns="http://www.w3.org/2000/svg" viewBox="0 0 71.11 64.6">
  <defs>
    <style>
      .cls-1 {
        fill: none;
        stroke: #000;
        stroke-linecap: round;
        stroke-linejoin: round;
        stroke-width: 2px;
      }
    </style>
  </defs>
  <g id="Camada_1-2" data-name="Camada_1">
    <g>
      <path class="cls-1" d="M2.69,39.22c-1.64,1.91-2.35,9.67-.94,11.5,1.07,1.38,2.66,2.1,4.3,2.65,7.41,2.52,15.05,4.27,22.56,6.45,4.19,1.22,8.51,1.96,12.69,3.19,3.62,1.06,6.96.7,10.08-1.26,4.05-2.56,7.96-5.34,12.02-7.87,3.02-1.88,3.7-4.83,4.02-7.95.17-1.68.21-3.36.47-5.04.39-2.53-.1-2.9-3.06-4.08-6.52-2.61-13.46-3.75-20.16-5.72-5.36-1.58-10.81-2.81-16.3-3.89-2.48-.48-4.87-.26-6.94,1.02-4.72,2.94-9.82,5-14.86,7.25-1.49.67-3.89.93-3.88,3.51"/>
      <path class="cls-1" d="M2.93,39.22c4.52,1.98,9.41,2.56,14.17,3.54,8.79,1.8,17.43,4.16,26.13,6.32,3.75.93,7.12,1.24,10.63-1.36,4.26-3.17,8.96-5.75,12.64-9.69"/>
      <path class="cls-1" d="M58.59,34.43c3.44-8.59,7.29-17.01,10.57-25.66.18-.48.99-2.09.95-2.59-.07-.95.05-1.16-1.46-1.45-1.09-.22-1.52.68-1.94,1.63-3.23,7.46-6.54,14.88-9.8,22.32-.69,1.58-1.29,3.2-1.93,4.79"/>
      <path class="cls-1" d="M33.16,4.92c4.08.77,4.1.77,4.04,5.04-.11,8.55,1,18.95,1,18.95"/>
      <path class="cls-1" d="M37.18,7.13c-.49-2.92-.03-4.39-.54-5.41-.39-.77-2.25-.83-2.99-.6-1.34.42-1.48,1.89-1.37,2.83.33,2.72.18,5.45.33,8.17.23,4.4.31,8.8.77,13.19.08.79.16,1.63-.22,2.4"/>
      <path class="cls-1" d="M48.99,50.5c.48,3.65-.24,7.21-.7,10.8-.05.38-.22.87.22,1.2"/>
      <path class="cls-1" d="M24.04,35.14c-1.93.78-3.49,2.27-5.52,2.88"/>
      <path class="cls-1" d="M16.61,50.02c-1.76-.4-3.52-.8-5.28-1.2"/>
      <path class="cls-1" d="M39.63,55.3c1.44.32,2.88.64,4.32.96"/>
      <path class="cls-1" d="M24.76,52.18c-1.27-.27-2.43-1.18-3.84-.72"/>
      <path class="cls-1" d="M30.28,53.38l3.6.72"/>
      <line class="cls-1" x1="26.8" y1="39.74" x2="29.38" y2="37.72"/>
      <line class="cls-1" x1="68.61" y1="10.2" x2="65.63" y2="8.84"/>
    </g>
  </g>
</svg>