<?xml version="1.0" encoding="UTF-8"?>
<svg id="Camada_2" xmlns="http://www.w3.org/2000/svg" viewBox="0 0 48.87 90.93">
  <defs>
    <style>
      .cls-1 {
        fill: none;
        stroke: #000;
        stroke-linecap: round;
        stroke-linejoin: round;
        stroke-width: 2px;
      }
    </style>
  </defs>
  <g id="Camada_1-2" data-name="Camada_1">
    <g>
      <path class="cls-1" d="M11.15,20.86c-2.66,1.29-2.84,1.61-1.89,4.07.18.47.11.76,0,1.22-1.89,8.71-4.05,17.37-5.44,26.16-.96,6.04-2.23,12.05-2.61,18.21-.23,3.65-.63,7.07.97,10.6,1.21,2.67,3.37,3.84,5.63,4.96,5.26,2.62,10.88,4,16.77,3.85,3.53-.09,6.82-1.27,9.83-3.11,3.36-2.06,4.1-5.63,4.78-9.1,1.91-9.7,3.23-19.5,4.82-29.26.82-5.03,1.56-10.08,2.45-15.1.12-.69.29-1.2-.29-1.69"/>
      <path class="cls-1" d="M9.71,25.9c9.6,6.28,20.28,7.78,31.42,6.89,2.1-.17,4.36-.64,6-2.33.88-.9.99-1.88.23-2.87-1.07-1.39-1.7-3.04-2.55-4.47-1.64-2.77-3.7-5.51-6.8-7.05"/>
      <path class="cls-1" d="M21.23,13.91c-2.9,1.72-6.17,2.85-8.63,5.28-1.73,1.71-1.65,2.6.48,4.06,4.33,2.97,9.26,4.1,14.38,4.86,3.37.5,6.72.39,10.08.4,2.81.01,5.48-.68,7.92-2.14"/>
      <path class="cls-1" d="M21.71,14.15c.51,1.31,1.86,1.57,2.9,1.86,2.96.83,6,1.45,9.1,1.49,2.6.04,4.13-1.13,4.54-3.59.43-2.55,1.01-5.07,1.32-7.66.15-1.28-.08-1.88-1.06-2.41-3.44-1.87-7.2-2.59-11.04-2.83-1.78-.11-2.91,1.18-3.6,2.82-1.36,3.23-2.65,6.47-2.39,10.08"/>
      <path class="cls-1" d="M38.98,6.71c-3.84.19-7.63-.07-11.27-1.44"/>
      <path class="cls-1" d="M29.38,8.39c1.54.41.99,1.5.7,2.39-.34,1.03-.9,2.01-2.14,2.12-.23.02-.64-.3-.77-.9-.44-2.08-.03-2.99,1.98-3.61"/>
      <path class="cls-1" d="M12.59,38.13c-1.65,1.49-1.37,3.66-1.89,5.53-.94,3.36-1.54,6.83-1.67,10.31-.22,5.98,2.85,10,8.59,12.02,3.67,1.3,7.3,1.49,11.05.46,3.72-1.02,6.1-3.45,7.42-6.97,1.38-3.66,2.36-7.44,3.11-11.27.64-3.31-.81-6.05-3.34-6.45-2.54-.41-5.11-.89-7.67-.93-5.28-.08-10.38-.93-15.35-2.69"/>
    </g>
  </g>
</svg>