<svg id="Camada_1" data-name="Camada 1" xmlns="http://www.w3.org/2000/svg" xmlns:xlink="http://www.w3.org/1999/xlink" viewBox="0 0 1667.56 1955.56"><defs><style>.cls-1{fill:url(#Gradiente_sem_nome_8);}.cls-2{fill:#fff;}.cls-3{mask:url(#mask);}.cls-4{fill:#eb682f;}.cls-5{fill:#f8c59e;}.cls-6{fill:url(#Gradiente_sem_nome_62);}.cls-7{fill:#f7b98e;}.cls-8{fill:#612a0d;}.cls-9{fill:#1d1d1b;}.cls-10{fill:#fce5d4;}.cls-11{fill:url(#Gradiente_sem_nome_66);}.cls-12{fill:url(#Gradiente_sem_nome_66-2);}.cls-13{fill:url(#Gradiente_sem_nome_66-3);}.cls-14{fill:none;stroke:#1d1d1b;stroke-miterlimit:10;}.cls-15{fill:#a16226;}.cls-16{fill:#f4ab4f;}.cls-17{fill:#b66e25;}.cls-18{fill:#d28237;}</style><linearGradient id="Gradiente_sem_nome_8" x1="4742.04" y1="1407.58" x2="5414.02" y2="1407.58" gradientTransform="translate(-2176.25 153.89) scale(0.5 1.09)" gradientUnits="userSpaceOnUse"><stop offset="0.26"/><stop offset="0.34" stop-color="#050505"/><stop offset="0.42" stop-color="#121212"/><stop offset="0.51" stop-color="#282828"/><stop offset="0.61" stop-color="#474747"/><stop offset="0.7" stop-color="#6f6f6f"/><stop offset="0.8" stop-color="#a0a0a0"/><stop offset="0.9" stop-color="#d8d8d8"/><stop offset="0.96" stop-color="#fff"/></linearGradient><mask id="mask" x="-114.83" y="1022.45" width="1342.32" height="1063.63" maskUnits="userSpaceOnUse"><g transform="translate(-191.44 -22.22)"><rect class="cls-1" x="185.53" y="1364.17" width="334.68" height="637.58" transform="translate(668.38 -7.4) rotate(22.41)"/><polygon class="cls-2" points="574.72 1044.67 625.27 1450.48 382.16 2039.88 1396.62 2108.3 1418.93 1119.05 574.72 1044.67"/></g></mask><linearGradient id="Gradiente_sem_nome_62" x1="660.06" y1="3035.99" x2="1589.1" y2="-2288.85" gradientUnits="userSpaceOnUse"><stop offset="0" stop-color="#e85124"/><stop offset="1" stop-color="#eb682f"/></linearGradient><linearGradient id="Gradiente_sem_nome_66" x1="-599.46" y1="3889.33" x2="566.46" y2="1912.88" gradientUnits="userSpaceOnUse"><stop offset="0" stop-color="#eb682f"/><stop offset="1" stop-color="#f18a52"/></linearGradient><linearGradient id="Gradiente_sem_nome_66-2" x1="-674.24" y1="3845.36" x2="491.74" y2="1868.81" xlink:href="#Gradiente_sem_nome_66"/><linearGradient id="Gradiente_sem_nome_66-3" x1="-761.53" y1="3646.75" x2="345.5" y2="1770.14" xlink:href="#Gradiente_sem_nome_66"/></defs><g class="cls-3"><path class="cls-4" d="M1099.8,1767.61a378.76,378.76,0,0,1-59.81,17.71,337.88,337.88,0,0,1-86.1,7.31c-6.25-.49-12.44-1.31-18.68-1.94a120.08,120.08,0,0,1-18.54-3l-18.34-4.26L880.52,1777c-2.95-1.11-6-2.08-8.91-3.34l-8.42-4.35c-5.66-2.95-11.37-5.62-16.74-9-10.17-7.45-21.25-14.13-29.91-22.94-9.3-8.32-18.83-16.5-26.52-26.47-4-4.79-8.43-9.29-12.1-14.42l-10.36-15.88c-1.6-2.71-3.53-5.27-5-8.08l-4.06-8.52c-2.66-5.75-5.47-11.37-7.94-17.22-3.63-11.86-8.52-23.67-10.74-35.77-.53-2.37-1.07-4.69-1.55-7.07-.19-.82-.39-1.69-.53-2.51-.92-4.41-1.75-8.86-2.57-13.26-.34-1.84-.63-3.63-.92-5.47-.14-.73-.24-1.45-.38-2.13-1.7-10.16-3-20.38-4.31-30.39-.15-.88-.29-2-.44-3.2-.24-2-.53-4.5-.82-7.21-.1-.87-.19-1.74-.34-2.66,0-.24-.05-.49-.05-.68-.09-.92-.24-1.89-.34-2.85-.19-1.75-.38-3.49-.58-5.18,0-.73-.14-1.5-.24-2.23-.73-6.15-1.35-11.76-1.69-15l-1-.58-16.75,27.34c-6.09,8.81-11.47,18-18.19,26.38-6.2,8.8-12.59,17.32-19.51,25.4-6.48,8.52-13.94,16.22-21,24.3a372.74,372.74,0,0,1-40.41,37.7A648.91,648.91,0,0,1,526.79,1616a939.29,939.29,0,0,1-81.36-48.35c-4.55-3.1-9.15-6.2-13.65-9.34q-22.35-15.46-44-31.94l-.1-.15q-9.36-7.11-18.58-14.37c-2.81-2.23-5.57-4.45-8.37-6.73-4.51-3.68-9-7.36-13.46-11.13-4.84-4-9.63-8.08-14.37-12.25-2.42-2-4.79-4.06-7.12-6.19-1.74-1.45-3.43-3-5.13-4.5,4.26,10.31,8.38,27.25,6.15,52.22-4.36,49.07-33.2,129.22-133.24,251.18l-2.08,2.52s-.05,0-.05.09c.63.49,1.21,1,1.84,1.45,11.91,9.1,23.62,18.44,35.33,27.83q5.8,4.65,11.62,9.44c3.87,3.15,7.74,6.34,11.61,9.49s7.84,6.38,11.76,9.53c7.75,6.34,15.44,12.63,23.23,18.92,37.61,30.3,76.33,60.06,119.93,82.66,43.22,22.94,91.66,37.51,141.13,40.66s98.68-4.5,146.15-15.88c95.25-23.57,185.12-63.11,270.25-109.52q10.53-5.8,21.06-11.76c4.16-2.32,8.37-4.69,12.53-7.11,5.86-3.39,11.66-6.78,17.47-10.21,1.21-.68,2.42-1.41,3.63-2.13,4.07-2.42,8.08-4.84,12.1-7.26h.24q13.65-8.2,27.1-16.56c10.26-6.43,20.52-12.92,30.64-19.55,7-4.4,13.79-9,20.62-13.45C1106.39,1764.94,1103.09,1766.3,1099.8,1767.61Z" transform="translate(-191.44 -22.22)"/><path class="cls-5" d="M1307.62,1487.77c-1.31,24.64-3.87,49.32-10,73.37-2.42,9.78-5.23,19.56-8.42,29-.1.39-.24.87-.34,1.26-1.26,3.63-2.56,7.31-3.92,10.84-.14.49-.39.87-.48,1.36a.3.3,0,0,0-.15.24c-.24.48-.34,1.11-.58,1.6-1.35,3.53-2.81,7-4.4,10.5-.87,1.93-1.84,3.87-2.81,5.71a95.84,95.84,0,0,1-4.65,9.29c-2.56,5.76-6.09,11-9.53,16.26l-5,8c-2,2.56-4,5-6,7.45-7.79,10.5-17.08,18.44-25.89,27.34-33.83,31.17-73.37,55.71-115.76,73.52-.92.39-1.84.77-2.76,1.11-2.37,1-4.75,2-7.12,2.91a378.76,378.76,0,0,1-59.81,17.71,337.88,337.88,0,0,1-86.1,7.31c-.87-.05-1.7-.15-2.57-.25-5.37-.48-10.74-1.16-16.11-1.69a120.08,120.08,0,0,1-18.54-3l-18.34-4.26L880.52,1777c-2.95-1.11-6-2.08-8.91-3.34l-8.42-4.35c-5.66-2.95-11.37-5.62-16.74-9-10.17-7.45-21.25-14.13-29.91-22.94-9.3-8.32-18.83-16.5-26.52-26.47-4-4.79-8.43-9.29-12.1-14.42l-10.36-15.88c-1.6-2.71-3.53-5.27-5-8.08l-4.06-8.52c-2.66-5.75-5.47-11.37-7.94-17.22-3.63-11.86-8.52-23.67-10.74-35.77-2.18-9.44-4-18.83-5.62-28.22-1.83-10.88-3.29-21.87-4.64-32.61-1.07-8-3.63-31-4.5-39-1.6-15-3.29-29.91-5.38-44.77-12.19-95.15-39.54-187.59-76.9-276.35l-1-2.47,1-1.93c8.42-17.23,19.26-33.83,32.72-48,.48-.53.82-.87,1.31-1.36,13.93-14.52,30.68-26.28,49.94-33.44,19.07-7,39.93-9.68,60-6.15a121,121,0,0,1,55.08,24.59c31.89,25.36,50,63.83,57.4,102.55,7,37.12,4.89,75.07-1.6,111.7a13,13,0,0,0,2.42-1.3,175.28,175.28,0,0,0,21.54-13.56c10.6-17.37,24.39-32.62,39.63-45.92,2.42-2.09,4.94-4.07,7.46-6a184.87,184.87,0,0,1,34-20.61s.1,0,.24-.15c30.16-14.37,63.84-21,97.09-20.47a219.67,219.67,0,0,1,24.68,2c41.14,5.85,80.73,24,111,53,35.52,35.42,58.22,82.42,66.4,131.15C1307.14,1438.31,1307.76,1463.09,1307.62,1487.77Z" transform="translate(-191.44 -22.22)"/><path class="cls-6" d="M1109.7,1763.59c-6.84,4.52-13.68,9-20.64,13.43-19,12.45-38.21,24.42-57.75,36.14h-.25c-298.4,95.22-341.89-248.73-341.89-248.73,6.71-8.3,12.09-17.58,18.19-26.37l16.73-27.35,1,.61c.85,7.93,3.42,30.89,4.52,39a590.13,590.13,0,0,0,10.25,60.81c2.2,12.09,7.08,23.93,10.75,35.77,2.44,5.87,5.25,11.48,7.94,17.22l4,8.55c1.47,2.81,3.42,5.37,5,8.06l10.38,15.87c3.66,5.13,8.06,9.65,12.09,14.41,7.69,10,17.22,18.19,26.5,26.5,8.66,8.79,19.78,15.5,29.91,23,5.37,3.3,11.11,6,16.73,8.92l8.42,4.39c2.94,1.22,6,2.2,8.92,3.3l17.83,6.35,18.31,4.27a119.75,119.75,0,0,0,18.56,3.06c6.23.61,12.46,1.46,18.68,2a338.76,338.76,0,0,0,86.09-7.33,377.91,377.91,0,0,0,59.83-17.7Z" transform="translate(-191.44 -22.22)"/><path class="cls-7" d="M734.22,1582.87c-1.83-10.87-3.29-21.85-4.63-32.6-1.1-8.06-3.67-31-4.52-39-1.59-15-3.3-29.92-5.38-44.81-12.21-95.12-39.56-187.56-76.92-276.33l-1-2.44,1-2c8.42-17.21,19.29-33.82,32.72-48l26.13,10.5S772.66,1414.18,734.22,1582.87Z" transform="translate(-191.44 -22.22)"/><path class="cls-7" d="M1126.79,1653.45c.48.75-.48,1.59-.73,2.44l-1.1-3.78c-18.68-14.17-42.37-23-66.55-24.79-2.68-.25-5.37-.49-8.05-.49-22.35-.85-44.45,3.17-64.84,4.15-11.48.25-22.59.12-32.11-3.54a58.84,58.84,0,0,1-24.55-17.58c-3.42-3.91-5.86-8.92-8.91-13.31-2.08-5.25-4.52-10.26-6.6-15.39l-5.13-16.48-3.41-15.88-.25-1.09-.36-2.57a397.92,397.92,0,0,1,2.07-132.85c.12-1.47.49-3,.73-4.52,0-.12.13-.36.13-.49,4.39-23.2,10.86-46,21.12-66.91a162.78,162.78,0,0,1,14.16-23.93.39.39,0,0,1,.13-.25c.61-1.58,3.9-9.28,14.41-22.34,8.91-11.24,23.2-26.62,45.66-45.55,0,0-38,249.57,23.2,320.72C1062.24,1611.41,1088.76,1594.08,1126.79,1653.45Z" transform="translate(-191.44 -22.22)"/><path class="cls-7" d="M1027.89,1658.21c-1.71,8.79-3.05,17.71-2.08,26.74-238.67,18.56-156.41-337.74-156.41-337.74,11.35-.12,22.59-2.93,33.45-6.72,3.3-1.34,6.6-2.68,9.89-4.15-10.86,21.49-18.07,44.2-23.07,67.28-10.63,48.23-13.44,98.3-5.13,147.75l4,18.44c1.71,6.1,3.78,12.21,5.61,18.31,2.32,6,5.13,11.85,7.7,17.83,3.78,5.62,6.71,11.6,11.23,16.85a74.81,74.81,0,0,0,33.95,23.44c13.43,4.52,27.1,4.16,39.68,3.06,16-1.59,30.89-4.77,45.67-7A144.38,144.38,0,0,0,1027.89,1658.21Z" transform="translate(-191.44 -22.22)"/><path class="cls-8" d="M933.5,1324.37a113.77,113.77,0,0,1-20.76,12c-3.29,1.47-6.59,2.81-9.89,4.15-10.86,3.79-22.1,6.6-33.45,6.72a134.74,134.74,0,0,0,19.17-7.08,68.3,68.3,0,0,0,9-4.4,15.43,15.43,0,0,0,2.44-1.34,166.69,166.69,0,0,0,21.49-13.56c2-1.58,3.79-2.93,5.62-4.39Z" transform="translate(-191.44 -22.22)"/><path class="cls-8" d="M1042.67,1635.38c-.74,1.95-1.47,4-2.2,6-5.25,14.29-10.63,28.45-14.66,43.59-1-9,.37-18,2.08-26.74a144.38,144.38,0,0,1,4.52-15.87,91.26,91.26,0,0,1,3.91-9.53Z" transform="translate(-191.44 -22.22)"/><path class="cls-8" d="M1127.29,1653.82l-1.21,2.09-15.34-6.73-1.16-.49c-5.76-1.69-11.13-4-16.84-5.13s-11.47-2.46-17.33-2.71a140.18,140.18,0,0,0-17.37-.72c-4.5.14-9.15.39-13.65.87-1.36,0-2.57.24-3.92.34-2.71.29-5.37.63-8.08,1-14.76,2.18-29.67,5.38-45.64,6.93-9.78.87-20.23,1.3-30.68-.68a69.22,69.22,0,0,1-9-2.37,74.62,74.62,0,0,1-34-23.43c-4.5-5.27-7.41-11.23-11.23-16.84-2.56-6-5.37-11.86-7.69-17.86-1.8-6.1-3.88-12.19-5.62-18.29l-4-18.44c-8.32-49.46-5.46-99.51,5.13-147.76,5-23.08,12.2-45.78,23.09-67.27a30.09,30.09,0,0,1,1.45-3,130.19,130.19,0,0,1,7.36-12.44,184.27,184.27,0,0,1,30-36.87c3.05-3.2,6.34-6.15,9.63-9,2.42-2.09,4.94-4.07,7.46-6v0c1.6-1.21,3.19-2.42,4.84-3.58,1.06-.77,2.18-1.55,3.24-2.27,3.49-2.37,7-4.6,10.6-6.68,1.21-.73,2.47-1.45,3.73-2.18,3.77-2.08,7.64-4.06,11.56-5.9a383.32,383.32,0,0,0-34.36,32.42c-4.5,4.84-8.23,9.25-11.32,13.12-10.51,13.07-13.8,20.76-14.43,22.36a.38.38,0,0,0-.09.24,163.41,163.41,0,0,0-14.18,23.91c-10.26,20.91-16.7,43.7-21.1,66.93,0,.1-.15.34-.15.48-.24,1.46-.58,3-.73,4.51a398.19,398.19,0,0,0-2.08,132.85c.15.87.25,1.74.39,2.56l.24,1.11,3.39,15.88,5.13,16.5c2.08,5.13,4.55,10.12,6.63,15.39,3,4.36,5.47,9.39,8.91,13.31a58.91,58.91,0,0,0,24.53,17.57c1.12.43,2.18.77,3.34,1.11,8.76,2.57,18.59,2.61,28.8,2.42,20.37-1,42.49-5,64.8-4.16,2.71,0,5.37.24,8.08.48a129.47,129.47,0,0,1,52.52,15.68,118.18,118.18,0,0,1,14,9.1c.58.39,1.21.87,1.84,1.36C1126.91,1653.58,1127.15,1653.68,1127.29,1653.82Z" transform="translate(-191.44 -22.22)"/><path class="cls-8" d="M894.41,1551.25c30.78-19.17,62.34-38.26,97.46-50,34.71-12,72.23-19.62,110.24-15.94,9.4,1.1,18.8,2.78,28.27,4.21,9.2,2.47,18.5,5,27.67,7.92,8.66,4.12,17.85,7.39,26.09,12.35,8.06,5.25,16.5,10,23.56,16.56,29.37,24.57,51.5,57.16,61.39,93l-2.21,1c-10.78-14.85-22.62-28.23-34.56-41.06-6.59-5.88-12.19-12.55-19.19-17.78l-9.82-8.43-10.52-7.44c-27.8-19.47-58.46-36-93-41-34.29-5.73-70.1-1.11-104.31,8.21-34.82,8.26-67.48,24.15-99.79,40.46Z" transform="translate(-191.44 -22.22)"/><path class="cls-8" d="M893.31,1416.06c17-10,33.38-21.12,51-30.25,17.78-8.71,35.28-18.3,54.28-24.65,18.48-7.72,38.2-11.89,57.8-16.61l30.16-3.87c10.12-.79,20.37-.29,30.61-.46,10.24.06,20.41,2.16,30.68,3.2,10.21,1.54,20.13,4.76,30.29,7.14,9.66,3.75,19.44,7.56,28.78,12.17,8.77,5.59,18.29,10.19,26.08,17.14,32.66,25.71,57,60.88,68.17,99.49l-2.21,1a422.77,422.77,0,0,0-37.08-44.8c-7.12-6.4-13.3-13.55-20.93-19.15-3.69-2.91-7-6.19-10.81-8.94l-11.52-7.9c-30.53-20.73-65.14-36.15-102.9-39.9-9.42-.38-18.86-1.49-28.35-1.35l-28.56,1.88c-18.84,3.37-38,6.12-56.36,12.51-18.91,4.6-36.74,12.55-54.95,19.67-18,7.54-35.15,17.19-52.87,25.73Z" transform="translate(-191.44 -22.22)"/><path class="cls-9" d="M1003.34,1247.94a1.08,1.08,0,0,0-.73.36l.25-.24Z" transform="translate(-191.44 -22.22)"/><path class="cls-7" d="M1126.06,1655.89c-68.26-22-100.25,29.06-100.25,29.06,4-15.14,9.41-29.3,14.66-43.59,1.34-.12,2.56-.37,3.9-.37,4.52-.48,9.16-.73,13.68-.85a137.8,137.8,0,0,1,17.34.73c5.86.25,11.48,1.59,17.34,2.69s11.11,3.42,16.85,5.13Z" transform="translate(-191.44 -22.22)"/><path class="cls-10" d="M897.6,1335.78s21-98.3-67.26-180.36c-91.11-84.71-174,39.08-174,39.08s52.75,79.61,70.46,331.76c-.61-4.76-1.1-9.52-1.59-14.28a2.19,2.19,0,0,1-.12-.61c-1.59-15-3.3-29.92-5.38-44.82a947.25,947.25,0,0,0-27.47-134.68c-13.19-48.11-30-95.36-49.45-141.64l-1-2.44,1-2c8.67-17.7,20-34.92,34.06-49.33s30.65-26.25,49.95-33.46a123.43,123.43,0,0,1,39.93-7.69,100.19,100.19,0,0,1,20,1.59,121,121,0,0,1,55.07,24.54c31.87,25.4,50.06,63.86,57.39,102.57C906.15,1261.17,904.07,1299.15,897.6,1335.78Z" transform="translate(-191.44 -22.22)"/><path class="cls-10" d="M1307.63,1487.75c-38.54-311-294.76-242-304.77-239.57,30.16-14.41,63.86-21,97.07-20.51,49.7,1.1,99.39,20.14,135.66,55.07,35.53,35.41,58.24,82.42,66.42,131.14C1307.14,1438.3,1307.76,1463.09,1307.63,1487.75Z" transform="translate(-191.44 -22.22)"/><path class="cls-11" d="M1109.68,1763.59c-6.83,4.5-13.65,9.05-20.62,13.45-10.12,6.63-20.38,13.12-30.64,19.55q-13.43,8.36-27.1,16.56c-4.11,2.47-8.23,4.79-12.34,7.26-1.21.72-2.42,1.45-3.63,2.13-5.81,3.43-11.61,6.82-17.47,10.21-4.16,2.42-8.37,4.79-12.53,7.11q-10.53,6-21.06,11.76c-85.13,46.41-175,86-270.25,109.52-47.47,11.38-96.69,19.17-146.15,15.88S450,1959.3,406.76,1936.36c-43.6-22.6-82.32-52.36-119.93-82.66-7.79-6.29-15.48-12.58-23.23-18.92-3.92-3.15-7.84-6.39-11.76-9.53s-7.74-6.39-11.61-9.49-7.75-6.34-11.62-9.44q-18.44-14.88-37.12-29.37l2.08-2.52c33.3,23.62,65.48,48.69,98,73,38.62,28.84,78.16,56.43,121,77.29,42.59,21,89,33.49,136.14,35,47,1.84,94.27-6.34,140.15-18.92s90.51-29.77,134.45-48.69c21.88-9.68,43.61-19.65,65.34-29.67,21.73-10.26,43.07-21.15,64.61-31.75,1.4-.67,2.76-1.4,4.16-2.13,27.63-14,55.17-28.5,82.52-43.31a378.76,378.76,0,0,0,59.81-17.71C1103.09,1766.3,1106.39,1764.94,1109.68,1763.59Z" transform="translate(-191.44 -22.22)"/><path class="cls-12" d="M729.59,1550.27c-6.6,9.89-13.68,19.54-21,28.94-13.92,17.83-29.79,33.94-46.4,49a397.5,397.5,0,0,1-54.33,39.57c-19.42,11.11-39.57,21.12-61.18,26.86l-.73-2.32C565.72,1683,584,1671,601,1657.72c.24-.24.61-.49.85-.73,2.2-1.59,4.28-3.3,6.35-5.13a369.5,369.5,0,0,0,40.42-37.73c7.08-8.06,14.53-15.75,21-24.3,7-8.06,13.31-16.6,19.54-25.4,6.71-8.3,12.09-17.58,18.19-26.37l16.73-27.35,1,.61C725.92,1519.25,728.49,1542.21,729.59,1550.27Z" transform="translate(-191.44 -22.22)"/><path class="cls-13" d="M613.71,1653.92l-1.7,5.86c-3.43-.83-6.72-1.7-10.16-2.81a667.32,667.32,0,0,1-81.45-27.2,955.51,955.51,0,0,1-87.31-41.52q-42.61-23.09-83.24-49.56c-7.75-5.13-15.39-10.26-23-15.44,2.23-25-1.89-41.91-6.15-52.22,0,0-.05-.1-.05-.15,1.7,1.55,3.44,3.1,5.18,4.65,2.37,2.08,4.75,4.16,7.12,6.19,4.74,4.17,9.53,8.23,14.37,12.25,4.45,3.77,9,7.45,13.46,11.13,2.8,2.28,5.56,4.5,8.37,6.73,6.14,4.89,12.39,9.77,18.68,14.52q21.63,16.47,44,31.94c4.5,3.14,9.1,6.24,13.65,9.34A939.29,939.29,0,0,0,526.79,1616a648.91,648.91,0,0,0,81.45,35.86A58.47,58.47,0,0,0,613.71,1653.92Z" transform="translate(-191.44 -22.22)"/><path class="cls-14" d="M1083.83,1878.58v-.19" transform="translate(-191.44 -22.22)"/></g><path class="cls-15" d="M1101.11,1939.56v.19c-.29,14.76-35.18,26-77.87,25s-77-13.69-76.66-28.5,35.18-26,77.87-25C1066.94,1912.21,1101.11,1924.8,1101.11,1939.56Z" transform="translate(-191.44 -22.22)"/><path class="cls-16" d="M1805,22.22v.29l0,1.5c-.38,11-1.45,43.17-3,89.39-6.58,196.78-21.48,648.13-26.52,801.74C1514,923.61,627.06,952.94,313.06,963.49c-21.92.78-41.08,1.41-57,1.94.05-1,.1-2.37.15-4.07l.14-4.4c.05-1.79.1-3.78.2-6l.09-3.1.25-7.41.43-13.21L285.67,72.56Z" transform="translate(-191.44 -22.22)"/><path class="cls-17" d="M1859,111.51v.29l0,1.51c-2,57.83-23.33,701.46-29.53,891.13-128.68,4.16-409.09,13.4-698.07,22.94l1.4-42.16c.34-14.76-34-27.54-76.71-28.5S978.52,967,978.18,981.79V982l-1.69,50.53c-285.78,9.48-554.77,18.39-666.43,22.21l-54-89.29c15.93-.53,35.09-1.16,57-1.94,314-10.55,1200.92-39.88,1462.36-48.35,5-153.61,19.94-605,26.52-801.74,1.55-46.22,2.62-78.4,3-89.39l0-1.5v-.29Z" transform="translate(-191.44 -22.22)"/><path class="cls-18" d="M1132.76,985.22l-1.4,42.16-6.73,202.3a219.67,219.67,0,0,0-24.68-2c-33.25-.53-66.93,6.1-97.09,20.47-.14.15-.24.15-.24.15a184.87,184.87,0,0,0-34,20.61l7.84-236.41L978.18,982v-.19c.34-14.81,35.24-26,77.87-25.07S1133.1,970.46,1132.76,985.22Z" transform="translate(-191.44 -22.22)"/><path class="cls-18" d="M1110.74,1649.18l-1.06,31.46v0l-2.76,84-5.81,174.86c0-14.76-34.17-27.35-76.66-28.31-42.69-1-77.53,10.26-77.87,25l4.74-143.89,3.78-114.94,1-28.84c10.45,2,20.9,1.55,30.68.68,16-1.55,30.88-4.75,45.64-6.93,2.71-.38,5.37-.72,8.08-1,1.35-.1,2.56-.34,3.92-.34,4.5-.48,9.15-.73,13.65-.87a140.18,140.18,0,0,1,17.37.72c5.86.25,11.47,1.6,17.33,2.71s11.08,3.44,16.84,5.13Z" transform="translate(-191.44 -22.22)"/><path class="cls-15" d="M1131.36,1027.38l1.4-42.16c.34-14.76-34-27.54-76.71-28.5S978.52,967,978.18,981.79V982l-1.69,50.53c-285.78,9.48-554.77,18.39-666.43,22.21l-54-89.29c15.93-.53,35.09-1.16,57-1.94,314-10.55,1200.92-39.88,1462.36-48.35l54,89.3C1700.75,1008.6,1420.34,1017.84,1131.36,1027.38Z" transform="translate(-191.44 -22.22)"/><path class="cls-15" d="M1110.74,1649.18l-.63,18.58s-31.78-14.54-63.76-2.91c-57.23,20.8-91.25,12.59-91.25,12.59l1-28.84c10.45,2,20.9,1.55,30.68.68,16-1.55,30.88-4.75,45.64-6.93,2.71-.38,5.37-.72,8.08-1,1.35-.1,2.56-.34,3.92-.34,4.5-.48,9.15-.73,13.65-.87a140.18,140.18,0,0,1,17.37.72c5.86.25,11.47,1.6,17.33,2.71s11.08,3.44,16.84,5.13Z" transform="translate(-191.44 -22.22)"/></svg>