<svg xmlns="http://www.w3.org/2000/svg" xmlns:xlink="http://www.w3.org/1999/xlink" viewBox="0 0 516.72 881.4"><defs><style>.cls-1{fill:#ec682f;}.cls-2{fill:#f9c6a0;}.cls-3{fill:#fbcfab;}.cls-4{fill:#f7ba8f;}.cls-5{fill:#fffbf2;}.cls-6{fill:#612a0d;}.cls-7{fill:url(#Gradiente_sem_nome_9);}.cls-8{fill:url(#Gradiente_sem_nome_9-2);}.cls-9{fill:#5b200d;}.cls-10{fill:#fff;}.cls-11{fill:#e5dfd3;}.cls-12{fill:#f7ac6e;}.cls-13{fill:none;}.cls-14{fill:url(#Gradiente_sem_nome_62);}.cls-15{fill:url(#Gradiente_sem_nome_62-2);}.cls-16{fill:url(#Gradiente_sem_nome_62-3);}.cls-17{fill:url(#Gradiente_sem_nome_62-4);}.cls-18{fill:url(#Gradiente_sem_nome_62-5);}.cls-19{fill:url(#Gradiente_sem_nome_62-6);}.cls-20{fill:url(#Gradiente_sem_nome_62-7);}.cls-21{fill:url(#Gradiente_sem_nome_62-8);}.cls-22{fill:url(#Gradiente_sem_nome_62-9);}.cls-23{fill:url(#Gradiente_sem_nome_62-10);}.cls-24{fill:url(#Gradiente_sem_nome_62-11);}.cls-25{fill:url(#Gradiente_sem_nome_62-12);}.cls-26{fill:url(#Gradiente_sem_nome_62-13);}.cls-27{fill:url(#Gradiente_sem_nome_62-14);}.cls-28{fill:url(#Gradiente_sem_nome_62-15);}.cls-29{fill:url(#Gradiente_sem_nome_62-16);}.cls-30{fill:url(#Gradiente_sem_nome_62-17);}.cls-31{fill:url(#Gradiente_sem_nome_62-18);}.cls-32{fill:url(#Gradiente_sem_nome_62-19);}.cls-33{fill:url(#Gradiente_sem_nome_62-20);}.cls-34{fill:#e9771b;}.cls-35{fill:#1d1d1b;}.cls-36{fill:#fde6d5;}.cls-37{fill:url(#Gradiente_sem_nome_66);}.cls-38{fill:url(#Gradiente_sem_nome_66-2);}.cls-39{fill:url(#Gradiente_sem_nome_66-3);}.cls-40{fill:url(#Gradiente_sem_nome_66-4);}.cls-41{fill:url(#Gradiente_sem_nome_66-5);}.cls-42{fill:url(#Gradiente_sem_nome_66-6);}.cls-43{fill:url(#Gradiente_sem_nome_66-7);}.cls-44{fill:url(#Gradiente_sem_nome_66-8);}.cls-45{fill:url(#Gradiente_sem_nome_66-9);}.cls-46{fill:url(#Gradiente_sem_nome_66-10);}.cls-47{fill:url(#Gradiente_sem_nome_66-11);}.cls-48{fill:url(#Gradiente_sem_nome_66-12);}.cls-49{fill:url(#Gradiente_sem_nome_66-13);}.cls-50{fill:url(#Gradiente_sem_nome_66-14);}.cls-51{fill:url(#Gradiente_sem_nome_66-15);}.cls-52{fill:url(#Gradiente_sem_nome_66-16);}.cls-53{fill:url(#Gradiente_sem_nome_66-17);}.cls-54{fill:url(#Gradiente_sem_nome_66-18);}.cls-55{fill:url(#Gradiente_sem_nome_66-20);}.cls-56{fill:#602b11;}</style><linearGradient id="Gradiente_sem_nome_9" x1="293.09" y1="224.24" x2="293.09" y2="281.54" gradientUnits="userSpaceOnUse"><stop offset="0.39" stop-color="#dd4f24"/><stop offset="1" stop-color="#5b200d"/></linearGradient><linearGradient id="Gradiente_sem_nome_9-2" x1="184.82" y1="221.37" x2="184.82" y2="281.16" xlink:href="#Gradiente_sem_nome_9"/><linearGradient id="Gradiente_sem_nome_62" x1="202.79" y1="740.8" x2="394.75" y2="-359.44" gradientUnits="userSpaceOnUse"><stop offset="0" stop-color="#e95124"/><stop offset="1" stop-color="#ec682f"/></linearGradient><linearGradient id="Gradiente_sem_nome_62-2" x1="-49.57" y1="696.77" x2="142.39" y2="-403.47" xlink:href="#Gradiente_sem_nome_62"/><linearGradient id="Gradiente_sem_nome_62-3" x1="-5.43" y1="704.47" x2="186.53" y2="-395.77" xlink:href="#Gradiente_sem_nome_62"/><linearGradient id="Gradiente_sem_nome_62-4" x1="97.54" y1="722.44" x2="289.51" y2="-377.81" xlink:href="#Gradiente_sem_nome_62"/><linearGradient id="Gradiente_sem_nome_62-5" x1="67.11" y1="717.13" x2="259.08" y2="-383.12" xlink:href="#Gradiente_sem_nome_62"/><linearGradient id="Gradiente_sem_nome_62-6" x1="245.39" y1="748.23" x2="437.35" y2="-352.01" xlink:href="#Gradiente_sem_nome_62"/><linearGradient id="Gradiente_sem_nome_62-7" x1="159.41" y1="733.23" x2="351.37" y2="-367.01" xlink:href="#Gradiente_sem_nome_62"/><linearGradient id="Gradiente_sem_nome_62-8" x1="96.52" y1="722.26" x2="288.48" y2="-377.99" xlink:href="#Gradiente_sem_nome_62"/><linearGradient id="Gradiente_sem_nome_62-9" x1="63.91" y1="716.57" x2="255.87" y2="-383.68" xlink:href="#Gradiente_sem_nome_62"/><linearGradient id="Gradiente_sem_nome_62-10" x1="99.52" y1="722.78" x2="291.49" y2="-377.46" xlink:href="#Gradiente_sem_nome_62"/><linearGradient id="Gradiente_sem_nome_62-11" x1="-22.96" y1="701.41" x2="169" y2="-398.83" xlink:href="#Gradiente_sem_nome_62"/><linearGradient id="Gradiente_sem_nome_62-12" x1="196" y1="739.62" x2="387.97" y2="-360.63" xlink:href="#Gradiente_sem_nome_62"/><linearGradient id="Gradiente_sem_nome_62-13" x1="216.35" y1="743.17" x2="408.31" y2="-357.08" xlink:href="#Gradiente_sem_nome_62"/><linearGradient id="Gradiente_sem_nome_62-14" x1="110.21" y1="724.65" x2="302.18" y2="-375.6" xlink:href="#Gradiente_sem_nome_62"/><linearGradient id="Gradiente_sem_nome_62-15" x1="148.56" y1="731.34" x2="340.52" y2="-368.91" xlink:href="#Gradiente_sem_nome_62"/><linearGradient id="Gradiente_sem_nome_62-16" x1="247.26" y1="748.56" x2="439.23" y2="-351.68" xlink:href="#Gradiente_sem_nome_62"/><linearGradient id="Gradiente_sem_nome_62-17" x1="382.92" y1="772.23" x2="574.88" y2="-328.02" xlink:href="#Gradiente_sem_nome_62"/><linearGradient id="Gradiente_sem_nome_62-18" x1="216.48" y1="743.19" x2="408.44" y2="-357.06" xlink:href="#Gradiente_sem_nome_62"/><linearGradient id="Gradiente_sem_nome_62-19" x1="229.27" y1="745.42" x2="421.23" y2="-354.82" xlink:href="#Gradiente_sem_nome_62"/><linearGradient id="Gradiente_sem_nome_62-20" x1="159.98" y1="733.33" x2="351.94" y2="-366.91" xlink:href="#Gradiente_sem_nome_62"/><linearGradient id="Gradiente_sem_nome_66" x1="-43.27" y1="850.69" x2="197.65" y2="442.29" gradientUnits="userSpaceOnUse"><stop offset="0" stop-color="#ec682f"/><stop offset="1" stop-color="#f28b52"/></linearGradient><linearGradient id="Gradiente_sem_nome_66-2" x1="-74.49" y1="832.28" x2="166.43" y2="423.87" xlink:href="#Gradiente_sem_nome_66"/><linearGradient id="Gradiente_sem_nome_66-3" x1="-30.1" y1="858.46" x2="210.82" y2="450.06" xlink:href="#Gradiente_sem_nome_66"/><linearGradient id="Gradiente_sem_nome_66-4" x1="-250.37" y1="728.53" x2="-9.45" y2="320.12" xlink:href="#Gradiente_sem_nome_66"/><linearGradient id="Gradiente_sem_nome_66-5" x1="-231.66" y1="739.56" x2="9.26" y2="331.15" xlink:href="#Gradiente_sem_nome_66"/><linearGradient id="Gradiente_sem_nome_66-6" x1="-167.85" y1="777.2" x2="73.07" y2="368.8" xlink:href="#Gradiente_sem_nome_66"/><linearGradient id="Gradiente_sem_nome_66-7" x1="-172.6" y1="774.4" x2="68.32" y2="366" xlink:href="#Gradiente_sem_nome_66"/><linearGradient id="Gradiente_sem_nome_66-8" x1="106.48" y1="939.03" x2="347.4" y2="530.62" xlink:href="#Gradiente_sem_nome_66"/><linearGradient id="Gradiente_sem_nome_66-9" x1="-256.94" y1="724.65" x2="-16.02" y2="316.25" xlink:href="#Gradiente_sem_nome_66"/><linearGradient id="Gradiente_sem_nome_66-10" x1="-23.59" y1="862.3" x2="217.33" y2="453.9" xlink:href="#Gradiente_sem_nome_66"/><linearGradient id="Gradiente_sem_nome_66-11" x1="-33.09" y1="856.7" x2="207.83" y2="448.29" xlink:href="#Gradiente_sem_nome_66"/><linearGradient id="Gradiente_sem_nome_66-12" x1="-115.39" y1="808.15" x2="125.53" y2="399.74" xlink:href="#Gradiente_sem_nome_66"/><linearGradient id="Gradiente_sem_nome_66-13" x1="-39.56" y1="852.88" x2="201.36" y2="444.48" xlink:href="#Gradiente_sem_nome_66"/><linearGradient id="Gradiente_sem_nome_66-14" x1="11.11" y1="882.77" x2="252.03" y2="474.37" xlink:href="#Gradiente_sem_nome_66"/><linearGradient id="Gradiente_sem_nome_66-15" x1="120.68" y1="947.41" x2="361.6" y2="539" xlink:href="#Gradiente_sem_nome_66"/><linearGradient id="Gradiente_sem_nome_66-16" x1="107.22" y1="939.47" x2="348.14" y2="531.06" xlink:href="#Gradiente_sem_nome_66"/><linearGradient id="Gradiente_sem_nome_66-17" x1="74.85" y1="920.37" x2="315.77" y2="511.97" xlink:href="#Gradiente_sem_nome_66"/><linearGradient id="Gradiente_sem_nome_66-18" x1="103.62" y1="937.34" x2="344.54" y2="528.94" xlink:href="#Gradiente_sem_nome_66"/><linearGradient id="Gradiente_sem_nome_66-20" x1="-67.01" y1="836.69" x2="173.91" y2="428.28" xlink:href="#Gradiente_sem_nome_66"/></defs><g id="Camada_2" data-name="Camada 2"><g id="Camada_4" data-name="Camada 4"><path class="cls-1" d="M473.78,510.15a78.28,78.28,0,0,1-12.36,3.66,69.78,69.78,0,0,1-17.79,1.51c-1.29-.1-2.57-.27-3.86-.4a25,25,0,0,1-3.84-.63l-3.78-.88-3.68-1.32c-.61-.22-1.24-.42-1.85-.68l-1.74-.9c-1.16-.61-2.34-1.17-3.45-1.85a50.14,50.14,0,0,1-6.19-4.74,42.83,42.83,0,0,1-5.47-5.47c-.83-1-1.74-1.92-2.5-3l-2.14-3.28c-.33-.56-.73-1.09-1-1.67l-.83-1.76c-.55-1.19-1.14-2.35-1.64-3.56a64.41,64.41,0,0,1-2.22-7.39,123.07,123.07,0,0,1-2.12-12.57c-.23-1.66-.76-6.41-.93-8.05l-.2-.12-3.46,5.65c-1.26,1.82-2.37,3.73-3.76,5.45s-2.6,3.58-4,5.25-2.87,3.35-4.34,5a75.88,75.88,0,0,1-8.35,7.79,136.38,136.38,0,0,1-16.83-7.41c-5.75-3.08-11.4-6.36-16.8-10q-6.06-4.09-11.86-8.48l-.07-.08c-1.29-1-2.58-2-3.84-3-4.62-3.68-9.23-7.59-13.47-11.6.25-.43.53-.83.78-1.26,1-1.57,1.94-3.16,2.85-4.75a4.91,4.91,0,0,0,.28-.5c.93-1.61,1.84-3.23,2.7-4.87a179.87,179.87,0,0,0,8.55-18.49l2.8-7.47,2.25-7.7,1.11-3.83.83-3.89,1.57-7.79v0c8.88-10.62,17.53-21.62,24-34,6.66-12.27,11.94-25.54,14.13-39.59l.61-5.27a43,43,0,0,0,.4-5.3l0-5.35c0-.88,0-1.77,0-2.65l-.28-2.65-.56-5.3c-.17-1.76-.68-3.48-1-5.22s-.65-3.48-1.16-5.17l-1.61-5.05a97.65,97.65,0,0,0-7.3-16.78,61.77,61.77,0,0,0,7.14-21.24,84.35,84.35,0,0,0,.23-24.22A76.4,76.4,0,0,0,360.8,184a50.91,50.91,0,0,0-9.44-13.63,35.86,35.86,0,0,0-4.41-3.86c.5-1.41,1-2.82,1.41-4.26a6.39,6.39,0,0,0,.25-.81,67.16,67.16,0,0,0,2.73-22.88c-.66-7.75-2.83-15.62-7.29-22.1a38.94,38.94,0,0,0-8.86-9.54,44.57,44.57,0,0,0-7.29-4.59c.5-.81,10.87-18.34,12.84-45.69v-.05a123.81,123.81,0,0,0-.4-22A133,133,0,0,0,331.86,0c-24,33-71.3,28.28-106.37,42.87a78.54,78.54,0,0,0-8.91,4.28c2.78-10.06,2.43-24-1-42.38-15,28.16-65.15,32.8-88.79,39.18C115,47.13,103.27,51.6,93,58.51A91.67,91.67,0,0,0,67.22,84.77,87.2,87.2,0,0,0,56,119.57a99.12,99.12,0,0,0,.38,24.29q.33,2.35.78,4.62A64,64,0,0,0,59,155.32s0,0,0,.05a2.74,2.74,0,0,0,.18.6,50.54,50.54,0,0,0-6.66,3.13c-.94.48-1.84,1-2.75,1.59A57.82,57.82,0,0,0,26.3,191.82a61.1,61.1,0,0,0-1.44,31.52c.28,1.23.58,2.49.93,3.71.1.35.21.7.31,1.06a100.27,100.27,0,0,0-5.43,9.38,85.21,85.21,0,0,0-9.43,39.26,87.9,87.9,0,0,0,2.67,20.18,94.55,94.55,0,0,0,7.17,18.95,105,105,0,0,0,15,22.08,88.94,88.94,0,0,0,6.54,6.63,1.48,1.48,0,0,0,.25.25,131.09,131.09,0,0,0,4.49,26.75,127.69,127.69,0,0,0,19.12,40,103.27,103.27,0,0,0,30.63,28.61c-7,3.81-14,7.49-21.11,11.23-5.35,2.85-10.68,5.82-15.82,9.18A99.63,99.63,0,0,0,45.47,472,57.24,57.24,0,0,0,34,487a50.23,50.23,0,0,0-5.32,18.24,41,41,0,0,0,2.45,17.56c.15.48.33,1,.5,1.42a66.5,66.5,0,0,0,9.56,16.19,130.2,130.2,0,0,0,16.33,16.93q5,4.39,10.29,8.43c9.64,7.44,19.68,14.25,29.62,21.07,2.17,1.48,4.37,2.95,6.54,4.46a.19.19,0,0,0-.05.1c-.46.71-.86,1.47-1.27,2.2s-.65,1.23-1,1.86a2,2,0,0,1-.1.21,1.24,1.24,0,0,0-.1.2c-.28.58-.51,1.11-.71,1.59-.65,1.49-1,2.57-1.44,3.71l-1.21.43c-3.08,1-6,1.94-8.65,2.9C83.37,606.63,78.07,608.73,73,611c-.48.2-.94.43-1.41.66a141.06,141.06,0,0,0-26,15.26c-17.89,13.05-32.42,33.78-38.91,55.46L6,684.26c-.61,2-1.24,3.94-1.82,6L1.62,701.85c-.2,1-.35,2.12-.5,3.2L1,706.16c-.38,2.4-.56,4.85-.74,7.22l-.12,1.77A104,104,0,0,0,4.68,751.2,105.6,105.6,0,0,0,21.4,783.39a105.35,105.35,0,0,0,12,13.27,115.17,115.17,0,0,0,45.52,26.67c-.1.56-.2,1.11-.31,1.69a65.19,65.19,0,0,0-.8,7.62c-.71,13,1.66,25.89,5.55,38.1l.38,1.16,1.13.43a142.07,142.07,0,0,0,36.94,8.28,179,179,0,0,0,37.74-.43c12.49-1.59,24.93-4.39,36.59-9.44a77.07,77.07,0,0,0,16.55-9.56A53.58,53.58,0,0,0,224.45,849a70.1,70.1,0,0,0,14.16,6.51,146,146,0,0,0,16.85,4.87,195.15,195.15,0,0,0,34.57,5,142.08,142.08,0,0,0,17.51,0A112.86,112.86,0,0,0,325,863.15c11.43-2.4,23-7.12,31.49-15.9l.38-.38.12-.55a54,54,0,0,0,1.14-17.61,71.52,71.52,0,0,0-3.58-17.16,65.87,65.87,0,0,0-7.88-15.79,55.34,55.34,0,0,0-12.28-12.82,54,54,0,0,0-33.31-10c-.4,0-.8,0-1.18,0-1.89-24.24-3.74-48.41-5.25-72.66l-5.47-74.23Q286.68,589,285,551.78q-.84-16.53-1.47-33.08c-.12-3-.25-5.9-.35-8.85,1.11.83,2.22,1.66,3.33,2.55,6.56,5,12.87,10.34,19.33,15.54,7.77,6.26,15.77,12.41,24.77,17.08a72.45,72.45,0,0,0,29.17,8.4c10.22.68,20.38-.93,30.2-3.28,19.68-4.87,38.25-13,55.83-22.63q7-3.82,13.8-8h.05c4-2.42,8-4.89,11.94-7.47,1.44-.9,2.85-1.84,4.26-2.77Zm-321.33-11c1.89-1.72,3.73-3.51,5.47-5.35.66-.63,1.26-1.26,1.87-1.92.18,1.92.4,3.84.63,5.75.08.81.18,1.59.28,2.4.76,5.95,1.16,12,2.5,17.81.88,4,1.84,8,3,12-1.48-1.34-3-2.62-4.54-3.86-2.75-2.35-5.83-4.26-8.73-6.41-3-1.89-6-3.91-9.21-5.62-2.09-1.11-4.16-2.27-6.25-3.33l5.09-3.46c1.85-1.26,3.46-2.55,5.13-3.89S150.91,500.59,152.45,499.18Zm-10.4-15c.18-.23.36-.45.53-.68.31-.41.63-.78.94-1.19-.05.71-.13,1.39-.2,2.1A83.63,83.63,0,0,1,139,504.3l-2.09,6c-.91-.43-1.8-.86-2.7-1.26-1.64-.76-3.26-1.54-4.9-2.25l-2.8-1.11C131.43,498.34,136.65,491.13,142.05,484.14ZM164.46,674.4c-1.47,11.5-2.3,23.09-4,34.59a333.5,333.5,0,0,1-6.66,34.14,175.58,175.58,0,0,1-11,32.22c-1.71,0-3.4.12-5.12.25l-.25,0,.73-.6a32.09,32.09,0,0,0-24.65-11.51h-.38l-1,0a48.25,48.25,0,0,1-14.53-2,53.94,53.94,0,0,1-7.39-2.85,48.1,48.1,0,0,1-7-3.86,50.16,50.16,0,0,1-6.36-4.87,48.61,48.61,0,0,1-5.45-5.68A42,42,0,0,1,66.94,738a37.37,37.37,0,0,1-3.23-6.71,43.36,43.36,0,0,1-2.9-14.43c0-.53,0-1,0-1.57a22.18,22.18,0,0,1,.1-2.52l0-.73c0-.41,0-.81.1-1.24l1-7.37c.18-1,.41-1.91.64-2.85.15-.58.27-1.16.42-1.79l.51-2.39a5.43,5.43,0,0,1,.33-1c.1-.31.22-.61.3-.91l1.34-4.22c.43-.88.83-1.79,1.23-2.69a28.62,28.62,0,0,1,2.45-4.85,48.86,48.86,0,0,1,10.6-13.07,89.16,89.16,0,0,1,16.19-11.07c4.19-2.28,8.68-4.37,12.75-6.14,1.66-.73,3.22-1.41,4.69-2l.38-.21.85.53a25.52,25.52,0,0,0,7,2.91c.38.1.76.2,1.13.27a46.18,46.18,0,0,0,9.77.71,64.2,64.2,0,0,0,35.85-12.46C167,653,165.77,663.7,164.46,674.4Z"/><path class="cls-2" d="M516.72,452.32a79.23,79.23,0,0,1-2.07,15.17c-.5,2-1.08,4-1.74,6a1.83,1.83,0,0,1-.08.25c-.25.76-.53,1.52-.8,2.25,0,.1-.08.18-.1.28a.06.06,0,0,0,0,.05c0,.1-.07.23-.13.33-.27.73-.58,1.43-.9,2.17-.18.4-.38.8-.58,1.18a20.22,20.22,0,0,1-1,1.92,24.6,24.6,0,0,1-2,3.36l-1,1.66c-.41.53-.84,1-1.24,1.54a54.3,54.3,0,0,1-5.35,5.65,82.45,82.45,0,0,1-23.92,15.19l-2,.83a78.28,78.28,0,0,1-12.36,3.66,69.78,69.78,0,0,1-17.79,1.51c-1.29-.1-2.57-.27-3.86-.4a25,25,0,0,1-3.84-.63l-3.78-.88-3.68-1.32c-.61-.22-1.24-.42-1.85-.68l-1.74-.9c-1.16-.61-2.34-1.17-3.45-1.85a50.14,50.14,0,0,1-6.19-4.74,42.83,42.83,0,0,1-5.47-5.47c-.83-1-1.74-1.92-2.5-3l-2.14-3.28c-.33-.56-.73-1.09-1-1.67l-.83-1.76c-.55-1.19-1.14-2.35-1.64-3.56a64.41,64.41,0,0,1-2.22-7.39c-.45-1.95-.83-3.89-1.16-5.83-.38-2.25-.68-4.52-1-6.74-.23-1.66-.76-6.41-.93-8.05-.33-3.1-.68-6.18-1.11-9.26a219.78,219.78,0,0,0-15.9-57.09l-.2-.51.2-.4A39.82,39.82,0,0,1,386.1,380l.28-.28a27.84,27.84,0,0,1,10.32-6.92,24.24,24.24,0,0,1,12.39-1.26,25.09,25.09,0,0,1,11.38,5.07c6.58,5.25,10.34,13.2,11.86,21.2a64.84,64.84,0,0,1-.33,23.08,3,3,0,0,0,.5-.27,35.82,35.82,0,0,0,4.44-2.8,41.59,41.59,0,0,1,8.2-9.49,38.3,38.3,0,0,1,8.56-5.5s0,0,.05,0a45.26,45.26,0,0,1,20.05-4.24,42,42,0,0,1,28,11.38,50.07,50.07,0,0,1,13.73,27.1A71.84,71.84,0,0,1,516.72,452.32Z"/><path class="cls-2" d="M353.81,308.61a72.52,72.52,0,0,1-3,13.07,86.58,86.58,0,0,1-11.05,22.21,105,105,0,0,1-15.94,18.24,121.8,121.8,0,0,1-20.49,15,154.37,154.37,0,0,1-46.27,17.36,220,220,0,0,1-49.23,4.44c-18.21-.48-34.18-3.08-48.79-8a112.27,112.27,0,0,1-22.58-10.42A70.74,70.74,0,0,1,117.71,364a52.43,52.43,0,0,1-10.57-22.48,68.28,68.28,0,0,1-.46-24.73,44,44,0,0,1,4-11.68,34.84,34.84,0,0,1,7.52-9.64,42.81,42.81,0,0,1,16.93-9l5.82-1.64-6-.83c-2.63-.35-5.12-.76-7.57-1.21a68.75,68.75,0,0,1-12.31-3.53,121.15,121.15,0,0,1-6.94-29.6,94.61,94.61,0,0,1,.25-22.23,73.63,73.63,0,0,1,1.54-8.35A80.58,80.58,0,0,1,122.85,191,91.87,91.87,0,0,1,145,169.27a74.47,74.47,0,0,1,28.74-12.21,63.55,63.55,0,0,1,31.06,2.14,83.39,83.39,0,0,1,26.87,14.86A136.34,136.34,0,0,1,252.11,195l1.18,1.52.91-1.72c1.34-2.5,2.8-5.17,4.44-7.85a72.36,72.36,0,0,1,6.84-9.61c5.68-6.58,11.43-10.92,17.58-13.22a29.35,29.35,0,0,1,11.13-1.84,33.15,33.15,0,0,1,11.13,2.4,43.89,43.89,0,0,1,9.86,5.55,45.72,45.72,0,0,1,8.43,7.62,63.3,63.3,0,0,1,10.14,16.47h0c.4,1,.8,1.94,1.21,2.95a108.84,108.84,0,0,1,5.88,21.58,130.32,130.32,0,0,1,1.89,22.2,95.5,95.5,0,0,1-2.32,22l0,0c-1.21.68-2.45,1.29-3.68,1.92l-5.15,2.39,3.16,1a25.73,25.73,0,0,1,5.8,2.72,26.94,26.94,0,0,1,7.21,7c3.46,4.92,5.61,11.3,6.34,19A54.85,54.85,0,0,1,353.81,308.61Z"/><path class="cls-3" d="M357,846.32l-.12.55-.38.38c-8.53,8.78-20.06,13.5-31.49,15.9a112.86,112.86,0,0,1-17.43,2.19,142.08,142.08,0,0,1-17.51,0,195.15,195.15,0,0,1-34.57-5,152.63,152.63,0,0,1-16.52-4.74c-.1,0-.23-.08-.33-.13-2.62-1-5.25-1.94-7.82-3.1-1.87-.89-3.74-1.84-5.58-2.95l-.76-.46a45.62,45.62,0,0,1,.33-14.23,68,68,0,0,1,8.78-23.92,83.16,83.16,0,0,1,4.85-7.24c10.29-13.72,29.31-22.83,29.31-22.83,9.89-4.19,20.47-7.27,31.47-7.72a3.07,3.07,0,0,1,.68,0c.38,0,.78,0,1.18,0a54,54,0,0,1,33.31,10,55.34,55.34,0,0,1,12.28,12.82,65.87,65.87,0,0,1,7.88,15.79,69.2,69.2,0,0,1,3.05,12.67c.23,1.48.4,3,.53,4.49A54,54,0,0,1,357,846.32Z"/><path class="cls-3" d="M224.45,849l-1.81,2.45a54.47,54.47,0,0,1-10,9.74,77.07,77.07,0,0,1-16.55,9.56c-11.66,5-24.1,7.85-36.59,9.44a179,179,0,0,1-37.74.43,142.07,142.07,0,0,1-36.94-8.28l-1.13-.43-.38-1.16a123.69,123.69,0,0,1-4.8-20.81,91.52,91.52,0,0,1-.75-17.29,65.19,65.19,0,0,1,.8-7.62c.11-.58.21-1.13.31-1.69.33-1.66.7-3.3,1.16-4.94a57.1,57.1,0,0,1,7.49-16.45,46.44,46.44,0,0,1,4-5.22c7.92-9.11,18.72-15.14,30.05-18.35,1-.3,2-.55,3-.8,2.55-.58,5.15-1.06,7.74-1.42,1.69-.25,3.39-.43,5.1-.53l.25,0c1.72-.13,3.41-.23,5.12-.25h.64a81.25,81.25,0,0,1,18.34,2s28.56,6.71,44.33,26.55a88.42,88.42,0,0,1,14.61,26.76A67,67,0,0,1,224.45,849Z"/><path class="cls-4" d="M208.76,278.46l-51.06,4.72c-10.9-.4-16.76,1.69-16.76,1.69l-6-.83c-2.63-.35-5.12-.76-7.57-1.21a68.75,68.75,0,0,1-12.31-3.53s9.76-8.26,27.93-7.42C159.92,272.66,179.17,269.41,208.76,278.46Z"/><path class="cls-4" d="M274.21,254.8l7.62,29.34c-24.85-11.2-51,2.65-51,2.65L229,281.74l4-24.22C238.05,238.5,266.24,237.82,274.21,254.8Z"/><path class="cls-4" d="M340.41,263.05c-1.21.68-2.45,1.29-3.68,1.92l-5.15,2.39s-3.93-.68-6.73.36l-8.73.8.7-.75,7.19-5.2C337.06,259.72,340.41,263.05,340.41,263.05Z"/><path class="cls-5" d="M233,257.52a167.11,167.11,0,0,1-1.71,26l-.48,3.25-3.16-.86a143.64,143.64,0,0,0-51.69-4.39c-5.78.73-11.56,1.34-17.34,2.25l0,0a.77.77,0,0,1-.85-.63.73.73,0,0,1,.45-.81c1.24-.52,2.47-1,3.73-1.41l-8-3.76c-3.38-1.64-6.79-3.23-10.14-4.92l-.78-.4-.05-.91a138.37,138.37,0,0,1,0-15.24c.18-3.56.51-7.11,1-10.67a97.42,97.42,0,0,1,6.66-25.33,56.88,56.88,0,0,1,6.88-11.53,35,35,0,0,1,23.29-13.58,49.69,49.69,0,0,1,13.52.26,48.3,48.3,0,0,1,5.63,1.31,38.71,38.71,0,0,1,7.29,2.93,41.37,41.37,0,0,1,10.65,8.55,46.7,46.7,0,0,1,6.41,9l.05,0A60.78,60.78,0,0,1,230,231.44a106.74,106.74,0,0,1,2.52,16.75C232.81,251.32,232.93,254.42,233,257.52Z"/><path class="cls-5" d="M323.66,262.82c-2.27,1.64-4.54,3.31-6.84,4.95a33.69,33.69,0,0,1,8,0,.59.59,0,0,1,.53.68.62.62,0,0,1-.53.53l-.06,0c-3.65.43-7.36,1-11,1.77h0l0,0h-.05c-2.63.69-5.25,1.21-7.82,2.07a81.58,81.58,0,0,0-7.67,2.8,56.71,56.71,0,0,0-7.37,3.54l-7.14,4-1.84,1-1.06-1.71c-2.17-3.56-3-7-3.94-10.5a92.6,92.6,0,0,1-1.94-10.52,135.13,135.13,0,0,1-1.08-21.27,91.35,91.35,0,0,1,3-21.32,51.93,51.93,0,0,1,1.74-5.1,42,42,0,0,1,2.55-5.17,27,27,0,0,1,4.71-6,20.7,20.7,0,0,1,3.26-2.5,19,19,0,0,1,11.55-2.72,22.43,22.43,0,0,1,11.11,3.58,24,24,0,0,1,7.56,8.63,44.26,44.26,0,0,1,3.92,10.27A86.78,86.78,0,0,1,325.65,241c0,2.42,0,4.85-.17,7.27a131.19,131.19,0,0,1-1.39,13.82l-.08.51Z"/><path class="cls-6" d="M228.53,304.3c-2.8,6.57,15.39,16.35,19.43,6.13C251.91,300.46,231.34,297.73,228.53,304.3Z"/><path class="cls-6" d="M286,303.68c3.09,4.88-10.07,14.84-14.63,7.22C266.9,303.44,282.88,298.8,286,303.68Z"/><path class="cls-6" d="M218.07,314.82S200,316,203,333.22C207.31,322.81,218.07,314.82,218.07,314.82Z"/><path class="cls-6" d="M304.25,329.86c-1.89-8.07-11.43-13.49-11.43-13.49S307.15,315.25,304.25,329.86Z"/><path class="cls-6" d="M212.1,319.44c5.32,6.19,11.86,11.48,19.56,13.84,7.67,2.52,16.23,1,23.54-3l2.81-1.53c.48-.26,1-.52,1.53-.78a4.26,4.26,0,0,1,1.08-.35,2.68,2.68,0,0,1,1.31.11,18.11,18.11,0,0,1,3.14,1.49c.94.5,1.86,1,2.8,1.42a20.84,20.84,0,0,0,11.87,2A26.46,26.46,0,0,0,291,327.94a50.31,50.31,0,0,0,9.11-8.46l3.14,3.06a68.37,68.37,0,0,1-10.59,8A31.32,31.32,0,0,1,280,335.06a24.61,24.61,0,0,1-13.15-2.25c-1-.46-2-1-2.95-1.46a17.62,17.62,0,0,0-2.66-1.26c-.18,0-.27-.07-.26,0a3.78,3.78,0,0,0-.43.18c-.4.2-.85.47-1.3.75l-2.77,1.67a41.16,41.16,0,0,1-12.36,5,34.22,34.22,0,0,1-13.6,0c-9-1.94-16.89-7.06-23.76-12.79Z"/><path class="cls-7" d="M305.77,256.09q0,2.57-.15,5.07a65.67,65.67,0,0,1-1.34,10.11,85.9,85.9,0,0,0-19,10.27l-.23-.45c-.28-.56-.53-1.11-.78-1.72-2.17-5.19-3.51-12.21-3.81-19.9-.05-1.11-.08-2.25-.08-3.38,0-17.87,5.56-31.85,12.67-31.85S305.77,237.94,305.77,256.09Z"/><path class="cls-8" d="M200.54,256.09c0,1.89-.08,3.75-.23,5.6a62.49,62.49,0,0,1-2.67,14.65c-.31,1-.64,1.87-1,2.75l-.33.81-.85,0A136.5,136.5,0,0,0,174.78,281l-.94.12-.38-.88c-.27-.66-.55-1.31-.8-2a60,60,0,0,1-3.36-16.63c-.12-1.82-.2-3.68-.2-5.57,0-19.46,6.91-34.72,15.72-34.72S200.54,236.63,200.54,256.09Z"/><path class="cls-9" d="M230.79,286.79l-3.16-.86a143.64,143.64,0,0,0-51.69-4.39c-5.78.73-11.56,1.34-17.34,2.25l0,0a.77.77,0,0,1-.85-.63.73.73,0,0,1,.45-.81c1.24-.52,2.47-1,3.73-1.41C161.88,281,199.05,270.39,230.79,286.79Z"/><path class="cls-9" d="M325.38,268.4a.62.62,0,0,1-.53.53l-.06,0c-3.65.43-7.36,1-11,1.77h0l0,0h-.05c-2.63.69-5.25,1.21-7.82,2.07-.71.23-1.39.46-2.1.71-1.89.6-3.76,1.31-5.57,2.09a56.71,56.71,0,0,0-7.37,3.54l-5.27,2.92-1.87,1-1.84,1c1.16-.91,2.32-1.79,3.48-2.6a85.9,85.9,0,0,1,19-10.27,57.81,57.81,0,0,1,12.54-3.5,33.69,33.69,0,0,1,8,0A.59.59,0,0,1,325.38,268.4Z"/><path class="cls-9" d="M200.54,256.09c0,1.89-.08,3.75-.23,5.6a23.52,23.52,0,0,1-31,0c-.12-1.82-.2-3.68-.2-5.57,0-19.46,6.91-34.72,15.72-34.72S200.54,236.63,200.54,256.09Z"/><path class="cls-9" d="M305.76,256.09q0,2.57-.15,5.07A19.3,19.3,0,0,1,294.06,265a19.71,19.71,0,0,1-13.58-5.55c-.05-1.11-.07-2.25-.07-3.38,0-17.87,5.55-31.84,12.66-31.84S305.76,238,305.76,256.09Z"/><ellipse class="cls-10" cx="299.37" cy="229.67" rx="4.45" ry="11.59"/><ellipse class="cls-10" cx="191.33" cy="227.48" rx="6.52" ry="16.96"/><path class="cls-11" d="M232.53,248.19c-3.42-45.1-44.68-50-44.68-50l12-2a38.71,38.71,0,0,1,7.29,2.93,41.37,41.37,0,0,1,10.65,8.55,46.7,46.7,0,0,1,6.41,9l.05,0A60.78,60.78,0,0,1,230,231.44,109.13,109.13,0,0,1,232.53,248.19Z"/><path class="cls-9" d="M224.23,216.65c-30-34.36-75.31-20.58-81.32,39.08.18-3.56.51-7.11,1-10.67a97.42,97.42,0,0,1,6.66-25.33,56.88,56.88,0,0,1,6.88-11.53,35,35,0,0,1,23.29-13.58,49.69,49.69,0,0,1,13.52.26,42.73,42.73,0,0,1,12.92,4.24,41.37,41.37,0,0,1,10.65,8.55A46.7,46.7,0,0,1,224.23,216.65Z"/><path class="cls-11" d="M325.65,241c0,2.42,0,4.85-.17,7.27-4.75-61.08-39.67-42.9-39.67-42.9s3.79-3.07,0-2.82a20.7,20.7,0,0,1,3.26-2.5,19,19,0,0,1,11.55-2.72,22.43,22.43,0,0,1,11.11,3.58,24,24,0,0,1,7.56,8.63,44.26,44.26,0,0,1,3.92,10.27A86.78,86.78,0,0,1,325.65,241Z"/><path class="cls-9" d="M325.65,241c0,2.42,0,4.85-.17,7.27.59-53.58-35.18-56-46.91-34.52h0a42,42,0,0,1,2.55-5.17,24.28,24.28,0,0,1,8-8.53,19,19,0,0,1,11.55-2.72,22.43,22.43,0,0,1,11.11,3.58,24,24,0,0,1,7.56,8.63,44.26,44.26,0,0,1,3.92,10.27A86.78,86.78,0,0,1,325.65,241Z"/><path class="cls-4" d="M353.81,308.61a72.52,72.52,0,0,1-3,13.07,86.58,86.58,0,0,1-11.05,22.21,105,105,0,0,1-15.94,18.24,121.8,121.8,0,0,1-20.49,15,154.37,154.37,0,0,1-46.27,17.36,220,220,0,0,1-49.23,4.44c-18.21-.48-34.18-3.08-48.79-8a112.27,112.27,0,0,1-22.58-10.42A70.74,70.74,0,0,1,117.71,364a52.43,52.43,0,0,1-10.57-22.48C168.05,409.1,333.23,399,353.81,308.61Z"/><path class="cls-4" d="M252.11,195c-94.42-74.46-143.74,32.52-143.74,32.52a73.63,73.63,0,0,1,1.54-8.35A80.58,80.58,0,0,1,122.85,191,91.87,91.87,0,0,1,145,169.27a74.47,74.47,0,0,1,28.74-12.21,63.55,63.55,0,0,1,31.06,2.14,83.39,83.39,0,0,1,26.87,14.86A136.34,136.34,0,0,1,252.11,195Z"/><path class="cls-4" d="M333.75,194.27c-31-35.36-61.29-18.05-75.11-7.37a72.36,72.36,0,0,1,6.84-9.61c5.68-6.58,11.43-10.92,17.58-13.22a29.35,29.35,0,0,1,11.13-1.84,33.15,33.15,0,0,1,11.13,2.4,43.89,43.89,0,0,1,9.86,5.55,45.72,45.72,0,0,1,8.43,7.62A63.3,63.3,0,0,1,333.75,194.27Z"/><path class="cls-12" d="M137.49,132.16a2.26,2.26,0,0,1,0-.66A5.69,5.69,0,0,0,137.49,132.16Z"/><path class="cls-13" d="M281.78,477.28c-.18.17-.38.38-.56.53"/><path class="cls-12" d="M287.73,145.12c-1.34,1.14-2.27,1.87-2.82,2.27C285.87,146.66,286.82,145.88,287.73,145.12Z"/><path class="cls-3" d="M194.53,602.34c-.2.89-.4,1.79-.63,2.68s-.45,1.74-.73,2.62c-.18.61-.38,1.19-.58,1.79s-.4,1.16-.63,1.74a67.54,67.54,0,0,1-5.4,11.36h0a66.26,66.26,0,0,1-14.12,16.62c-.94.81-1.92,1.59-2.91,2.3-.32.28-.65.5-1,.76a64.2,64.2,0,0,1-35.85,12.46c-3.58,0-7.29.05-10.9-1a28.38,28.38,0,0,1-8.5-3.84c-.48-.3-.94-.6-1.37-.93a27.82,27.82,0,0,1-2.59-2.17,37.56,37.56,0,0,1-10-15.24,44.11,44.11,0,0,1-2.09-21.32c.12-1.06.3-2.12.52-3.15.26-1.27.56-2.53.94-3.76a51.4,51.4,0,0,1,2.8-7.42,1.24,1.24,0,0,1,.1-.2c.35-.71.71-1.39,1.08-2.07s.81-1.49,1.27-2.2a.19.19,0,0,1,.05-.1h.2l4,.25,2.42.16h.2c.43-.08.84-.18,1.24-.26,1.24-.27,2.45-.55,3.63-.85l.26-.08c.47-.13,1-.25,1.46-.4,1-.28,2-.56,2.93-.86s1.81-.58,2.7-.91A65.29,65.29,0,0,0,147.15,574l.13-.13a48.08,48.08,0,0,0,8.85-11.73c5.05-9.49,6.44-20.26,3.91-29.64-.15-.53-.3-1.09-.48-1.62,0,0,0-.07,0-.1s-.83-4.29-6.59-11.23c2.9,2.15,6,4.06,8.73,6.41,1.57,1.24,3.06,2.52,4.54,3.86h0l3.73,3.58c2.53,2.48,4.92,5.08,7.22,7.75A90.76,90.76,0,0,1,189,559.53a69.7,69.7,0,0,1,6.41,20.94A63.76,63.76,0,0,1,194.53,602.34Z"/><path class="cls-14" d="M335.19,107c.13,1-4.57-3.53-5-2.32-10.55,28.64-43.88,42.31-45.74,43.14,0,0,.17-.12.48-.38,1-.73,1.91-1.51,2.82-2.27,0,0,0,0,0,0,6.49-5.4,21.75-19.1,40.14-42.74A44.4,44.4,0,0,1,335.19,107Z"/><path class="cls-15" d="M44.36,205.2a120.35,120.35,0,0,0-18.47,21.69c0,.05-.07.1-.1.16-.35-1.22-.65-2.48-.93-3.71C31.52,213.62,43,206.08,44.36,205.2Z"/><path class="cls-16" d="M122.5,168.34a89.92,89.92,0,0,0-16.32-10.17,68.64,68.64,0,0,0-18.65-5.73,57.89,57.89,0,0,0-19.73.35A51.32,51.32,0,0,0,59,155.37s0,0,0-.05a64,64,0,0,1-1.77-6.84S89.18,138.88,122.5,168.34Z"/><path class="cls-17" d="M138.14,775l-.48.58-.25,0c-1.71.1-3.41.28-5.1.53-2.59.36-5.19.84-7.74,1.42-1,.25-2,.5-3,.8-1.21-2.9-3.89-5-8.91-5.42C27.89,765.61,40,671.57,88,652.47c6.74-2.67,26.72-11.37,26.72-11.37s7.47,12.69,7.09,12.59a25.52,25.52,0,0,1-7-2.91l-.85-.53-.38.21c-1.47.6-3,1.28-4.69,2-4.07,1.77-8.56,3.86-12.75,6.14a89.16,89.16,0,0,0-16.19,11.07,48.86,48.86,0,0,0-10.6,13.07,28.62,28.62,0,0,0-2.45,4.85c-.4.9-.8,1.81-1.23,2.69l-1.34,4.22c-.08.3-.2.6-.3.91a5.43,5.43,0,0,0-.33,1l-.51,2.39c-.15.63-.27,1.21-.42,1.79-.23.94-.46,1.9-.64,2.85l-1,7.37c-.05.43-.07.83-.1,1.24l0,.73a22.18,22.18,0,0,0-.1,2.52c0,.53,0,1,0,1.57a43.36,43.36,0,0,0,2.9,14.43A37.37,37.37,0,0,0,66.94,738a42,42,0,0,0,4.42,6.23,48.61,48.61,0,0,0,5.45,5.68,50.16,50.16,0,0,0,6.36,4.87,48.1,48.1,0,0,0,7,3.86,53.94,53.94,0,0,0,7.39,2.85,48.25,48.25,0,0,0,14.53,2l1,0h.38A32.09,32.09,0,0,1,138.14,775Z"/><path class="cls-18" d="M217.29,44.08l-.71,3.07C143,78.64,137.69,125.39,137.46,131.5,137.36,124.84,138.75,68.52,217.29,44.08Z"/><path class="cls-19" d="M351.36,170.4c-2.65,6.59-11.7,11-12.29,11.31a69.19,69.19,0,0,0,7.7-15,5.2,5.2,0,0,0,.18-.5c.48-1.32.91-2.63,1.31-4l.1,0c-.43,1.44-.91,2.85-1.41,4.26A35.86,35.86,0,0,1,351.36,170.4Z"/><path class="cls-20" d="M230.79,406.51c-120.4,8.12-123.65-65-123.65-65A52.43,52.43,0,0,0,117.71,364a70.74,70.74,0,0,0,18.77,16.47,112.27,112.27,0,0,0,22.58,10.42c14.61,4.92,30.58,7.52,48.79,8a220,220,0,0,0,49.23-4.44,154.37,154.37,0,0,0,46.27-17.36,121.8,121.8,0,0,0,20.49-15,105,105,0,0,0,15.94-18.24,86.58,86.58,0,0,0,11.05-22.21,72.52,72.52,0,0,0,3-13.07S349.52,398.51,230.79,406.51Z"/><path class="cls-21" d="M135,645l-20.24,5.8-5.92,1.69C81.28,635.89,92.7,603.41,92.7,603.41c2.7-.95,2.37-.84,5.45-1.82l1.21-.43c.41-1.14.79-2.22,1.44-3.71l5,1Z"/><path class="cls-22" d="M132.16,419.88l-.38.15,0,0-.13.05-6,2.64-13,7.9c6.74-21.09-6.15-52-6.15-52a92.92,92.92,0,0,1,7.72,9.49c2.4,3.3,4.57,6.76,6.76,10.19s4.11,7,6,10.65c1.56,3,3.1,6.08,4.51,9.18.25.56.48,1.09.73,1.64A.69.69,0,0,1,132.16,419.88Z"/><path class="cls-23" d="M168.32,442.08c-.25-.3-.51-.58-.76-.86-2.32-2.65-4.54-5.12-6.86-7.46a73.34,73.34,0,0,0-8.1-7.07,50.29,50.29,0,0,0-9.13-5.4c-1-.43-1.92-.83-2.93-1.18a51,51,0,0,0-6.71-1.95c-.3-.1-.63-.15-.94-.22a16.84,16.84,0,0,1,1.72-.48,0,0,0,0,0,0,0,22.85,22.85,0,0,1,10,.13,27.87,27.87,0,0,1,6.89,2.55,30.06,30.06,0,0,1,4,2.52,34.37,34.37,0,0,1,8.2,8.65,31,31,0,0,1,3.76,7.72A27.78,27.78,0,0,1,168.32,442.08Z"/><path class="cls-24" d="M42.72,327.31a118.83,118.83,0,0,0-.17,16.45,7.26,7.26,0,0,0,.05.83A88.94,88.94,0,0,1,36.06,338c4.47-34.42,17.26-51.8,18.19-53A114.3,114.3,0,0,0,42.72,327.31Z"/><path class="cls-25" d="M256.55,445.69c-.56,2.35-1.21,4.72-2,7-.23-1.26-.48-2.5-.81-3.71C250.52,435.8,243,424.57,242,423.11a86.88,86.88,0,0,1,10.75,15.11c1.26,2.25,2.45,4.49,3.53,6.81.06.1.11.23.16.33S256.5,445.59,256.55,445.69Z"/><path class="cls-26" d="M256.55,445.69s7.42,25,1.33,55.51a62.93,62.93,0,0,0,6.79-4.29L276,482.71l-2-3.58-8.6-23.62-6.62-11.94L255.61,440l-.92,1.95Z"/><path class="cls-27" d="M159.74,491.31a1.3,1.3,0,0,0-.15.1c-.73.53-1.49,1.06-2.22,1.56a204.54,204.54,0,0,1-2.47-20.41c-3.69,3.86-8.91,9.31-10.9,11.2-.08-.65-.16-1.29-.23-1.94,2.65-3.36,5.35-6.69,8.2-9.89.88-1,1.76-2,2.67-3v0c1.39-1.49,2.75-2.93,4.19-4.32l.1-.1a.62.62,0,0,1,.18-.18c0,.05,0,.13,0,.18a129.9,129.9,0,0,0-.12,17.54C159.16,485.15,159.44,488.2,159.74,491.31Z"/><path class="cls-28" d="M221.5,494.79c-27.44,17.7-51.22,17.58-51.22,17.58s4.88-19.59.94-32.8c-7.41-24.84-3.66-38.35-3.66-38.35.05,2.3.18,4.57.35,6.84.51,6.76,14.36,35.55,8.91,61l.66-.07c.3,0,.73-.08,1.23-.16s1.09-.12,1.74-.22c.26,0,.53,0,.84-.08a105.42,105.42,0,0,0,15.92-3c1.18-.32,2.37-.65,3.6-1A95,95,0,0,0,221.5,494.79Z"/><path class="cls-29" d="M309,456.06C302.84,466.55,287.45,481,287.45,481l-1.51,30.6c-.07.08-.18.13-.25.2-.86-.68-1.69-1.31-2.55-1.94l-.25-.15-.13-.08c0-.22-.07-2-.05-2.19-.35-8.81-.63-17.64-.86-26.44a2.17,2.17,0,0,0,.38-.43c1.31-1.34,2.57-2.7,3.86-4.07,1.79-2,3.51-4,5.28-6.05q7.06-8.44,13.29-17.59c1.62-2.34,3.16-4.74,4.67-7.16a3.28,3.28,0,0,0,.33.3c.2.18.4.38.58.53a9.07,9.07,0,0,0,.73.68C312.21,449.12,311.17,452.32,309,456.06Z"/><path class="cls-30" d="M475.82,509.32c-1.41.93-2.82,1.87-4.26,2.77-3.94,2.58-7.9,5-11.94,7.47h-.05c-61.65,19.68-70.64-51.39-70.64-51.39,1.39-1.72,2.5-3.63,3.76-5.45l3.46-5.65.2.12c.17,1.64.7,6.39.93,8.05a123.07,123.07,0,0,0,2.12,12.57,64.41,64.41,0,0,0,2.22,7.39c.5,1.21,1.09,2.37,1.64,3.56l.83,1.76c.31.58.71,1.11,1,1.67l2.14,3.28c.76,1.06,1.67,2,2.5,3a42.83,42.83,0,0,0,5.47,5.47,50.14,50.14,0,0,0,6.19,4.74c1.11.68,2.29,1.24,3.45,1.85l1.74.9c.61.26,1.24.46,1.85.68l3.68,1.32,3.78.88a25,25,0,0,0,3.84.63c1.29.13,2.57.3,3.86.4a69.78,69.78,0,0,0,17.79-1.51,78.28,78.28,0,0,0,12.36-3.66Z"/><path class="cls-31" d="M224.34,600.5A48.31,48.31,0,0,0,236,593.73c1.81-1.32,3.55-2.76,5.26-4.21s3.41-2.91,5.05-4.44c3.29-3,6.28-6.34,9.41-9.44s6.1-6.31,8.16-10.36l.49.08a15.72,15.72,0,0,1-1.71,7,33.16,33.16,0,0,1-3.71,6.08,54.39,54.39,0,0,1-10,9.75,82.76,82.76,0,0,1-11.57,7.7c-4.06,2.18-8.28,4.29-12.87,5.14Z"/><path class="cls-32" d="M233.56,810.84a68,68,0,0,0-8.78,23.92c.23-16.15,0-36.43.48-52,.3-10.47.78-20.91,1.52-31.36.17-2.62.43-5.22.55-7.82s.08-5.25.15-7.87c.18-5.25.58-10.47,1-15.72,1.67-20.91,4-41.83,5.91-62.8,1.43-16.35,2.59-32.75,3.12-49.17.18,19.91-.17,63-4.56,120.8A523.21,523.21,0,0,0,233.56,810.84Z"/><path class="cls-33" d="M161.76,777.31a81.25,81.25,0,0,0-18.34-2h-.23a175.84,175.84,0,0,0,10.62-31.29,334,334,0,0,0,6.66-34.14c1.69-11.5,2.52-23.11,4-34.61,1.31-10.7,2.52-21.42,4.06-32.17,0-.33.08-.66.13-1,.27-.21.55-.41.83-.64,1-.7,2-1.48,2.9-2.29,1.61-1.36,3.18-2.83,4.67-4.34C172.78,708.91,160.12,740.6,161.76,777.31Z"/><path class="cls-4" d="M186.51,622.6a67,67,0,0,1-9.46,12.29c-1.49,1.51-3.06,3-4.67,4.34-.93.81-1.92,1.59-2.9,2.29-.28.23-.56.43-.83.64a.45.45,0,0,1-.16.12,64.19,64.19,0,0,1-35.85,12.47c-3.58,0-7.29,0-10.9-1a28.58,28.58,0,0,1-8.5-3.83c-.48-.31-.93-.61-1.36-.94a24.11,24.11,0,0,1-2.6-2.17,37.6,37.6,0,0,1-10-15.24,44.23,44.23,0,0,1-2.09-21.32c0-.32.08-.63.13-1,.12-.74.25-1.47.4-2.2a38.2,38.2,0,0,1,.93-3.76,51.4,51.4,0,0,1,2.8-7.42,1.24,1.24,0,0,0,.1-.2c.36-.7.71-1.39,1.09-2.07s.81-1.49,1.26-2.19a.19.19,0,0,1,0-.1h.2l4,.25,2.43.15h.2c.43-.07.83-.18,1.23-.25,1.24-.28,2.45-.56,3.64-.86l.25-.07c.48-.13,1-.26,1.46-.41.91-.25,1.82-.53,2.73-.81l0-.12c.91-.28,1.82-.58,2.7-.91A65.26,65.26,0,0,0,146.9,574a144.44,144.44,0,0,1-21.7,18.87c2.35,5.6,2.22,9,2.22,9l-.73,3.91.63.58.1,14.78,5.88,12.19S156,649.93,186.51,622.6Z"/><path class="cls-6" d="M133.53,633.07l-.21.15a20.29,20.29,0,0,1-4.94-6.81,31.35,31.35,0,0,1-2.5-8.07c-.23-1.39-.4-2.8-.53-4.19s0-2.83,0-4.24c.05-.6.12-1.23.22-1.84a25.33,25.33,0,0,1,.58-3,18.87,18.87,0,0,1,1.27-3.28l.22.08a30.37,30.37,0,0,0-.33,4.41c0,.86,0,1.69.11,2.55,0,.35,0,.73.07,1.11.13,1.31.28,2.65.51,4s.4,2.63.68,3.91c.53,2.63,1.31,5.15,2,7.72A50.17,50.17,0,0,0,133.53,633.07Z"/><path class="cls-6" d="M104.53,642.2c.13-6.07,3-11.86,7-16.48a34.28,34.28,0,0,1,6.94-6c1.28-.84,2.65-1.52,4-2.26s2.8-1.18,4.22-1.74l.77,1.88c-1.29.7-2.59,1.35-3.89,2s-2.54,1.4-3.72,2.23a44.8,44.8,0,0,0-6.84,5.27,30.5,30.5,0,0,0-5.29,6.86,22.62,22.62,0,0,0-2.91,8.24Z"/><path class="cls-6" d="M96.77,622.54v0h0v0a26.78,26.78,0,0,1,6.28-14.38,35.32,35.32,0,0,1,5.84-5.49,48.2,48.2,0,0,1,6.83-4.18l1.72,2.24a53.57,53.57,0,0,0-7.09,4,33.28,33.28,0,0,0-5.8,4.79,29,29,0,0,0-4.62,6A24,24,0,0,0,97,622.53v0Z"/><path class="cls-6" d="M127.45,608.8a1.18,1.18,0,0,1-1.32-.25l0,0c-.15-.15-.3-.3-.48-.45a111.82,111.82,0,0,0-8.95-7.57c-.79-.63-1.59-1.24-2.4-1.84-3.2-2.4-6.51-4.69-9.84-7a2.42,2.42,0,0,0-.45-.31.19.19,0,0,1,.05-.1,32.39,32.39,0,0,0,11.7-.7L126.18,605a5.28,5.28,0,0,1,.41.41c.25.25.53.53.75.8C127.34,607.11,127.37,607.94,127.45,608.8Z"/><path class="cls-4" d="M398.24,472c-.38-2.25-.68-4.52-1-6.74-.23-1.66-.76-6.41-.93-8.05-.33-3.1-.68-6.18-1.11-9.26a219.78,219.78,0,0,0-15.9-57.09l-.2-.51.2-.4A39.82,39.82,0,0,1,386.1,380l5.4,2.16S406.18,437.12,398.24,472Z"/><path class="cls-12" d="M250.34,430.6l-8-7.19C243.91,424.72,246.81,427.22,250.34,430.6Z"/><path class="cls-12" d="M161.1,490.35c-.43.48-.88,1-1.31,1.43l-.13.13c-.58.63-1.16,1.24-1.79,1.84-1.76,1.87-3.63,3.69-5.55,5.43-1.54,1.41-3.13,2.77-4.74,4.08s-3.28,2.63-5.12,3.89l-5.1,3.46-1,.68.35-1,2.09-6a85.21,85.21,0,0,0,4.57-22c.08-.68.13-1.38.18-2.07.07.53.15,1.09.2,1.62s.15,1.29.23,1.94a89,89,0,0,1,.25,17c.43-.2.83-.43,1.23-.63,1.8-.93,3.59-1.92,5.35-2.95,2.2-1.34,4.39-2.7,6.54-4.19.73-.5,1.49-1,2.22-1.56a1.3,1.3,0,0,1,.15-.1Z"/><path class="cls-34" d="M197.21,505.53a105.42,105.42,0,0,1-15.92,3A139,139,0,0,0,197.21,505.53Z"/><path class="cls-4" d="M479.35,486.56c.1.16-.1.33-.15.51l-.22-.79a26.38,26.38,0,0,0-13.75-5.12c-.56-.05-1.11-.1-1.67-.1-4.62-.17-9.18.66-13.4.86a17.81,17.81,0,0,1-6.63-.73,12.05,12.05,0,0,1-5.07-3.64,30.66,30.66,0,0,1-1.85-2.75c-.42-1.08-.93-2.11-1.36-3.17l-1.06-3.41-.7-3.28-.05-.23-.08-.53a82.19,82.19,0,0,1,.43-27.45c0-.3.1-.63.15-.93,0,0,0-.08,0-.1a53.84,53.84,0,0,1,4.36-13.83,33.12,33.12,0,0,1,2.93-4.94.08.08,0,0,1,0-.05,19.38,19.38,0,0,1,3-4.62,67.1,67.1,0,0,1,9.44-9.41s-7.85,51.56,4.79,66.27C466,477.88,471.5,474.3,479.35,486.56Z"/><path class="cls-4" d="M458.92,487.55a18.26,18.26,0,0,0-.43,5.52c-49.32,3.84-32.32-69.79-32.32-69.79a21.73,21.73,0,0,0,6.91-1.38c.68-.28,1.36-.56,2.05-.86a57.32,57.32,0,0,0-4.77,13.9,80,80,0,0,0-1.06,30.53l.83,3.81c.35,1.26.78,2.52,1.16,3.78s1.06,2.45,1.59,3.69a35.66,35.66,0,0,0,2.32,3.48,15.49,15.49,0,0,0,7,4.84,19.75,19.75,0,0,0,8.2.63c3.3-.32,6.38-1,9.43-1.43A29.1,29.1,0,0,0,458.92,487.55Z"/><path class="cls-6" d="M439.41,418.57a23.6,23.6,0,0,1-4.28,2.47c-.69.3-1.37.58-2.05.86a21.73,21.73,0,0,1-6.91,1.38,26.88,26.88,0,0,0,4-1.46,13.41,13.41,0,0,0,1.87-.91,3,3,0,0,0,.5-.27,35.82,35.82,0,0,0,4.44-2.8l1.16-.91Z"/><path class="cls-6" d="M462,482.83c-.15.4-.3.83-.45,1.23-1.09,3-2.2,5.88-3,9a18.26,18.26,0,0,1,.43-5.52,29.1,29.1,0,0,1,.93-3.28,19.87,19.87,0,0,1,.81-2Z"/><path class="cls-6" d="M479.46,486.64l-.26.43-3.4-1.49a35.67,35.67,0,0,0-3.49-1.06,24.64,24.64,0,0,0-3.58-.56,28.5,28.5,0,0,0-3.58-.15c-.93,0-1.89.08-2.83.18-.27,0-.53.05-.8.07-.56.05-1.11.13-1.67.21-3.05.45-6.13,1.11-9.43,1.43a19.75,19.75,0,0,1-8.2-.63,15.49,15.49,0,0,1-7-4.84,35.66,35.66,0,0,1-2.32-3.48c-.53-1.24-1.11-2.45-1.59-3.69s-.81-2.52-1.16-3.78l-.83-3.81a80,80,0,0,1,1.06-30.53,57.32,57.32,0,0,1,4.77-13.9,6,6,0,0,1,.3-.63,26.57,26.57,0,0,1,1.51-2.57,38.28,38.28,0,0,1,6.21-7.62c.63-.66,1.31-1.27,2-1.87a38.3,38.3,0,0,1,8.56-5.5,67.1,67.1,0,0,0-9.44,9.41,19.38,19.38,0,0,0-3,4.62.08.08,0,0,0,0,.05,33.12,33.12,0,0,0-2.93,4.94A53.84,53.84,0,0,0,434,435.7s0,.07,0,.1c-.05.3-.13.63-.15.93a82.19,82.19,0,0,0-.43,27.45l.08.53.05.23.7,3.28,1.06,3.41c.43,1.06.94,2.09,1.36,3.17a30.66,30.66,0,0,0,1.85,2.75,12.05,12.05,0,0,0,5.07,3.64,17.81,17.81,0,0,0,6.63.73c4.22-.2,8.78-1,13.4-.86.56,0,1.11.05,1.67.1A26.38,26.38,0,0,1,479,486.28a4.5,4.5,0,0,1,.37.28Z"/><path class="cls-6" d="M431.34,465.44c6.36-4,12.88-7.9,20.13-10.33s14.93-4.06,22.78-3.3c1.95.23,3.89.58,5.84.87,1.91.51,3.83,1,5.72,1.64a58.94,58.94,0,0,1,5.39,2.55,34.62,34.62,0,0,1,4.87,3.42,39,39,0,0,1,12.69,19.22l-.46.21a91.58,91.58,0,0,0-7.14-8.48c-1.36-1.21-2.52-2.59-4-3.67l-2-1.74L493,464.29c-5.74-4-12.08-7.43-19.22-8.47s-14.48-.23-21.55,1.7c-7.2,1.7-14,5-20.62,8.36Z"/><path class="cls-6" d="M431.11,437.51c3.5-2.06,6.9-4.36,10.53-6.25a92,92,0,0,1,11.21-5.09,77.14,77.14,0,0,1,11.95-3.43l6.23-.8c2.09-.17,4.21-.06,6.32-.1s4.22.45,6.34.66,4.16,1,6.26,1.48c2,.77,4,1.56,5.95,2.51a40.82,40.82,0,0,1,19.47,24.1l-.45.22a87.51,87.51,0,0,0-7.67-9.26c-1.47-1.32-2.74-2.8-4.32-4-.76-.6-1.46-1.28-2.23-1.85l-2.39-1.63c-6.3-4.28-13.45-7.47-21.26-8.24-1.94-.08-3.89-.31-5.85-.28l-5.91.39a74.54,74.54,0,0,0-11.64,2.58,90.53,90.53,0,0,0-11.36,4.07c-3.72,1.55-7.26,3.55-10.92,5.31Z"/><path class="cls-35" d="M453.85,402.77a.22.22,0,0,0-.15.08l.05-.05Z"/><path class="cls-4" d="M479.2,487.07c-14.1-4.54-20.71,6-20.71,6,.83-3.13,1.94-6.05,3-9,.27,0,.53-.07.8-.07.94-.1,1.9-.15,2.83-.18a28.5,28.5,0,0,1,3.58.15,24.64,24.64,0,0,1,3.58.56,35.67,35.67,0,0,1,3.49,1.06Z"/><path class="cls-36" d="M432,420.92s4.34-20.31-13.9-37.26c-18.83-17.51-36,8.07-36,8.07s10.9,16.45,14.56,68.55c-.13-1-.23-2-.33-2.95a.59.59,0,0,1,0-.13c-.33-3.1-.68-6.18-1.11-9.26a195.15,195.15,0,0,0-5.68-27.82,238.21,238.21,0,0,0-10.22-29.27l-.2-.51.2-.4a39.41,39.41,0,0,1,7-10.19,27.84,27.84,0,0,1,10.32-6.92,25.92,25.92,0,0,1,8.25-1.59,21.23,21.23,0,0,1,4.14.33,25.09,25.09,0,0,1,11.38,5.07c6.58,5.25,10.34,13.2,11.86,21.2A64.84,64.84,0,0,1,432,420.92Z"/><path class="cls-36" d="M516.72,452.32c-8-64.25-60.91-50-63-49.5a45.26,45.26,0,0,1,20.05-4.24,42,42,0,0,1,28,11.38,50.07,50.07,0,0,1,13.73,27.1A71.84,71.84,0,0,1,516.72,452.32Z"/><path class="cls-12" d="M88.06,868.09c.18,0,.46.15.81.28C88.59,868.29,88.34,868.19,88.06,868.09Z"/><path class="cls-12" d="M162.34,778l-1-.15.43-.51.68.15-.08.36Z"/><path class="cls-37" d="M168.8,532.2c-.05,1-.13,2-.23,3l-.48.08c-.68-1.82-1.29-3.66-1.82-5.48h0c-1.19-4-2.15-8-3-12-1.34-5.83-1.74-11.86-2.5-17.81-.1-.78-.17-1.56-.27-2.35-.23-1.94-.46-3.86-.63-5.8,0-.18,0-.35-.08-.5-.3-3.13-.58-6.24-.78-9.36a129.9,129.9,0,0,1,.12-17.54c0-.05,0-.13,0-.18a2.3,2.3,0,0,1,0-.37v0h0l.33,0h.15a155.72,155.72,0,0,0,1.82,17.81c.88,5.9,2,11.76,3.25,17.61.5,2.5,1.11,5,1.67,7.47a88.34,88.34,0,0,1,1.81,10.21A95.46,95.46,0,0,1,168.8,532.2Z"/><path class="cls-38" d="M348.61,161.14c-.1.38-.22.76-.35,1.11-.4,1.34-.83,2.65-1.31,4a5.2,5.2,0,0,1-.18.5,69.19,69.19,0,0,1-7.7,15l0,0a163.84,163.84,0,0,0,5.75-21.49,86.9,86.9,0,0,0,1.49-21.63,50.6,50.6,0,0,0-5.6-20.43c-3.08-6-7.72-11.15-13-15.85l-1-.91c.4.21.8.38,1.21.61a41.09,41.09,0,0,1,16.15,14.13c4.46,6.48,6.63,14.36,7.29,22.1A67.13,67.13,0,0,1,348.61,161.14Z"/><path class="cls-39" d="M367.57,231.35a61.82,61.82,0,0,1-7.14,21.25c-.25.48-.53.93-.8,1.39.17-.63.38-1.27.53-1.9a103.61,103.61,0,0,0,3.5-21.19,115.65,115.65,0,0,0-.85-23.09,101.83,101.83,0,0,0-5.53-22.37,66,66,0,0,0-10.42-18.55c-.4-.53-.83-1-1.26-1.51.48.33,1,.65,1.44,1,6,4.41,10.54,10.75,13.85,17.48a76.4,76.4,0,0,1,6.91,23.26A84.35,84.35,0,0,1,367.57,231.35Z"/><path class="cls-40" d="M122.5,168.34c-1-.36-2-.69-3-1l-.13,0c-31.38-9.46-88-5.15-93.32,59.82a10,10,0,0,0,.35,2.47c-.23-.65-.46-1.33-.63-2a61.44,61.44,0,0,1,.2-36.29,57.86,57.86,0,0,1,23.44-31.13,54.47,54.47,0,0,1,9.41-4.72.14.14,0,0,1,.1-.05s.08,0,.1,0a51.32,51.32,0,0,1,8.83-2.58,57.89,57.89,0,0,1,19.73-.35,68.64,68.64,0,0,1,18.65,5.73A89.92,89.92,0,0,1,122.5,168.34Z"/><path class="cls-41" d="M45.17,346.54c-1-.81-1.89-1.62-2.8-2.45a102,102,0,0,1-21.77-29,86.19,86.19,0,0,1-4.29-9.81c-1.11-3-2-6.06-2.88-9.13A88.06,88.06,0,0,1,10.76,276a83.35,83.35,0,0,1,5.55-30.45,89.82,89.82,0,0,1,3.88-8.81c.58-1.13,1.16-2.24,1.79-3.33,1.14-2.07,2.35-4.08,3.64-6.05a4.56,4.56,0,0,1,.27-.46,118.91,118.91,0,0,1,18.57-21.77C24.08,230.91,7.68,290.5,45.17,346.54Z"/><path class="cls-42" d="M98.66,441.17l-1.82-1.06A100.22,100.22,0,0,1,72.92,420q-3.56-4.1-6.71-8.48a127.26,127.26,0,0,1-19.12-40,132.79,132.79,0,0,1-3-13.92,120,120,0,0,1-1.46-12.82c0-.3-.05-.63-.05-1a118.83,118.83,0,0,1,.17-16.45A114.3,114.3,0,0,1,54.25,285l0-.08C45.88,342.7,50,384.43,98.66,441.17Z"/><path class="cls-43" d="M340.34,34.57c-49,41.55-137.38-4.5-202.85,97.59a5.69,5.69,0,0,1,0-.66c.23-6.11,5.5-52.86,79.12-84.35a78.54,78.54,0,0,1,8.91-4.28C260.56,28.28,307.84,33,331.86,0A133,133,0,0,1,340.34,34.57Z"/><path class="cls-44" d="M299.56,772.87l-.5.08c-.1-.56-.23-1.11-.3-1.67-4.62-23.89-7.19-48.09-9.59-72.28-2.32-24.75-3.38-49.6-4.49-74.4s-2-49.66-2.68-74.51q-.37-16.15-.58-32.27-.23-18.09-.2-36.18l.43-.45a1.26,1.26,0,0,0,.2-.2c.23,8.8.51,17.63.86,26.44a3.53,3.53,0,0,0,0,.65c.13,3.48.25,7,.4,10.47.41,10.5.89,21,1.42,31.47q1.74,37.15,4.19,74.35l5.47,74.23c1.51,24.24,3.36,48.41,5.25,72.66C299.49,771.79,299.51,772.34,299.56,772.87Z"/><path class="cls-45" d="M215.55,4.77c-7.19,78.07-148,6.69-156.6,150.55-3.51-11-4.14-24.45-2.93-35.75a87.2,87.2,0,0,1,11.2-34.8A91.67,91.67,0,0,1,93,58.51C103.27,51.6,115,47.13,126.76,44,150.4,37.57,200.54,32.93,215.55,4.77Z"/><path class="cls-46" d="M9.9,700.4C-1.91,762.39,52,804.88,80.75,816c-3.38,5,.93-3.48-.71,2.35-.46,1.64-.83,3.28-1.16,4.94a115.17,115.17,0,0,1-45.52-26.67,105.35,105.35,0,0,1-12-13.27A105.6,105.6,0,0,1,4.68,751.2,104,104,0,0,1,.11,715.15l.12-1.77c.18-2.37.36-4.82.74-7.22l.15-1.11c.15-1.08.3-2.19.5-3.2l2.55-11.58c.58-2.07,1.21-4,1.82-6l.6-1.91c6.49-21.68,21-42.41,38.91-55.46a141.06,141.06,0,0,1,26-15.26c.47-.23.93-.46,1.41-.66a259.64,259.64,0,0,1,25.2-9.38l1.21-.43a54.77,54.77,0,0,1,2.15-5.3,1.24,1.24,0,0,1,.1-.2,2,2,0,0,0,.1-.21l2.25.86,2.42,8.4S25.9,616.23,9.9,700.4Z"/><path class="cls-47" d="M257,443.72l-.45,2c-.56,2.35-1.21,4.72-2,7-.51,1.56-1.09,3.13-1.72,4.67a75.3,75.3,0,0,1-6.46,12.84,80.11,80.11,0,0,1-8.88,11.45,81.82,81.82,0,0,1-10.9,9.62c-1.66,1.23-3.38,2.39-5.12,3.48a95,95,0,0,1-20.69,9.69c-1.23.4-2.42.73-3.6,1a105.42,105.42,0,0,1-15.92,3c-.31,0-.58.08-.84.08-.65.1-1.23.17-1.74.22l-1.23.16-.66.07c5.45-25.43-8.4-54.22-8.91-61-.17-2.27-.3-4.54-.35-6.84a84.94,84.94,0,0,1,.76-13.34c.5,5,2.09,9.25,3.29,13.34,6.69,22.71,22.94,41.69,20.84,61.74,16.42-2.78,22.52-6.38,34.43-14.66,15.69-10.9,23.46-29.14,26.89-39.28.52-1.52,1.69-2.67,2.47-4Z"/><path class="cls-48" d="M137.89,414.13c-25.7,31.09-77,49-92.23,72-10.58,16-17.09,36.87,22.19,79.54C58.21,558.19,49,550,41.23,540.28a66.56,66.56,0,0,1-9.56-16.2,41.92,41.92,0,0,1-3-19A50.28,50.28,0,0,1,34,486.86a57.57,57.57,0,0,1,11.43-15,99.63,99.63,0,0,1,14.69-11.33c5.14-3.35,10.47-6.33,15.82-9.18,7.06-3.73,14.12-7.42,21.11-11.23a2.09,2.09,0,0,1,.28-.17,255.83,255.83,0,0,0,28.13-17.46c1.11-.81,2.22-1.64,3.33-2.5.86-.66,1.72-1.31,2.55-2,1.92-1.54,3.79-3.13,5.63-4.77a.63.63,0,0,1,.88.91Z"/><path class="cls-49" d="M194.53,602.34A59.94,59.94,0,0,1,192,611.2a101.59,101.59,0,0,0-.35-19.45c-7.27-64.21-75.9-88-100.34-94.44a.28.28,0,0,0-.13,0c-3.81-1-6.54-1.58-7.77-1.84l-.58-.12a.41.41,0,0,0-.13,0l.08-.5c3.53.48,7.06.93,10.57,1.51s7,1.31,10.47,2.15a185.87,185.87,0,0,1,17.91,5.37h0c.86.33,1.66.66,2.52,1l2.22.86,2.8,1.11c1.64.71,3.26,1.49,4.9,2.25.9.4,1.79.83,2.7,1.26l.63.33c2.09,1.06,4.16,2.22,6.25,3.33,3.16,1.71,6.16,3.73,9.21,5.62,2.9,2.15,6,4.06,8.73,6.41,1.57,1.24,3.06,2.52,4.54,3.86h0c.86.78,1.69,1.57,2.52,2.37.41.41.81.79,1.21,1.21,2.53,2.48,4.92,5.08,7.22,7.75A90.76,90.76,0,0,1,189,559.53a69.7,69.7,0,0,1,6.41,20.94A63.76,63.76,0,0,1,194.53,602.34Z"/><path class="cls-50" d="M333.05,385.14l-1.57,7.79-.83,3.89-1.11,3.83-2.25,7.7-2.8,7.47c-.58,1.43-1.16,2.87-1.76,4.29-2.05,4.84-4.29,9.58-6.79,14.2-1.82,3.46-3.76,6.81-5.83,10.12-.25.43-.53.83-.78,1.26-1.51,2.42-3.05,4.82-4.67,7.16q-6.21,9.12-13.29,17.59c-1.77,2-3.49,4.06-5.28,6.05-1.29,1.37-2.55,2.73-3.86,4.07a2.17,2.17,0,0,1-.38.43,1.26,1.26,0,0,1-.2.2l-.43.45c-.2.23-.43.46-.65.68-3.74,3.84-7.55,7.55-11.74,11.08l-1.59,1.34-2.57,2.17.28-5.5a92.66,92.66,0,0,0-.51-18.32,83.38,83.38,0,0,0-4.13-17.94q-.65-2-1.44-4c-.71-1.84-1.49-3.68-2.32-5.47-.05-.1-.1-.23-.15-.33-1.14-2.42-2.38-4.79-3.69-7.14A86.89,86.89,0,0,0,241.89,423s0-.05,0-.05l.51.45s19.2,14,29.74,34.67a59.52,59.52,0,0,1,6.64,22.12c.83-.78,1.66-1.59,2.47-2.39.18-.15.38-.36.56-.53a184.27,184.27,0,0,0,32.75-43.7C326.94,410.54,331.1,391.29,333.05,385.14Z"/><path class="cls-51" d="M475.82,509.32c-1.41.93-2.82,1.87-4.26,2.77-8.38,5.48-17,10.6-25.79,15.42-17.58,9.59-36.15,17.76-55.83,22.63-9.82,2.35-20,4-30.2,3.28a72.45,72.45,0,0,1-29.17-8.4c-9-4.67-17-10.82-24.77-17.08-7.55-6.08-14.89-12.31-22.66-18.09-.23-.2-.48-.38-.73-.56l.28-.4.45.3c8.1,5.55,15.82,11.61,23.64,17.46,8,6,16.15,11.66,25,16a69,69,0,0,0,28.13,7.24c9.72.38,19.48-1.31,29-3.91a214.57,214.57,0,0,0,27.78-10.06c4.51-2,9-4.07,13.5-6.13s8.9-4.37,13.34-6.56c6-3,12-6.19,17.92-9.39a78.28,78.28,0,0,0,12.36-3.66Z"/><path class="cls-52" d="M397.28,465.24c-1.36,2.05-2.83,4-4.34,6a79.21,79.21,0,0,1-9.59,10.12,81.77,81.77,0,0,1-11.22,8.17,53.06,53.06,0,0,1-12.64,5.55l-.16-.47a58.92,58.92,0,0,0,11.38-7.15l.18-.15a16,16,0,0,0,1.31-1.06,75.88,75.88,0,0,0,8.35-7.79c1.47-1.67,3-3.26,4.34-5s2.75-3.43,4-5.25,2.5-3.63,3.76-5.45l3.46-5.65.2.12C396.52,458.83,397.05,463.58,397.28,465.24Z"/><path class="cls-53" d="M373.34,486.66l-.36,1.21c-.7-.17-1.38-.35-2.09-.58a137.85,137.85,0,0,1-16.83-5.62,196.94,196.94,0,0,1-18-8.58q-8.82-4.77-17.2-10.24c-3.33-2.2-6.61-4.42-9.84-6.79,2.19-3.74,3.23-6.94,2-8.86,3.78,3.48,7.79,6.89,11.83,10.09,5.1,4.07,10.37,7.9,15.77,11.54s11.05,6.91,16.8,10a136.38,136.38,0,0,0,16.83,7.41C372.58,486.39,373,486.54,373.34,486.66Z"/><path class="cls-54" d="M237.85,594.17c0,.45,0,.93,0,1.39q-.08,6.27-.31,12.51c-.53,16.42-1.69,32.82-3.12,49.17-1.9,21-4.24,41.89-5.91,62.8-.43,5.25-.83,10.47-1,15.72-.07,2.62,0,5.25-.15,7.87s-.38,5.2-.55,7.82c-.74,10.45-1.22,20.89-1.52,31.36-.48,16.63-.22,38.76-.53,55.38,0,4-.15,7.62-.28,10.8a67,67,0,0,0-3.75-18.37c-.13-2.34-.28-4.71-.38-7.06-.73-13.6-1.16-27.2-1.14-40.82,0-10.57.38-21.15.88-31.69.16-2.65.28-5.27.48-7.92s.63-5.25,1.06-7.85c.76-5.25,1.11-10.5,1.82-15.72,2.47-21,5.63-41.75,8.3-62.62,2.65-20.23,4.64-40.57,5.55-61v-.08c0-.58,0-1.13.08-1.71Z"/><path class="cls-49" d="M194.53,602.34A59.94,59.94,0,0,1,192,611.2a101.59,101.59,0,0,0-.35-19.45,57.27,57.27,0,0,0-.69-10.63,64.06,64.06,0,0,0-6.43-19.42A97.35,97.35,0,0,0,163,533.82h0c-1.11-1.06-2.24-2.05-3.4-3a3.76,3.76,0,0,0-.31-.25l-.75-.66c-10.52-9.11-22.81-16.07-35.58-21.82a178.21,178.21,0,0,0-19.73-7.39c-3.35-1.09-6.76-2-10.16-3l-1.74-.4a.28.28,0,0,0-.13,0l-7.77-1.84-.58-.12a.41.41,0,0,0-.13,0l.08-.5c3.53.48,7.06.93,10.57,1.51s7,1.31,10.47,2.15a185.87,185.87,0,0,1,17.91,5.37h0c.86.33,1.66.66,2.52,1l2.22.86,2.8,1.11c1.64.71,3.26,1.49,4.9,2.25.9.4,1.79.83,2.7,1.26l.63.33c2.09,1.06,4.16,2.22,6.25,3.33,3.16,1.71,6.16,3.73,9.21,5.62,2.9,2.15,6,4.06,8.73,6.41,1.57,1.24,3.06,2.52,4.54,3.86h0c.86.78,1.69,1.57,2.52,2.37.41.41.81.79,1.21,1.21,2.53,2.48,4.92,5.08,7.22,7.75A90.76,90.76,0,0,1,189,559.53a69.7,69.7,0,0,1,6.41,20.94A63.76,63.76,0,0,1,194.53,602.34Z"/><path class="cls-55" d="M162.41,461.26c-1,.88-2,1.76-2.92,2.7l-.38.37a.62.62,0,0,0-.18.18l-.1.1c-1.44,1.39-2.8,2.83-4.19,4.32v0c-.91,1-1.79,2-2.67,3-2.85,3.2-5.55,6.53-8.2,9.89l-.38.45c-.3.41-.63.78-.93,1.19l-.51.65c-5.42,7-10.64,14.23-15.61,21.55-.46.66-.91,1.34-1.37,2l-4.08-3c.22-.28.45-.58.68-.86h0c5.68-7,11.51-13.85,17.56-20.46.46-.51.94-1,1.39-1.52,3.41-3.68,6.89-7.31,10.5-10.77,1.33-1.29,2.67-2.55,4.06-3.76,1.21-1.11,2.47-2.19,3.73-3.23L159,464a0,0,0,0,1,0,0Q160.68,462.54,162.41,461.26Z"/><path class="cls-3" d="M122.27,875.71a154.69,154.69,0,0,1-30.52-6.42,185.18,185.18,0,0,0,51.87,7.43A176.75,176.75,0,0,1,122.27,875.71Z"/><path class="cls-3" d="M89.6,868.62c.71.25,1.43.43,2.15.67C90.92,869,90.17,868.81,89.6,868.62Z"/><path class="cls-4" d="M357,846.32l-.12.55-.38.38c-8.53,8.78-20.06,13.5-31.49,15.9a112.86,112.86,0,0,1-17.43,2.19,142.08,142.08,0,0,1-17.51,0,195.15,195.15,0,0,1-34.57-5,152.63,152.63,0,0,1-16.52-4.74c-.1,0-.23-.08-.33-.13-2.62-1-5.25-1.94-7.82-3.1-1.87-.89-3.74-1.84-5.58-2.95l-.76-.46s50.14,16.61,75.11,3.34c25.64-13.61,45.43-21.3,58-28.11.23,1.48.4,3,.53,4.49A54,54,0,0,1,357,846.32Z"/><path class="cls-56" d="M292.58,792.32a27.48,27.48,0,0,1,4.65,1.9,38.17,38.17,0,0,1,4.32,2.54,45.24,45.24,0,0,1,7.63,6.46A55.69,55.69,0,0,1,320,820c.35.76.66,1.53.94,2.32s.6,1.56.87,2.35c.5,1.6,1.06,3.18,1.45,4.8a86.29,86.29,0,0,1,2.05,9.81,116.84,116.84,0,0,1,1.19,20l0,1.38-2.8-.09.06-1.38a114,114,0,0,0-.66-19.55,84.16,84.16,0,0,0-1.76-9.61c-.35-1.6-.85-3.15-1.3-4.71-.24-.78-.52-1.54-.79-2.31s-.54-1.54-.85-2.29a54.18,54.18,0,0,0-10.13-16.57A44,44,0,0,0,301,797.6a35.54,35.54,0,0,0-4.15-2.59,27.81,27.81,0,0,0-4.45-2l-.36-.12.2-.73Z"/><path class="cls-56" d="M313.58,784.4a37,37,0,0,1,9.12,4,46.93,46.93,0,0,1,8,5.92,52.59,52.59,0,0,1,11.71,16,70.42,70.42,0,0,1,5.93,19A102.74,102.74,0,0,1,349.69,849l0,1-2.08-.06,0-1a101.35,101.35,0,0,0-1-19.47,69.57,69.57,0,0,0-5.47-18.65A51.5,51.5,0,0,0,330,795a45.43,45.43,0,0,0-7.72-5.94,36.1,36.1,0,0,0-8.83-4l-.32-.09.15-.64Z"/><path class="cls-4" d="M224.45,849l-1.81,2.45a54.47,54.47,0,0,1-10,9.74,77.07,77.07,0,0,1-16.55,9.56c-11.66,5-24.1,7.85-36.59,9.44a179,179,0,0,1-37.74.43,142.07,142.07,0,0,1-36.94-8.28l-1.13-.43-.38-1.16a123.69,123.69,0,0,1-4.8-20.81c18.24-2.1,41.69,9.39,65.1,15.67C181.27,875.71,224.45,849,224.45,849Z"/><path class="cls-56" d="M126.25,787.34a30.74,30.74,0,0,0-5.66,2.59,41.15,41.15,0,0,0-5.17,3.5,45.47,45.47,0,0,0-8.6,9,57,57,0,0,0-9.51,22.79,93.93,93.93,0,0,0-1,24.84,136.79,136.79,0,0,0,4.36,24.57l-2.92.7a183.13,183.13,0,0,1-3.62-25.12,95.64,95.64,0,0,1,1.63-25.32A58.48,58.48,0,0,1,106,801.77a46.47,46.47,0,0,1,9-9,40.36,40.36,0,0,1,5.33-3.44,31.74,31.74,0,0,1,5.83-2.51Z"/><path class="cls-56" d="M151.09,794.1a31.48,31.48,0,0,0-10.63,5,39.5,39.5,0,0,0-8.41,8.17,45,45,0,0,0-5.73,10.22,59.15,59.15,0,0,0-3.19,11.3l-.49,2.9-.33,2.93-.16,1.47-.08,1.47-.16,2.94c0,2-.07,3.94,0,5.91l.13,3,.07,1.47.13,1.48a207.39,207.39,0,0,0,3.38,23.44l.27,1.41-2.74.59-.33-1.39a137.85,137.85,0,0,1-3.5-23.87l-.08-1.51,0-1.51,0-3c0-2,.11-4,.18-6.06l.26-3,.14-1.51.2-1.5.43-3,.6-3a62.07,62.07,0,0,1,3.66-11.58,47.14,47.14,0,0,1,6.26-10.4A35.74,35.74,0,0,1,151,793.61l.24-.05.08.48Z"/><path class="cls-36" d="M161.76,777.31a0,0,0,0,0,0,0l-.4.48c-1.11-.18-2.2-.33-3.31-.46h-.1a82.71,82.71,0,0,0-15.41-.37c-2.6.15-5.2.45-7.77.85-.26,0-.51.08-.74.13a81.47,81.47,0,0,0-8.83,2c-11.93,3.28-23.11,9.71-30.8,19.2s-11.73,21.49-12.06,33.7c-.41,11.86,2,23.7,5.47,35.15l.28.1a.06.06,0,0,1,0,0c1.34.75,24.27,13.09,71.4,12.06a179,179,0,0,1-37.74.43,142.07,142.07,0,0,1-36.94-8.28l-1.13-.43-.38-1.16c-3.89-12.21-6.26-25.1-5.55-38.1a63.91,63.91,0,0,1,1.11-9.31c.33-1.66.7-3.3,1.16-4.94a55.26,55.26,0,0,1,11.48-21.67c8.63-9.92,20.64-16.18,33.05-19.15,2.55-.58,5.15-1.06,7.74-1.42,1.69-.25,3.39-.43,5.1-.53s3.58-.25,5.37-.27h.64A81.25,81.25,0,0,1,161.76,777.31Z"/><path class="cls-36" d="M357.8,846.32l-.13.55-.38.38c-8.53,8.78-20.06,13.5-31.49,15.9a112.86,112.86,0,0,1-17.43,2.19,142.08,142.08,0,0,1-17.51,0c47.71-.33,62.14-19.2,63-20.39l.05,0a49.54,49.54,0,0,0,.48-15.72,65.54,65.54,0,0,0-3.78-15.94c-3.76-10.22-9.87-19.66-18.42-26.27A47.72,47.72,0,0,0,318,779.31a59.44,59.44,0,0,0-16.14-2.85,77,77,0,0,0-16.63,1,136.36,136.36,0,0,0-16.5,3.74l-.15-.48c9.89-4.19,20.46-7.27,31.46-7.72a3.1,3.1,0,0,1,.68,0c.38,0,.78,0,1.19,0a54,54,0,0,1,33.3,10,55.39,55.39,0,0,1,12.29,12.82,65.47,65.47,0,0,1,7.87,15.79,71.52,71.52,0,0,1,3.58,17.16A53.94,53.94,0,0,1,357.8,846.32Z"/><path class="cls-36" d="M194.53,602.34c-.2.89-.4,1.79-.63,2.68s-.45,1.74-.73,2.62c-.18.61-.38,1.19-.58,1.79s-.4,1.19-.63,1.77a101.59,101.59,0,0,0-.35-19.45c-2.93-25.76-15.72-45-31.57-59.24-.15-.53-.3-1.09-.48-1.62,0,0,0-.07,0-.1s-.83-4.29-6.59-11.23c2.9,2.15,6,4.06,8.73,6.41,1.57,1.24,3.06,2.52,4.54,3.86h0c.86.78,1.69,1.57,2.52,2.37.41.41.81.79,1.21,1.21,2.53,2.48,4.92,5.08,7.22,7.75A90.76,90.76,0,0,1,189,559.53a69.7,69.7,0,0,1,6.41,20.94A63.76,63.76,0,0,1,194.53,602.34Z"/></g></g></svg>