<svg xmlns="http://www.w3.org/2000/svg" xmlns:xlink="http://www.w3.org/1999/xlink" viewBox="0 0 507.55 379.38"><defs><style>.cls-1{isolation:isolate;}.cls-2{fill:#fff;}.cls-3{fill:#ff6c3b;}.cls-4{fill:url(#Gradiente_sem_nome_166);}.cls-5{fill:url(#Gradiente_sem_nome_166-2);}.cls-6{fill:url(#Gradiente_sem_nome_166-3);}.cls-7{fill:url(#Gradiente_sem_nome_166-4);}.cls-8{fill:url(#Gradiente_sem_nome_166-5);}.cls-9{fill:url(#Gradiente_sem_nome_166-6);}.cls-10{fill:#039;}.cls-11{fill:#ffedca;opacity:0.3;mix-blend-mode:color-dodge;}</style><linearGradient id="Gradiente_sem_nome_166" x1="63.39" y1="15.35" x2="63.39" y2="146.44" gradientUnits="userSpaceOnUse"><stop offset="0" stop-color="#fe0" stop-opacity="0.5"/><stop offset="0.1" stop-color="#fbc905" stop-opacity="0.54"/><stop offset="0.32" stop-color="#f48c0c" stop-opacity="0.61"/><stop offset="0.54" stop-color="#f06012" stop-opacity="0.66"/><stop offset="0.76" stop-color="#ed4615" stop-opacity="0.69"/><stop offset="1" stop-color="#ec3d16" stop-opacity="0.7"/></linearGradient><linearGradient id="Gradiente_sem_nome_166-2" x1="136.32" y1="21.41" x2="136.32" y2="142.74" xlink:href="#Gradiente_sem_nome_166"/><linearGradient id="Gradiente_sem_nome_166-3" x1="247.19" y1="27.75" x2="247.19" y2="142.41" xlink:href="#Gradiente_sem_nome_166"/><linearGradient id="Gradiente_sem_nome_166-4" x1="337.36" y1="23.85" x2="337.36" y2="141.72" xlink:href="#Gradiente_sem_nome_166"/><linearGradient id="Gradiente_sem_nome_166-5" x1="403.31" y1="23.57" x2="403.31" y2="139.12" xlink:href="#Gradiente_sem_nome_166"/><linearGradient id="Gradiente_sem_nome_166-6" x1="222.89" y1="2.59" x2="222.89" y2="320.9" xlink:href="#Gradiente_sem_nome_166"/></defs><g class="cls-1"><g id="Camada_2" data-name="Camada 2"><g id="Camada_1-2" data-name="Camada 1"><path class="cls-2" d="M442.47,41.51v241a38.25,38.25,0,0,1-38.19,38.2H41.51a38.25,38.25,0,0,1-38.2-38.2v-241A38.23,38.23,0,0,1,41.5,3.31H404.27A38.24,38.24,0,0,1,442.47,41.51Z"/><path class="cls-3" d="M63.75,86.63c.83-6.64,3.48-13.11,5.31-19.58.5-1.83,1.33-2.49,3.15-2.49h23.4a4.84,4.84,0,0,1,5,3.32c1.82,5,4,9.79,6,14.6a4.07,4.07,0,0,1-.16,3.65C97.93,104.55,87.31,121.81,72,135.58c-7.3,6.31-14.6,11.78-23.73,12.12-17.59,1-25.72-16.1-27.71-30.37C15.29,78.5,38.86,26.06,76.86,15.44c6.8-2,6.8-1.83,10.78,3.82,5.81,8.62,11.62,17.09,17.59,25.55C103.41,47,94,53.61,89.8,55.43c-5.81-3.82-10-9.13-14.27-14.6C59.43,51,50.8,68.54,46.32,85.63,42.84,99.07,41,115,47.82,125.29,61.76,116.5,71.71,102.06,79.18,88c.17-.17,0-.5.17-1.33Z"/><path class="cls-4" d="M63.75,86.63c.83-6.64,3.48-13.11,5.31-19.58.5-1.83,1.33-2.49,3.15-2.49h23.4a4.84,4.84,0,0,1,5,3.32c1.82,5,4,9.79,6,14.6a4.07,4.07,0,0,1-.16,3.65C97.93,104.55,87.31,121.81,72,135.58c-7.3,6.31-14.6,11.78-23.73,12.12-17.59,1-25.72-16.1-27.71-30.37C15.29,78.5,38.86,26.06,76.86,15.44c6.8-2,6.8-1.83,10.78,3.82,5.81,8.62,11.62,17.09,17.59,25.55C103.41,47,94,53.61,89.8,55.43c-5.81-3.82-10-9.13-14.27-14.6C59.43,51,50.8,68.54,46.32,85.63,42.84,99.07,41,115,47.82,125.29,61.76,116.5,71.71,102.06,79.18,88c.17-.17,0-.5.17-1.33Z"/><path class="cls-3" d="M177.57,25.69c-.33-2.07-1.32-2.87-3.48-3-3.49-.32-7.14-.8-10.62-1.28-3.32-.32-6.64-.64-10.12-1C132.6,43,106.88,93.56,90.62,136.74c7.63,2.4,15.1,4.64,23.06,7.2,2.33-6.56,4.65-11.89,6.81-18,2.65,0,4.64.16,6.8,0l28.54-1.44c2.49-.16,2.83.32,2.83,2.71v4.64c7.9,1.64,15.3,3.28,23.23,4.8C181.89,100.39,183.21,64.4,177.57,25.69Zm-46,78.53c.83-4.79,21.24-40.46,25.55-44.62.5,14.72,1.16,28.79,1.66,43.18C149.53,103.26,140.57,103.74,131.61,104.22Z"/><path class="cls-5" d="M177.57,25.69c-.33-2.07-1.32-2.87-3.48-3-3.49-.32-7.14-.8-10.62-1.28-3.32-.32-6.64-.64-10.12-1C132.6,43,106.88,93.56,90.62,136.74c7.63,2.4,15.1,4.64,23.06,7.2,2.33-6.56,4.65-11.89,6.81-18,2.65,0,4.64.16,6.8,0l28.54-1.44c2.49-.16,2.83.32,2.83,2.71v4.64c7.9,1.64,15.3,3.28,23.23,4.8C181.89,100.39,183.21,64.4,177.57,25.69Zm-46,78.53c.83-4.79,21.24-40.46,25.55-44.62.5,14.72,1.16,28.79,1.66,43.18C149.53,103.26,140.57,103.74,131.61,104.22Z"/><path class="cls-3" d="M209.1,143.55c-7.21-2-14.61-4.17-21.42-6.22,4-35.18,8-69.26,15.08-104,6.78,1.66,14.65,3.15,21.28,4.81a3.75,3.75,0,0,1,2.8,2.49c1.62,3.82,10.84,25.56,14.23,33.19,1-1.33,24.07-31.86,37.19-45.47.88-1,1.91-1.82,3.39-1.49,6.78,1.33,18.13,3.15,25.05,5.64-5.3,32.53-14.5,75-21,104.21-7.3-1.89-18-5.14-24.32-7.3,4-21.4,7.81-42.48,11.94-64.38-1,1-13.85,21.57-22.25,31.53a4.28,4.28,0,0,1-4.86,1.82c-5.3-1.49-8.87-2.65-14.17-3.82-1.77-.49-2-1.49-2.89-3.31-2.5-5.31-5.86-17.76-6.74-19.42C216.49,96.6,211.84,118.21,209.1,143.55Z"/><path class="cls-6" d="M209.1,143.55c-7.21-2-14.61-4.17-21.42-6.22,4-35.18,8-69.26,15.08-104,6.78,1.66,14.65,3.15,21.28,4.81a3.75,3.75,0,0,1,2.8,2.49c1.62,3.82,10.84,25.56,14.23,33.19,1-1.33,24.07-31.86,37.19-45.47.88-1,1.91-1.82,3.39-1.49,6.78,1.33,18.13,3.15,25.05,5.64-5.3,32.53-14.5,75-21,104.21-7.3-1.89-18-5.14-24.32-7.3,4-21.4,7.81-42.48,11.94-64.38-1,1-13.85,21.57-22.25,31.53a4.28,4.28,0,0,1-4.86,1.82c-5.3-1.49-8.87-2.65-14.17-3.82-1.77-.49-2-1.49-2.89-3.31-2.5-5.31-5.86-17.76-6.74-19.42C216.49,96.6,211.84,118.21,209.1,143.55Z"/><path class="cls-3" d="M381.37,52.94c3.48-7.63,2.15-15.26-3.65-20.24a33,33,0,0,0-9.13-5.15c-9.63-3.81-19.75-4.81-30.37-4.64H319.14c-2.33,0-3,.33-3.49,2.65C308.52,62.4,299.09,99,291.45,138.3c7.31,2.33,14.94,3.49,22.57,4.49a18,18,0,0,0,8.3-1.17c14.44-5.64,33.82-10.52,48.59-19.31a18.29,18.29,0,0,0,7.8-9.13,13.69,13.69,0,0,0-1.82-13.61A55.71,55.71,0,0,0,356.81,83a32.11,32.11,0,0,1-3.32-1.66C363.11,73.19,375.73,65.22,381.37,52.94ZM319.3,119.49c1.66-7.64,3.49-14.77,5.15-22.24,9.95,1.66,18.92,4.31,27.05,10.79C340.38,111.85,330.09,115.5,319.3,119.49ZM331.25,70.2c1.66-8.63,3-16.59,4.65-25.06A58.76,58.76,0,0,1,358,48.46C350.5,57.42,340.88,63.4,331.25,70.2Z"/><path class="cls-7" d="M381.37,52.94c3.48-7.63,2.15-15.26-3.65-20.24a33,33,0,0,0-9.13-5.15c-9.63-3.81-19.75-4.81-30.37-4.64H319.14c-2.33,0-3,.33-3.49,2.65C308.52,62.4,299.09,99,291.45,138.3c7.31,2.33,14.94,3.49,22.57,4.49a18,18,0,0,0,8.3-1.17c14.44-5.64,33.82-10.52,48.59-19.31a18.29,18.29,0,0,0,7.8-9.13,13.69,13.69,0,0,0-1.82-13.61A55.71,55.71,0,0,0,356.81,83a32.11,32.11,0,0,1-3.32-1.66C363.11,73.19,375.73,65.22,381.37,52.94ZM319.3,119.49c1.66-7.64,3.49-14.77,5.15-22.24,9.95,1.66,18.92,4.31,27.05,10.79C340.38,111.85,330.09,115.5,319.3,119.49ZM331.25,70.2c1.66-8.63,3-16.59,4.65-25.06A58.76,58.76,0,0,1,358,48.46C350.5,57.42,340.88,63.4,331.25,70.2Z"/><path class="cls-3" d="M403.77,140.26c-7.8-.66-15.43-.83-23.07-3.32,4.15-33.35,15-82.67,22-111.71.5-2.49,1-2.82,3.15-2.49,6.31,1.16,12.61,2.49,18.75,3.65.33,0,.5.17,1.33.5C420.27,58.75,408.75,108.73,403.77,140.26Z"/><path class="cls-8" d="M403.77,140.26c-7.8-.66-15.43-.83-23.07-3.32,4.15-33.35,15-82.67,22-111.71.5-2.49,1-2.82,3.15-2.49,6.31,1.16,12.61,2.49,18.75,3.65.33,0,.5.17,1.33.5C420.27,58.75,408.75,108.73,403.77,140.26Z"/><path class="cls-3" d="M404.27,0H41.5A41.5,41.5,0,0,0,0,41.51v241a41.5,41.5,0,0,0,41.5,41.51H404.27a41.51,41.51,0,0,0,41.51-41.51v-241A41.51,41.51,0,0,0,404.27,0Zm36.79,162H4.72V41.51A36.82,36.82,0,0,1,41.5,4.72H404.27a36.83,36.83,0,0,1,36.79,36.79Z"/><path class="cls-9" d="M404.27,0H41.5A41.5,41.5,0,0,0,0,41.51v241a41.5,41.5,0,0,0,41.5,41.51H404.27a41.51,41.51,0,0,0,41.51-41.51v-241A41.51,41.51,0,0,0,404.27,0Zm36.79,162H4.72V41.51A36.82,36.82,0,0,1,41.5,4.72H404.27a36.83,36.83,0,0,1,36.79,36.79Z"/><path class="cls-2" d="M69.41,286A63.07,63.07,0,0,1,59,288.09c-63.3,7.79-41.7-51.68-16.13-80.66,7.25-8.2,14.9-14.49,21.6-17.63,4.79,8.34,9.29,16.27,14,24.6-4.39,3.28-8.62,6.56-13.13,10-1.92-2.18-3.56-4.1-5.47-6.15-2.19.41-5.19,3.41-8.34,7.65-17.36,23.79-23.65,50,14.22,42.93,3.42-.68,5.88-1.23,6.7-1.23C71.74,273.73,70.51,279.75,69.41,286Z"/><path class="cls-2" d="M69.41,286A63.07,63.07,0,0,1,59,288.09c-63.3,7.79-41.7-51.68-16.13-80.66,7.25-8.2,14.9-14.49,21.6-17.63,4.79,8.34,9.29,16.27,14,24.6-4.39,3.28-8.62,6.56-13.13,10-1.92-2.18-3.56-4.1-5.47-6.15-2.19.41-5.19,3.41-8.34,7.65-17.36,23.79-23.65,50,14.22,42.93,3.42-.68,5.88-1.23,6.7-1.23C71.74,273.73,70.51,279.75,69.41,286Z"/><path class="cls-2" d="M151.52,224.56a29.73,29.73,0,0,0-16.27-22.95c-5.88-3-11.89-5.42-18-8.08a7.6,7.6,0,0,0-3.83-.13,29.05,29.05,0,0,0-10.11,5.17,79,79,0,0,0-23.37,29.17C76.47,235.29,74,243.12,74,249.48c0,9.28,1.77,16.18,5.33,21.61,6.29,10,17.5,14.45,29.12,11.93A41.71,41.71,0,0,0,126,274.27c11.9-9.81,19.69-22.14,24.34-36.46A27.31,27.31,0,0,0,151.52,224.56Zm-21.19,11.93c-3.83,9.41-13.27,25.32-24.88,28.64-4.11,1.45-7.25.4-9.44-3.32-1.91-3.18-2.46-6.76-2.46-10.6,0-13.53,9.16-27.45,20.24-37.4,1.36-1.19,2.45-1.45,4.09-.52C129.09,219.25,135.53,223.23,130.33,236.49Z"/><path class="cls-2" d="M151.52,224.56a29.73,29.73,0,0,0-16.27-22.95c-5.88-3-11.89-5.42-18-8.08a7.6,7.6,0,0,0-3.83-.13,29.05,29.05,0,0,0-10.11,5.17,79,79,0,0,0-23.37,29.17C76.47,235.29,74,243.12,74,249.48c0,9.28,1.77,16.18,5.33,21.61,6.29,10,17.5,14.45,29.12,11.93A41.71,41.71,0,0,0,126,274.27c11.9-9.81,19.69-22.14,24.34-36.46A27.31,27.31,0,0,0,151.52,224.56Zm-21.19,11.93c-3.83,9.41-13.27,25.32-24.88,28.64-4.11,1.45-7.25.4-9.44-3.32-1.91-3.18-2.46-6.76-2.46-10.6,0-13.53,9.16-27.45,20.24-37.4,1.36-1.19,2.45-1.45,4.09-.52C129.09,219.25,135.53,223.23,130.33,236.49Z"/><path class="cls-2" d="M197.32,280.47S184.06,248.73,176.07,234c-4.29,16.68-7.49,39.1-9.82,56.46l-17.11-6.7c.37-7.9,10.16-74.76,12.28-80.38,1.84.42,15.88,3.29,19.56,4.1a3.15,3.15,0,0,1,2.34,2.05s17.72,37.37,18.34,38.59c3.44-18,7.82-40.08,12.11-57.72l18.8,3.27c-4.74,28.38-12.38,61.58-17.24,90.08Z"/><path class="cls-2" d="M197.32,280.47S184.06,248.73,176.07,234c-4.29,16.68-7.49,39.1-9.82,56.46l-17.11-6.7c.37-7.9,10.16-74.76,12.28-80.38,1.84.42,15.88,3.29,19.56,4.1a3.15,3.15,0,0,1,2.34,2.05s17.72,37.37,18.34,38.59c3.44-18,7.82-40.08,12.11-57.72l18.8,3.27c-4.74,28.38-12.38,61.58-17.24,90.08Z"/><path class="cls-2" d="M289.06,207.57c-11.62.68-22.83,1.36-34.32,2-1.36,6.43-2.73,12.72-4.23,19.28,8.33-.13,13.8-.13,19.4.28-1,6-1.63,11.62-2.45,17.49-7.11.83-13.95.55-20.65,1-2.73,12.71-5.94,27.13-8,40-5.67-.73-12.68-1.91-18.18-3.14,2.47-26.66,8.55-47.78,13.75-72,1.5-6.42,3.14-13,4.5-19.28,4-1.5,49.22-4.37,53.32-3.55C291.11,195.67,290,201.55,289.06,207.57Z"/><path class="cls-2" d="M289.06,207.57c-11.62.68-22.83,1.36-34.32,2-1.36,6.43-2.73,12.72-4.23,19.28,8.33-.13,13.8-.13,19.4.28-1,6-1.63,11.62-2.45,17.49-7.11.83-13.95.55-20.65,1-2.73,12.71-5.94,27.13-8,40-5.67-.73-12.68-1.91-18.18-3.14,2.47-26.66,8.55-47.78,13.75-72,1.5-6.42,3.14-13,4.5-19.28,4-1.5,49.22-4.37,53.32-3.55C291.11,195.67,290,201.55,289.06,207.57Z"/><path class="cls-10" d="M361.27,190.35c-.82,3.18-1.61,6.28-2.39,9.28s-1.57,6.06-2.39,9.15q-5.19.14-10.17.21t-10.17.2q-1.09,5.19-2.25,10.24t-2.39,10.38q5.46-.27,10.72-.62c3.5-.22,7.07-.43,10.71-.61a21.34,21.34,0,0,1-.88,5.19c-.5,1.64-1,3.27-1.44,4.91s-.91,3.26-1.36,4.85-.91,3.25-1.37,5H327q-1.23,4.92-2.46,9.77t-2.45,9.89q6.68-.94,13-1.91c4.23-.63,8.53-1.32,12.9-2q-1.23,5.59-2,9.28T344.34,281a4.1,4.1,0,0,1-.89,1.91,3.59,3.59,0,0,1-2.11,1q-7.24,1.23-14.34,2.59t-14.34,2.87a4.45,4.45,0,0,1-3.27-.68c-1.18-.82-2.37-1.6-3.55-2.33s-2.41-1.5-3.69-2.32c-1-.63-1.73-1.11-2.18-1.43a1.9,1.9,0,0,1-.82-1,2.84,2.84,0,0,1,.07-1.36c.13-.59.34-1.43.61-2.53q1.23-5.6,2.6-11t2.72-11q3-12.83,6-25.53t6-25.54c.55-2.18,1.09-4.36,1.64-6.55s1.05-4.37,1.5-6.55a2.53,2.53,0,0,1,2.73-1.92q11.07,0,20.28-.13A144.81,144.81,0,0,1,361.27,190.35Z"/><path class="cls-10" d="M365.91,195q4.51,1.77,9,3.48t9.14,3.62q-2.73,9.28-5.32,18.91a102,102,0,0,0-3.28,19.46,68.23,68.23,0,0,0,.62,18c1,4.83,2.46,7.74,4.5,8.74s4.48-.27,7.31-3.82,5.78-10.2,8.87-19.94q3.15-10,6.28-22.53t6.83-26.76q4.64,1.77,9.08,3.41l9.22,3.42q-2.06,11.19-5.06,22.87a209.55,209.55,0,0,1-7.23,22.73Q413.84,252.2,411,259a95.36,95.36,0,0,1-6.76,13,55.86,55.86,0,0,1-8.8,11,22.09,22.09,0,0,1-11.06,5.94,17.45,17.45,0,0,1-15.84-3.82,28.22,28.22,0,0,1-6.83-9,50.14,50.14,0,0,1-3.89-11.26A85.88,85.88,0,0,1,356,242.37q.27-5.73.95-12t1.91-12.56c.82-4.18,1.83-8.24,3-12.15A73,73,0,0,1,365.91,195Z"/><polygon class="cls-11" points="417.02 93.89 411.25 110.12 425.55 102.42 421.98 121.95 439.04 115.9 443.71 138.74 454.99 131.86 451.69 156.62 470.95 147.82 447.01 192.66 481.41 158.27 467.38 180.56 491.31 168.18 476.73 197.62 507.55 184.41 312.57 379.38 319.07 364.08 307.13 373.94 305.78 372.59 307.79 357.75 293.04 359.85 300.64 328.04 278.46 345.27 276.98 323.08 263.17 329.98 271.47 313.18 248.74 315.55 256.89 284.29 229.21 296.01 236.53 278.23 215.17 281.98 410.15 87.01 398.31 109.3 417.02 93.89"/><polygon class="cls-11" points="265.36 259.55 403.31 143.55 388.74 162.03 393.99 160.92 265.36 259.55"/><polygon class="cls-11" points="321.99 314.3 383.27 251.29 375.24 251.29 387.24 244.54 395.86 229.92 441.06 201.55 399.81 233.2 385.71 265.76 321.99 314.3"/></g></g></g></svg>