<svg xmlns="http://www.w3.org/2000/svg" xmlns:xlink="http://www.w3.org/1999/xlink" viewBox="0 0 1198.07 1415.56"><defs><style>.cls-1{isolation:isolate;}.cls-2{fill:url(#Gradiente_sem_nome_656);}.cls-3{fill:url(#Gradiente_sem_nome_464);}.cls-4{fill:url(#Gradiente_sem_nome_605);}.cls-5{fill:#ffed00;}.cls-6{fill:#f39200;}.cls-27,.cls-7{fill:#1d1d1b;}.cls-8{fill:#683c11;}.cls-9{fill:#ca9e67;}.cls-10{fill:#009fe3;}.cls-11,.cls-31,.cls-32{fill:none;}.cls-11{stroke:#36a9e1;stroke-width:3px;}.cls-11,.cls-22{stroke-miterlimit:10;}.cls-12{fill:#936037;}.cls-13{fill:#ededed;}.cls-14{fill:#dadada;}.cls-15{fill:#b2b2b2;}.cls-16{fill:#432918;}.cls-17{fill:#cbbba0;}.cls-18{fill:#a48a7b;}.cls-19{fill:#7d4e24;}.cls-20{fill:#eb6930;}.cls-21{fill:#fac6a1;}.cls-22,.cls-25,.cls-28,.cls-30{fill:#fff;}.cls-22{stroke:#fff;}.cls-23{fill:#d24016;}.cls-24{fill:#3d1219;}.cls-26{fill:#642d18;}.cls-27,.cls-28{opacity:0.2;}.cls-27{mix-blend-mode:multiply;}.cls-28{mix-blend-mode:screen;}.cls-29{fill:#36130f;}.cls-30,.cls-31{stroke:#36130f;}.cls-30,.cls-31,.cls-32{stroke-linecap:round;stroke-linejoin:round;}.cls-32{stroke:#662c1b;}.cls-33{fill:#662c1b;}.cls-34{fill:#37120d;}.cls-35{fill:#b17f4a;}</style><linearGradient id="Gradiente_sem_nome_656" x1="599.04" y1="1412.2" x2="599.04" y2="1084.61" gradientUnits="userSpaceOnUse"><stop offset="0" stop-color="#e5bc7f"/><stop offset="1" stop-color="#aa7d57"/></linearGradient><linearGradient id="Gradiente_sem_nome_464" x1="599.04" y1="1200.01" x2="599.04" y2="263.21" gradientUnits="userSpaceOnUse"><stop offset="0" stop-color="#d1cfa6"/><stop offset="1" stop-color="#c5c785"/></linearGradient><linearGradient id="Gradiente_sem_nome_605" x1="325.71" y1="1058.52" x2="325.71" y2="439.98" gradientUnits="userSpaceOnUse"><stop offset="0" stop-color="#7d7e65"/><stop offset="1" stop-color="#484b31"/></linearGradient></defs><g class="cls-1"><g id="Camada_2" data-name="Camada 2"><g id="Camada_2-2" data-name="Camada 2"><polygon class="cls-2" points="1198.07 1200.01 1198.07 1415.56 0 1415.56 0 1200.01 162.7 1200.01 162.85 1064.86 447.1 1064.86 447.1 1200.01 1198.07 1200.01"/><polygon class="cls-3" points="1198.07 263.21 1198.07 1200.01 447.1 1200.01 447.1 1064.86 162.85 1064.86 162.7 1200.01 0 1200.01 0 263.21 1198.07 263.21"/><polygon class="cls-4" points="488.71 402.69 488.71 1064.86 162.7 1064.86 163.55 419.79 163.55 416.89 447.1 404.51 488.71 402.69"/><path class="cls-5" d="M229.25,1180.22c89.56,0,149.26-99.5,125.85-181.45s-93.7-129.38-58.29-278.11c0,0-51.89,45.15-67.28,127.48,0,0-26.56-50.46-80.76-58.62,72.79,164-15,145-19.09,276.29C128.1,1115.88,166.68,1180.25,229.25,1180.22Z"/><path class="cls-6" d="M261,858.17c8.28,35.08,22.75,63.19,36.35,89.61,10.41,20.22,20.25,39.32,26.16,60,9.33,32.65,1.42,71.1-20.63,100.34-11.05,14.66-35.32,39.26-73.71,39.28-15.71,0-29.83-6.34-42-18.86-15.49-16-25.45-40.78-24.79-61.71,1.37-43.57,12.72-66.38,24.74-90.53,14.85-29.84,25.55-56.41,22.75-94.19l34,67.24,17-91.19"/><path class="cls-5" d="M1198.07,862.64v331.07q-6.87,3.42-14,6.3a208.54,208.54,0,0,1-84.66,14.86c-36.58-1.33-67.1-6.63-92.52-14.86-175.47-56.79-107.41-253.43-107.41-253.43,12.89,78.31,105.08,41.63,70.38-64.44-34.34-105,8-204.14,8.92-206.15-.44,2.17-21.12,105.9,66.24,94.18,88.37-11.86,28.93-122,28.93-122S1180,675,1162.56,812c-11.21,88.24,9.48,130.47,9.48,130.47C1168.58,912.69,1182.08,884.6,1198.07,862.64Z"/><path class="cls-6" d="M1198.07,967.25v189.52c-26,16.64-58.61,26-91.42,26-2,0-4.08,0-6.09-.11-77.3-2.82-130.52-24.62-158.19-64.79-21.12-30.66-25.06-68.3-23.34-99.45a60.11,60.11,0,0,0,16.5,2.36c21.31,0,41.52-11,55.43-30.19,21.13-29.14,24.58-72.32,9.49-118.48-9-27.61-11.92-54.9-11.76-79,11,5.92,25.12,10.15,43.2,10.15a131.79,131.79,0,0,0,17.38-1.21c40.1-5.38,58.68-26.46,67.21-43.21a82.58,82.58,0,0,0,7.75-23.59c7.82,20.15,10,44.45,6.38,72.67-12.08,95.07,10.06,143.44,12.51,148.7,20.36,43.77,51.6,49.6,51.6,49.6C1188.38,966.3,1193,979.53,1198.07,967.25Z"/><rect class="cls-7" x="447.1" y="402.69" width="41.61" height="797.32"/><path class="cls-8" d="M488.71,402.69l-325.16,17.1m-37-35.1-1,815.32H162.7l.15-135.15.7-645.07L447.1,404.88l41.61-2.19V1200h37V363.69Z"/><path class="cls-5" d="M535,1200.65H130.74c-60.52-119.47,57.31-118.78,105.69-234.24,0,0,19.45,42.84,0,117.11,1.54-.92,107-63.79,92.82-192.81,0,0,66.85,23.34,83.49,100.22,2.38-18.83,10.87-42.66,30.1-70.91,40.46-59.43,43.28-130.27,28.32-157C479.71,777.57,609.78,904.44,535,1200.65Z"/><path class="cls-6" d="M503.07,1200.65H162.22c-26.51-36.83-15.07-64.4-12.58-71,5.08-13.53,19.76-27.28,36.77-43.23,6.17-5.78,12.69-11.9,19.34-18.53-.54,2.35-.07,54.06-.07,54.06,77.41-13.44,138.9-81.65,154.89-166.43,44,36.08,46.18,98.51,46.18,98.51s83.68-75.87,93.31-174.09c2.89,7.87,5.64,16.24,8.2,25.18C530,980.76,532.75,1097.56,503.07,1200.65Z"/><path class="cls-5" d="M314.3,1415.56H0V1196.17c34.83-59.2,81.11-96.31,71.73-175.49,0,0,32.43,23.63,38.46,65,0,0-3.75-76.2,56.54-138.21,0,0-17.16,76.29,30,93.15,40.59,14.5,47.79-28.14,47.79-28.14S279,1083.07,248,1145.93s17.23,94.74,17.23,94.74,31-34.44,18.09-69.75C284.49,1172.16,387.08,1279.5,314.3,1415.56Z"/><path class="cls-6" d="M318.76,1319.22c-.45,25.1-6.78,62.47-26.13,96.34H2q-1-2.4-1.95-5.11V1254.12c10.46-25.72,25.42-48.58,40-70.85,19.31-29.51,39-59.66,48.62-96,.09.5,9,49.74,46.83,48,.16,0-15.76-64.34,11.51-99.63,0,0,1.39,27.81,36,37.7,31.44,7.66,47.57,3.23,53.71-13.67,9.58,33.83,2.7,55-8.05,76.79-20,40.55-12.57,71.54-2.83,90.4a89.35,89.35,0,0,0,27.51,31.88l15.51,10.24s24.21-13.41,28.76-38.55c3,5.92,5.87,12.36,8.52,19.28A184.31,184.31,0,0,1,318.76,1319.22Z"/><path class="cls-9" d="M717.52,417.16c8.09,56-4.48,158.85,0,225.16H886.84V426.85C857.58,423.92,751.79,410.76,717.52,417.16Z"/><path class="cls-8" d="M900,651.7l-157.76,4.22-24.7-13.6H886.84V426.85L903.25,449S893.89,578.68,900,651.7Z"/><path class="cls-10" d="M870.06,443.43v182H736.93c-3.52-56,6.36-142.89,0-190.19C763.88,429.84,847.06,441,870.06,443.43Z"/><path class="cls-11" d="M755.23,592.9s37.48-80.3,67.95-119.41"/><path class="cls-11" d="M769.23,611.84c21.42-46.53,74.95-124.35,81.12-134.24"/><path class="cls-11" d="M823.18,582.19A192.64,192.64,0,0,1,840.47,553"/><line class="cls-11" x1="834.29" y1="586.31" x2="844.59" y2="567.58"/><path class="cls-8" d="M587.36,909.29c-1.4,20.73,9.86,92.25,9.86,92.25l28.89-4s-11.11-39.7-7-93Z"/><path class="cls-8" d="M659,889.72s-2.55,66,.34,99.06l28.71-5.62c-7.43-30.56.62-58.75-5.07-98.82Z"/><polygon class="cls-12" points="708.21 773.63 708.21 890.71 571.31 925.3 567.17 793.14 708.21 773.63"/><polygon class="cls-8" points="567.17 793.14 571.31 925.3 550.22 916.43 544.01 782.5 676.19 766.02 708.21 773.63 567.17 793.14"/><path class="cls-12" d="M587.36,1036.23H615a0,0,0,0,1,0,0V1271.6a13.81,13.81,0,0,1-13.81,13.81h0a13.81,13.81,0,0,1-13.81-13.81V1036.23A0,0,0,0,1,587.36,1036.23Z"/><path class="cls-12" d="M804.93,1036.23h27.62a0,0,0,0,1,0,0V1271.6a13.81,13.81,0,0,1-13.81,13.81h0a13.81,13.81,0,0,1-13.81-13.81V1036.23A0,0,0,0,1,804.93,1036.23Z"/><path class="cls-12" d="M688.4,1063.17H716a0,0,0,0,1,0,0v235.36a13.81,13.81,0,0,1-13.81,13.81h0a13.81,13.81,0,0,1-13.81-13.81V1063.17A0,0,0,0,1,688.4,1063.17Z"/><polygon class="cls-12" points="857.47 1011.98 703.89 1036.23 564.46 1003.22 708.2 966.85 857.47 1011.98"/><polygon class="cls-8" points="857.47 1011.98 857.47 1048.35 701.87 1075.97 567.17 1041.62 564.46 1003.22 703.89 1036.23 857.47 1011.98"/><path class="cls-12" d="M878.15,945.28h27.62a0,0,0,0,1,0,0v315.36A13.81,13.81,0,0,1,892,1274.45h0a13.81,13.81,0,0,1-13.81-13.81V945.28A0,0,0,0,1,878.15,945.28Z"/><path class="cls-12" d="M1108.25,934.34h27.62a0,0,0,0,1,0,0v315.36a13.81,13.81,0,0,1-13.81,13.81h0a13.81,13.81,0,0,1-13.81-13.81V934.34A0,0,0,0,1,1108.25,934.34Z"/><path class="cls-12" d="M1001,950.33h27.62a0,0,0,0,1,0,0v345.36a13.81,13.81,0,0,1-13.81,13.81h0a13.81,13.81,0,0,1-13.81-13.81V950.33A0,0,0,0,1,1001,950.33Z"/><path class="cls-12" d="M1152.19,912c-.36,12.91-68.32,21.5-151.79,19.2-83.25-2.29-150.49-14.55-150.49-27.42v-.1c.35-12.91,68.31-21.5,151.78-19.2S1152.54,899.13,1152.19,912Z"/><path class="cls-8" d="M1152.45,936.81c0,12.91-67.72,23.37-151.26,23.37s-151.27-10.46-151.27-23.37v-33c0,12.87,67.24,25.13,150.49,27.42,83.47,2.3,151.43-6.29,151.79-19.2Z"/><path class="cls-13" d="M975.09,872.55a151.77,151.77,0,0,1-2.49,22.31,72.38,72.38,0,0,1-1.75,7.07c-1.28,4.12-2.86,7.2-4.77,8.3-8.8,5-35.87,6.18-42.69-2.28-6.62-8.2-6.55-33.76-5.39-43.23,1.76-14.4,56-14,57,.44,0,.58.07,1.24.09,2C975.17,868.67,975.16,870.51,975.09,872.55Z"/><path class="cls-14" d="M989.86,884.53c0,11.16-10,16.35-19,17.4a72.38,72.38,0,0,0,1.75-7.07c5.23,0,12-3.17,12-11.14,0-7.55-4.74-11.13-9.46-11.13l-.07,0c.07-2,.08-3.88,0-5.42h0C983.57,867.12,989.86,872.6,989.86,884.53Z"/><path class="cls-15" d="M969.89,865c0,1.28-1.19,2.48-3.27,3.51-4.22,2.1-12.11,3.51-21.14,3.51s-16.93-1.41-21.15-3.51c-2.08-1-3.27-2.23-3.27-3.51,0-3.87,10.93-7,24.42-7S969.89,861.15,969.89,865Z"/><path class="cls-16" d="M966.62,868.53c-4.22,2.1-12.11,3.51-21.14,3.51s-16.93-1.41-21.15-3.51c4.22-2.1,12.11-3.51,21.15-3.51S962.4,866.43,966.62,868.53Z"/><g id="Camada_3" data-name="Camada 3"><path class="cls-17" d="M1198.07,0V297.54c-20.79,33.47-62.66,56.33-110.89,56.33A142.89,142.89,0,0,1,1022,338.53c-.89.45-1.8.89-2.71,1.32A125.29,125.29,0,0,1,966,351.48c-33.87,0-64.12-12.93-84.09-33.21C861.43,330.08,836.58,337,809.8,337a146.72,146.72,0,0,1-60.47-12.76,132.71,132.71,0,0,1-51.14,10.05c-24.65,0-47.48-6.51-66.17-17.58A144.14,144.14,0,0,1,573.2,329c-28.93,0-55.57-8.21-76.75-22-27.09,32-71.72,52.9-122.19,52.9A172.12,172.12,0,0,1,301.18,344c-15.24,13-36.46,21-59.92,21a95.79,95.79,0,0,1-45.36-11.11c-.89-.48-1.77-1-2.64-1.48a154.74,154.74,0,0,1-67.72,15.23C68.52,367.61,19.77,338,0,296.24V0Z"/><path class="cls-12" d="M208.11,347.15c-1.7,1.05-3.42,2.05-5.16,3q-3.48,1.94-7,3.68a159.65,159.65,0,0,1-43.35,13.93,165.81,165.81,0,0,1-52,.67,158.2,158.2,0,0,1-45-13.49A136.2,136.2,0,0,1,19.7,330.34a114.59,114.59,0,0,1-19.7-25V293.21c1.65-.3,3.59,0,4.35,1.59.66,1.38,1.4,2.87,2,4A114.29,114.29,0,0,0,31.21,330a127.16,127.16,0,0,0,16.31,12.21,141.47,141.47,0,0,0,19,10.06c2.89,1.26,6.39,2.63,9.78,3.81s7.1,2.32,10.7,3.29,7.38,1.83,11.11,2.54l1.51.27.52.1.1,0h.14l2.82.45q2.88.43,5.78.76,5.88.66,11.8.89c4.39.17,8,.17,12,0,4.42-.18,8.84-.54,13.23-1.09,2.16-.26,4.31-.58,6.46-.93l1.7-.29.11,0,.15,0,.13,0,.34-.07c1.06-.2,2.11-.41,3.16-.63,4.15-.88,8.27-1.93,12.33-3.15q3-.9,6-1.92c.14-.05.28-.09.41-.15l.06,0,.13,0,.09,0,.1,0h0l1.37-.5c1-.36,1.93-.73,2.89-1.11,3.79-1.51,7.53-3.17,11.18-5a110.23,110.23,0,0,0,9.9-5.48c1.69-1,4.35-1.8,6.2-.66S209.53,346.28,208.11,347.15Z"/><path class="cls-12" d="M191.93,354.12A97.53,97.53,0,0,0,237,366.87a100.23,100.23,0,0,0,45.35-8.76,87.54,87.54,0,0,0,20.41-12.93A2.22,2.22,0,0,0,303,342a2.6,2.6,0,0,0-3.43.19,86.23,86.23,0,0,1-36.86,17.95,97.39,97.39,0,0,1-45.23-.69,89.8,89.8,0,0,1-22.88-9.35c-2.41-1.4-5.34,2.5-2.67,4.05Z"/><path class="cls-12" d="M509.73,276.76a124.81,124.81,0,0,1-29.24,39.37,151.07,151.07,0,0,1-43.93,27.35,160.7,160.7,0,0,1-25.84,8.12,176.44,176.44,0,0,1-28.39,4c-1.19.07-2.38.13-3.57.17l-.8,0h-.42l-2.2.05c-2.53,0-5,0-7.58,0q-7.9-.21-15.76-1.1-4-.47-7.9-1.09c-1.23-.2-2.46-.41-3.69-.64l-.82-.15c.67.13,0,0-.13,0l-2-.41c-5-1-9.95-2.3-14.83-3.78-2.38-.72-4.73-1.49-7.07-2.32-1.13-.4-2.25-.81-3.38-1.23l-.7-.27c-.68-.26-1.36-.53-2-.81q-6.72-2.73-13.17-6.06-3.18-1.63-6.28-3.42c-.22-.13-.45-.25-.66-.39,1,.65.25.15,0,0-.49-.3-1-.6-1.48-.89-1.08-.67-2.16-1.34-3.23-2q-5.86-3.8-11.35-8.11l-1.17-.93-.35-.29-.2-.17c-.9-.75-1.8-1.51-2.68-2.29-1.47-1.27-4.21-3.05-6.2-1.86s-.34,3.88.83,4.91a163.85,163.85,0,0,0,52.22,30.41,181.51,181.51,0,0,0,120.34.25A154.57,154.57,0,0,0,482.8,327,129.52,129.52,0,0,0,515.18,288c1-1.83,1.89-3.69,2.76-5.56.93-2-.82-4.15-2.46-5.23-1.09-.72-4.81-2.51-5.75-.49Z"/><path class="cls-12" d="M632.66,319.9l-1.46.64a146.15,146.15,0,0,1-29.48,9.15,155,155,0,0,1-59.14.17,140,140,0,0,1-45-16.93C496,312,494.41,311,492.87,310c-2.08-1.35-.55-4.13.71-5.4,1.54-1.55,4.47-2.6,6.46-1.31,1.23.8,2.45,1.57,3.67,2.3A123.2,123.2,0,0,0,525.19,316,142.72,142.72,0,0,0,551,322.86c3.82.65,8.64,1.22,13,1.53q7.07.51,14.17.36c2.47-.05,4.94-.17,7.4-.34l1.15-.09.69-.05.45,0,.68-.06c1.21-.12,2.42-.26,3.62-.41,4.68-.57,9.33-1.37,13.92-2.4q3.45-.77,6.85-1.71l1.89-.53.14,0,.25-.08h0l.26-.08c1-.32,2.07-.65,3.1-1q2.71-.9,5.39-1.92c2.49-.94,5-2,7.39-3a4.82,4.82,0,0,1,1.83-.41l.12.07.76.45c.56.32,1.13.65,1.7,1l.72.4a1.21,1.21,0,0,1,.05.18C637.05,317,634.59,319,632.66,319.9Z"/><path class="cls-12" d="M753.42,322.76a7.22,7.22,0,0,0-2-2.17,5.84,5.84,0,0,0-2.28-1h0a3.39,3.39,0,0,0-2,.18c-2.76,1.14-5.54,2.19-8.37,3.14h0q-5.46,1.85-11.07,3.19-5,1.2-10.09,2c-1.1.17-2.66.39-4.3.58q-2.73.33-5.48.54a138.26,138.26,0,0,1-20.25.08c-.66,0-1.31-.09-2-.15l-1.18-.1-.42,0-.25,0c-1.45-.15-2.89-.33-4.33-.53q-4.38-.6-8.71-1.5c-2.84-.58-5.65-1.26-8.45-2-1.32-.36-2.63-.75-3.94-1.15l-2.12-.68L656,323l-.07,0h-.06l-.08,0h0l-.08,0h0l-.09,0-.62-.23a122.75,122.75,0,0,1-15.68-6.77c-.92-.47-1.83-1-2.73-1.46l-.72-.4c-.57-.31-1.14-.64-1.7-1l-.76-.45-.12-.07-.61-.32.1,0a33.58,33.58,0,0,1-3-1.94c-1.16-.77-2.32-1.56-3.45-2.37q-3.24-2.31-6.3-4.85c-1-.84-2-1.69-3-2.56l-1.38-1.26a8.28,8.28,0,0,1-.75-.7,1,1,0,0,1,.14.19c-.14-.16-.3-.36-.39-.44a99.29,99.29,0,0,1-11.34-13.15c-.3-.42-.68-.85-1-1.3v0l-.09-.16v0l-.06-.12,0,0c-.22-.32-.43-.64-.64-1-.77-1.19-1.51-2.4-2.23-3.63-1.45-2.49-2.77-5.05-4-7.67-1-2.1-4-3.82-6.3-3s-2.86,3.25-1.87,5.4C595,291,608.3,305.32,624,316q3.53,2.4,7.2,4.55l1.76,1c21.58,12.16,46.82,17.65,71.5,16.74a136.07,136.07,0,0,0,45.86-9.62l1.23-.5A3.69,3.69,0,0,0,753.42,322.76ZM632.53,312.18c-.14-.06-.18-.09,0,0Z"/><path class="cls-12" d="M714.86,305.75a133,133,0,0,0,39.49,24.63,153.16,153.16,0,0,0,97.59,5.45A138.36,138.36,0,0,0,893,316.91a117.32,117.32,0,0,0,30.09-29.57c.95-1.39,1.88-2.79,2.77-4.22,1.23-2,.38-4.78-1.06-6.45-1-1.15-3.8-3.24-5.09-1.17a110.57,110.57,0,0,1-27.37,29.66,133.44,133.44,0,0,1-38.59,19.9,143.44,143.44,0,0,1-21.91,5.2,151.62,151.62,0,0,1-24.07,1.83,145.86,145.86,0,0,1-47.95-8.2c-.88-.31-1.75-.62-2.62-.95l-1.48-.56-.55-.22c-.09,0-.88-.35-.35-.13q-2.73-1.11-5.41-2.32-5.19-2.37-10.18-5.16c-3.32-1.86-6.56-3.87-9.69-6-.23-.15-1.16-.8-.47-.32l-1.08-.76-2.26-1.66c-1.48-1.13-2.94-2.28-4.37-3.47s-2.81-2.39-4.17-3.63-4-1.7-4.65.52.61,5,2.32,6.54Z"/><path class="cls-12" d="M1064.17,308.78c-.84,1.22-1.7,2.41-2.59,3.59a100.6,100.6,0,0,1-27.27,24.49c-.93.58-1.88,1.14-2.83,1.69q-4.05,2.35-8.29,4.36A122.57,122.57,0,0,1,998,351.63a130.31,130.31,0,0,1-42.55,2.51,127.68,127.68,0,0,1-40.8-11.25,118.24,118.24,0,0,1-30.41-20.49c-1.16-1.07-2.3-2.18-3.41-3.3-.45-.46-3.6-3.6-2.5-4.6s4,1.67,4.67,2.38q1.65,1.67,3.37,3.27l.41.38h0l.15.14a.15.15,0,0,1,.07.07h0l.07.07.31.26,1.67,1.43c1.22,1,2.47,2,3.73,3l.08.06h0l0,0,0,0,0,0,0,0h0l0,0,0,0,0,0h0l0,0,0,0h0l0,0,0,0,.85.61c.6.44,1.21.87,1.82,1.29q2,1.38,4.07,2.67l1.12.69.49.3.08.05.05,0,0,0h0l0,0h0l0,0,.13.08.49.28,1.15.66q2.08,1.15,4.21,2.24c2.77,1.41,5.85,2.82,8.55,3.91a123.71,123.71,0,0,0,40.27,8.7,129.13,129.13,0,0,0,40.84-4.57,117.94,117.94,0,0,0,21.32-8.28c.51-.25,1-.51,1.51-.78a110.8,110.8,0,0,0,11.48-6.94,98.5,98.5,0,0,0,25.18-25c.82-1.19,4.18,1.92,4.67,2.38C1062.48,305,1065.07,307.47,1064.17,308.78Z"/><path class="cls-12" d="M1198.07,293.22v12.69a114,114,0,0,1-22.53,23.48c-19.72,15.48-44.13,24.75-69,27.63-28.37,3.29-57.8-1.28-83.4-14.11l-1-.49a7.81,7.81,0,0,1-2.93-2.57,6.44,6.44,0,0,1-1.14-3.21,2.75,2.75,0,0,1,.68-2.09c.51-.25,1-.51,1.51-.78a2.69,2.69,0,0,1,1.45.3q4.8,2.46,9.69,4.48a135.85,135.85,0,0,0,35,9.33c25.64,3.35,52.88-.1,76.39-10.57a126.2,126.2,0,0,0,29.87-18.53q3.33-2.79,6.45-5.83c2.1-2.05,3.54-3.58,5.32-5.6a104.72,104.72,0,0,0,10.06-13.55C1195.44,292.47,1196.84,292.63,1198.07,293.22Z"/></g><g id="Camada_4" data-name="Camada 4"><path class="cls-18" d="M1198.07,0V193.69c-23.91,29.12-67.24,48.57-116.72,48.57a180.43,180.43,0,0,1-43.72-5.29c-1.48.84-3,1.67-4.49,2.47-28,15-62.36,23.77-99.54,23.77-56.51,0-106.58-20.36-137.5-51.68-35.48,19.32-79.32,30.73-126.78,30.73A281.2,281.2,0,0,1,593.14,232a216.47,216.47,0,0,1-78,14.15,221.15,221.15,0,0,1-61.2-8.47c-25.79,11.85-56.55,18.62-89.17,18.62-41.78,0-80-11.22-109.45-29.82-33.09,22.82-77.51,36.78-126.35,36.78C78.8,263.21,33.35,248.5,0,224.62V0Z"/><path class="cls-19" d="M1198.07,191.38v8a134,134,0,0,1-38.34,27.39,180.35,180.35,0,0,1-54.57,16.31,193,193,0,0,1-59.15-.94c-4.32-.76-8.62-1.67-12.87-2.73a162.1,162.1,0,0,1-38.06-14.69c-13.86-7.54-26.54-17.43-36.48-29.74-1.43-1.77,2.1-3.25,3.33-3.75a13.77,13.77,0,0,1,4.53-1c.63,0,2.49-.06,3,.58Q971.17,193,973,195a125.26,125.26,0,0,0,36.82,27.62,152.73,152.73,0,0,0,23.66,9.44q6.26,1.94,12.63,3.37c1.17.27,2.35.52,3.54.76l1.46.3h.12l1,.18q3.32.6,6.66,1.08c4.6.66,9.23,1.15,13.86,1.45q3.49.24,7,.33l.62,0h.47l1.71,0c1.15,0,2.29,0,3.44,0q7.1-.08,14.17-.7l1.87-.17.25,0,.11,0h.12l.16,0,.19,0,3.09-.37q3.46-.45,6.9-1c2.14-.36,4.28-.77,6.4-1.2l.45-.1h0l.11,0h.06l.11,0,1.57-.35c1-.24,2.07-.49,3.1-.75q3.27-.81,6.49-1.76l3.07-.93,0,0h0l.12,0,0,0,.09,0,.08,0,0,0,1.48-.49q6.06-2.06,12-4.6l.74-.32,0,0,.05,0,.06,0,0,0,.1,0,1.07-.49c.9-.42,1.8-.84,2.69-1.28,1.83-.89,3.64-1.81,5.42-2.78s3.44-1.91,5.14-2.9l.09-.06.08,0a.24.24,0,0,0,.09-.06.19.19,0,0,0,.09-.05l0,0,.46-.29,1.22-.76,2.4-1.55q4.83-3.21,9.36-6.83c.8-.65,1.6-1.3,2.39-2l.67-.58s0,0,0,0l0,0,.81-.71q2.08-1.86,4.07-3.82a105.89,105.89,0,0,0,7.51-8.2A7.85,7.85,0,0,1,1196,192,12.7,12.7,0,0,1,1198.07,191.38Z"/><path class="cls-19" d="M313.92,157.65c-.65,2.24-1.36,4.46-2.15,6.65-6.88,19.14-18.82,35.89-33.46,49.87-16,15.26-35.13,27-55.47,35.53a234.46,234.46,0,0,1-71.74,17.24,250.11,250.11,0,0,1-82.44-6.78c-24.44-6.29-48-16.41-68.66-31v-9a4.44,4.44,0,0,1,1.17.59q3.57,2.55,7.25,4.92A186.48,186.48,0,0,0,40.61,242.3a219,219,0,0,0,36.93,11.17,246.16,246.16,0,0,0,79.67,3.39,224.66,224.66,0,0,0,68.1-19.05,190,190,0,0,0,28.61-16.51c4.31-3,8.5-6.27,12.51-9.7a135.57,135.57,0,0,0,10.77-10.2,132.84,132.84,0,0,0,17.93-23.49c1.21-2,2.37-4.11,3.45-6.22s1.7-3.38,2.77-5.82a110.54,110.54,0,0,0,4.88-13.51c.68-2.35,3.33-2.28,5-1.13C313.19,152.56,314.6,155.29,313.92,157.65Z"/><path class="cls-19" d="M252,229c22.24,14,47.43,22.95,73.29,27.36a232.54,232.54,0,0,0,86.65-1.76,208,208,0,0,0,43.64-14.36c1.66-.76,3.27-2.88,2-4.64s-4.17-1.55-5.93-.74q-4.49,2.06-9.06,3.88l-1.94.76-1.16.45a3.29,3.29,0,0,1-.44.16c-1.58.57-3.16,1.14-4.75,1.68q-9.53,3.24-19.35,5.54-4.9,1.16-9.87,2.07l-2.61.47s-1.5.25-.57.1l-.88.14q-2.76.45-5.53.82c-7,.94-14,1.55-21.09,1.83a215.36,215.36,0,0,1-78.94-11.35,177.92,177.92,0,0,1-36.8-17.56,5.57,5.57,0,0,0-6.25.48c-1.35,1.14-2.34,3.46-.42,4.67Z"/><path class="cls-19" d="M379.18,201.18a170.78,170.78,0,0,0,49.7,32.38,212.64,212.64,0,0,0,62.8,16.17,231.39,231.39,0,0,0,67.22-2.84,202.21,202.21,0,0,0,58-20.39c16.31-8.84,31.48-20.31,43.6-34.41,1.39-1.61,2.73-3.26,4-4.94a5.25,5.25,0,0,0-.29-6.84c-1.51-1.55-4.68-2.66-6.33-.54A133,133,0,0,1,640,198.57c-1.68,1.47-3.41,2.9-5.16,4.29l-1.37,1.07-.61.47c.13-.1.68-.51,0,0-.93.7-1.88,1.39-2.83,2.08q-5.62,4-11.61,7.61a181,181,0,0,1-25.91,12.76c-1.12.44-2.24.88-3.37,1.3-.53.21-1.06.4-1.6.6l-1,.37a2.93,2.93,0,0,1-.32.11q-3.57,1.26-7.18,2.38-7.35,2.3-14.87,4a218.92,218.92,0,0,1-31.51,4.89c-5.7.47-10.21.68-15.82.72s-11.3-.11-16.93-.48a220.6,220.6,0,0,1-32.47-4.53c-1.19-.25-2.38-.52-3.56-.8.7.16-.24-.06-.41-.1l-.88-.22-2-.49q-3.91-1-7.79-2.17-7.39-2.22-14.59-5-7-2.72-13.8-6-1.53-.74-3-1.5c-.57-.28-1.13-.57-1.69-.86l-.74-.38c-.49-.25.55.3-.22-.12-2.2-1.18-4.37-2.39-6.52-3.66a157.2,157.2,0,0,1-22.83-16.28l-1.18-1c.8.69-.2-.19-.49-.45q-1.29-1.17-2.55-2.37c-1.66-1.57-4.54-2.59-6.33-.54a5.18,5.18,0,0,0,.29,6.84Z"/><path class="cls-19" d="M589.41,237a287.2,287.2,0,0,0,67.4,10.27,298,298,0,0,0,62.76-4.44,270.6,270.6,0,0,0,55.89-16.22,230.85,230.85,0,0,0,47.28-26.09,188.61,188.61,0,0,0,37.36-35.18c1.2-1.51,2.38-3,3.52-4.61a4.32,4.32,0,0,0,.85-3.9,4.26,4.26,0,0,0-3.26-2.32,10.71,10.71,0,0,0-9.89,3.82q-3.45,4.69-7.24,9.12-1.92,2.23-3.92,4.41c-.28.3-.85.87.44-.47l-.48.51-1,1c-.69.71-1.38,1.43-2.08,2.13a183.56,183.56,0,0,1-18.14,16c-.77.6-1.55,1.19-2.33,1.77l-1.18.88-.59.44c1.83-1.39.69-.51.3-.23q-2.57,1.85-5.17,3.61-5.24,3.52-10.66,6.72t-11.25,6.21l-2.77,1.4-1.4.69c2.37-1.19.27-.13-.31.15q-3,1.44-6.07,2.79A247.66,247.66,0,0,1,752.35,225c-1.11.36-2.22.7-3.33,1l-1.58.47c-.3.09-1.24.37,0,0s.06,0-.23.07q-3.39,1-6.8,1.86-6.81,1.75-13.71,3.17-7.11,1.46-14.3,2.53c-2.35.35-4.71.68-7.07,1-1.15.14-2.31.23-3.45.41,2.18-.34,0,0-.55.05l-2,.2a291.43,291.43,0,0,1-30.27,1.33c-5.66-.05-11.32-.25-17-.63-1.33-.08-2.66-.18-4-.29s0,0,.19,0c-.33,0-.66-.06-1-.09l-2.48-.23q-4.19-.41-8.36-.94a275.24,275.24,0,0,1-31.83-6c-2.59-.64-5.18-1.33-7.75-2a9.78,9.78,0,0,0-5.45.62,10,10,0,0,0-4.44,3.21c-.73,1.09-1.47,2.58-.85,3.9a4.49,4.49,0,0,0,3.26,2.32Z"/><path class="cls-19" d="M789.56,212.73a161.29,161.29,0,0,0,36.88,27.41,202.37,202.37,0,0,0,46.75,18.41,239.92,239.92,0,0,0,55.46,7.67,242.5,242.5,0,0,0,58.91-5.76,209.63,209.63,0,0,0,51-18.58c1.85-1,3.68-2,5.5-3a1.73,1.73,0,0,0,.88-2.32c-.54-1-2.35-1.73-3.35-2-3.17-.88-7.32-1.14-10.3.56q-5.31,3-10.81,5.7l-1.43.69-.85.4-.86.39-1.65.74c-1.92.84-3.85,1.66-5.79,2.44a210.66,210.66,0,0,1-24.48,8.1c-.33.08-1.1.35.3-.08-.27.08-.55.14-.82.21l-1.45.36c-1.11.27-2.22.53-3.34.78q-3.26.75-6.54,1.39-6.66,1.29-13.4,2.19l-1.75.22-.66.08c-.93.12,1.4-.16.48-.06-1.18.14-2.36.27-3.55.38q-3.46.35-6.93.59-7.05.48-14.11.54H931.8l-3.47-.06q-3.35-.07-6.69-.25c-2.21-.11-4.41-.26-6.62-.44-1.06-.08-2.11-.18-3.17-.28l-1.48-.14-.84-.09c-.91-.09,2,.23.52.06-4.29-.5-8.57-1.09-12.83-1.82q-3.15-.53-6.28-1.16l-3-.63-1.39-.31c-.27-.06-1.19-.27-.11,0s-.14,0-.3-.07a209.43,209.43,0,0,1-23.67-7l-1.28-.47.4.15-.55-.21-2.88-1.13q-2.86-1.14-5.68-2.38-5.38-2.34-10.6-5-2.49-1.29-4.93-2.64l-2.42-1.37-1.27-.74-.48-.28c-1.09-.64,1,.59-.12-.07q-4.73-2.86-9.28-6A153.29,153.29,0,0,1,806.45,214c-1.29-1.21-2.55-2.45-3.79-3.7-1-1-3.18-1.44-4.41-1.65a16.27,16.27,0,0,0-5.78,0c-2.16.46-5.22,1.71-2.91,4Z"/></g><path class="cls-5" d="M1198.07,949.27v466.29H841.17c68.54-36.19,81.59-191.09,81.59-191.09,13,99.82,33.31,110.46,33.31,110.46,90-227.75,1.56-317.34,108.7-555.77,11.18,133.89,77.14,213.89,77.14,213.89,26.6-52.89,29.8-117.46,29.8-117.46S1183.87,902.68,1198.07,949.27Z"/><path class="cls-5" d="M1198.07,949.27v130.26q-4.38-25.6-10.11-51.09c-3.35-14.9-6.85-28.86-10.35-41.76-2.67,6.68-5.62,13.33-8.9,19.85L1148,1047.64l-29.27-35.5c-2.09-2.54-37.81-46.6-62.44-123-19.22,69.32-40.91,125.49-42.68,183.91-2.36,78.35,15.19,159.37-29.67,272.88L971.69,1377s-31.09,4-45.31-30.45q-15.82,43.11-38.41,69h-46.8c68.54-36.19,81.59-191.09,81.59-191.09,13,99.82,33.31,110.46,33.31,110.46,68.19-172.53-28.14-251.25,108.7-555.77,11.18,133.89,77.14,213.89,77.14,213.89,26.6-52.89,29.8-117.46,29.8-117.46S1183.87,902.68,1198.07,949.27Z"/><path class="cls-6" d="M1198.07,1079.53v336H888q22.53-25.82,38.41-69C940.6,1381,971.69,1377,971.69,1377L984,1346c44.86-113.51,27.31-194.53,29.67-272.88,1.77-58.42,23.46-114.59,42.68-183.91,24.63,76.38,60.35,120.44,62.44,123l29.27,35.5,20.68-41.11c3.28-6.52,6.23-13.17,8.9-19.85,3.5,12.9,7,26.86,10.35,41.76Q1193.69,1053.9,1198.07,1079.53Z"/></g><g id="Camada_5" data-name="Camada 5"><path class="cls-20" d="M802.3,738.38l0,0c3.62,1.38,6.48,6.5,7.06,13.82C808.8,744.53,806.19,739.41,802.3,738.38Z"/><path class="cls-20" d="M887.08,1115.28l-.28-.63c0-.06,0-.12-.07-.17s-.06-.14-.07-.18c-.5-1.29-1-2.68-1.59-4.16a228.58,228.58,0,0,1-7.73-24.76c-2.83-11.55-5-19.25-7-26.7-2.31-8.37-4.51-16.29-7.31-28.48a7.1,7.1,0,0,1-.85.79,5.47,5.47,0,0,1-3.5,1.31,6,6,0,0,1-1.29-.15,10.28,10.28,0,0,1-6.42-4.09c-.1.21-.19.41-.28.62-1.82,4.14-3.55,8-4.33,10.45s-3.47,4.14-7,4.29h-.51a10.87,10.87,0,0,1-9.28-4.81c-1.43,5.33-2.81,9.81-8,9.81-8,0-12.56-4.16-12.88-11.72-.15-3.62.76-6.92,1.82-10.74.7-2.51,1.44-5.2,2-8.38-2-4.45-4.61-6.81-8.27-7.45a17.18,17.18,0,0,0-4,5.9l-.18.47-.82-.3-.12,0s0-.1,0-.14c-2-5.32-7.6-15.72-8.34-17.09l-.08-.15.88-.48.07.13a71.5,71.5,0,0,0-1.88-22.25c.34-.42,3.06,10.55,3.06,10.55,9.63-1.19,18.65-19.87,18.65-19.87,5.39,3.73,12.49,14,12.49,14a26.55,26.55,0,0,0,2.15-17.06,42.1,42.1,0,0,0,14.9,4.13l-5.62-4.55.52.08h0l3.13.51h0a44.42,44.42,0,0,0,10.11.71l-1.54-.89c-9.21-1.52-14.37-5-21.5-8.67-9.35-4.75-19-9.66-35.4-11.13-.12-6.2-.65-22.3-3-46.49-1.68-17.23-5.84-34.79-11.41-48.27a35,35,0,0,0,15.24-22c6.64-4.15,13.68-13.13,15.27-24.36.09-.62.17-1.24.22-1.87,7-7.28,10.65-20.37,9.72-28.1-.86-7-.81-7.07,1.48-10,.56-.7,1.26-1.58,2.1-2.75,8.79-12.21,12.24-40-.8-53.85,6.31-6.79,9.49-17.82,8.52-29.63-.87-10.62-5-19.91-10.76-24.36,1.23-15.08-8.24-31.42-22.68-39.12,10.57-21.35,10.74-43.11,8.34-59.36A134.46,134.46,0,0,0,799,535.38a124.83,124.83,0,0,0-8.94-22.58l-.85-1.55-.08,1.77c-.43,8.86-11.72,23.75-36,37.05a60.2,60.2,0,0,1-6.31,3c-.88.37-1.76.71-2.64,1a28.9,28.9,0,0,0,2.71-15.9c0-.26,0-.52-.08-.77a40.76,40.76,0,0,0-3.84-13l-.44-.81-.44.81c-1.09,2-5.48,8.74-17.48,15-1.46.76-3,1.52-4.73,2.26-8.05,3.5-18.83,6.62-33.16,8.35a100.19,100.19,0,0,0-48.4,19l-1,.78,0-1a30.91,30.91,0,0,0-4.17-14.94,22.72,22.72,0,0,0-1.47-2.16,25.08,25.08,0,0,0-7.83-6.75c-.76-.43-1.51-.81-2.24-1.14a27.75,27.75,0,0,0-8.17-2.32l-.78-.06.27.74c7.34,19.35-2.59,32.13-16.32,46.83q-1.57,1.68-3.12,3.56c-12.71,15.41-23.18,40.05-14.6,64.19-13.52,8.22-23.2,20.38-27.26,34h0a49,49,0,0,0-1.34,5.6c-2.16,12.1.47,23.59,7.42,32.38-4.33,11.06-4.39,24.51.06,37.61a61,61,0,0,0,16.74,25.87q.6.56,1.23,1.08c.4,20.43,15.64,41.06,30.57,50.91,14.76,9.75,23.85,34.24,20.23,41.84l.26.52a28.75,28.75,0,0,0,11.94-3.16,194.34,194.34,0,0,0,2.17,31.14c1.88,13,3.32,21.87,4.65,28.69-22.92,4.34-63.81,18.44-84,64.08-11.8,26.64-7.45,52.6-1.73,69.69,7.32,21.84,19.74,37.7,28.81,43.74,4.54,3,7.24,8,8,15,1.09,9.53-1.67,22-7.11,34.67a128.15,128.15,0,0,1-23.72,36.56c-7,7.44-14,19.84-12.49,32.33,1.18,9.82,7.26,18.37,18.08,25.42a37.72,37.72,0,0,0,20.78,6.33,39,39,0,0,0,9.57-1.21c13.7-3.45,24.6-13.52,28.93-21.42a184.16,184.16,0,0,0,14.33-35.45,192.22,192.22,0,0,0,7.5-40.87c1.64-24.06-1.68-57.1-26.8-77.82-22.64-18.68-41.8-40.36-28.76-72.28a54.93,54.93,0,0,1,6.86-12.21c13.81-18.42,36.53-22.55,54.71-22.42,3.8,13.11,13.13,22.38,28.17,28.15A187.6,187.6,0,0,1,717.45,1031c1.07.68,2.09,1.35,3,2l-.88,1.4-.81,1.23q-1.34,2-2.78,4.07c-17.32,24.16-32.63,60.13-40,77.41-2,4.65-3.41,8-4.14,9.42-3.44,6.62-12,14.8-12.13,14.89l-.31.29.23.34a31.1,31.1,0,0,0,4,4.94c.26.26.51.51.78.75a43,43,0,0,0,13.13,8.14c7.54,11.76,23.34,18.51,23.34,18.51.21-3.19,1.22-9.78,1.22-9.78,13.8,4.89,15.14,13.81,15.14,13.81,8-6,9.29-13,9.44-16.18l2.18-.08c8.38,6.55,14.08,16.26,14.08,16.26a23,23,0,0,0,9.76-16.19,23.06,23.06,0,0,1,2.9.74,24.83,24.83,0,0,0,4.22,2.82,31.74,31.74,0,0,0,9.25,3.2s-6.2-6.45-9.39-12.27a226.34,226.34,0,0,1,5.68-22.41c6.81-22.73,17.08-48.88,24.83-68.55.15,1.93.39,5,.7,8.83.87,10.84,2.24,27.39,3.45,38.94.73,7,2.35,15.15,4.06,23.78,2.92,14.72,5.94,29.94,5.45,43l.75.45s2.29-1.31,6-3.93l1-.72h0a141,141,0,0,0,16.47-14.19c2.52-2.52,5.06-4.8,7.5-6.84,13.68-5.1,29.41-5.32,29.41-5.32s-3.5-6.07-15.15-4.94c0,0,15.34-3.19,20.58-6.94a9.69,9.69,0,0,1-6-2.38c7.08-5.54,15-13,22.15-19.79ZM746.82,820.15l-.25,0-1.67.22-.43.06-.32,0-.35,0A182.47,182.47,0,0,1,721.56,822,136.54,136.54,0,0,1,685,817.26c-.12,0-.23-.06-.35-.09l-.22-.06L684,817a96.16,96.16,0,0,1-20.27-8.26l-.48-.26c-1-.56-2-1.14-2.94-1.73h0c-16.81-10.41-24.93-24.23-24-35,1.58-17.5,13.5-21,17.67-21.67l-13.53-8.73,0-.22c-.08-.47-7.21-47.11,15.19-74C665.7,655,680.31,648.6,699,648.18l1.55,0c35,0,46.59,27.21,49.31,35.57,1.2-7.49,7.14-29.27,35.51-28.7,5.53.11,12.78,8.2,15.55,14a5.22,5.22,0,0,1,.33,4.1,6.28,6.28,0,0,1-3,3.26c6.08,4,9.19,10.69,10.79,16.48,4.61,16.73-.46,38.87-7.38,45.39a4.36,4.36,0,0,1,.58.19l0,0c3.89,1,6.5,6.15,7,13.84,0,.48.06,1,.08,1.49.56,16.47-8.27,41.43-32,55.91A79,79,0,0,1,746.82,820.15Z"/><path class="cls-21" d="M809.42,753.71c0-.51,0-1-.08-1.49-.54-7.69-3.15-12.81-7-13.84l0,0c-.22.2-.29-.14-.53,0l0,.16s0-.11,0-.09l-.28.08-.56.42c-3.11,2.21-9.62,4.52-16.86,6.22a80.72,80.72,0,0,1-8,1.44,3.64,3.64,0,0,0-.53-.44c-3.76-3-8.5-4.29-13.18-4.64a5.46,5.46,0,0,0-.56,0c-.09-.22-.17-.43-.25-.65-3.8-9.84-4.31-21.2-2.57-31.71.07-.44.14-.86.23-1.29s.16-.85.26-1.27c1.79-8.85,5.18-17,9.51-22.82A34.67,34.67,0,0,1,773,679a26.63,26.63,0,0,1,3.22-2.64l.56-.38c.31-.21.62-.4.93-.58.61-.35,1.23-.67,1.85-1a21.86,21.86,0,0,1,2.11-.82,4.33,4.33,0,0,1,.7-.21c.32-.09.63-.16,1-.23s.63-.13.95-.18.49-.07.73-.09l.55-.05.6,0c.42,0,.84,0,1.26,0s.63,0,.94.06a21.75,21.75,0,0,1,8.92,2.8c.34.18.67.39,1,.6a6.28,6.28,0,0,0,3-3.26,5.22,5.22,0,0,0-.33-4.1c-2.77-5.75-10-13.84-15.55-14-28.37-.57-34.31,21.21-35.51,28.7-2.72-8.36-14.27-35.57-49.31-35.57l-1.55,0c-18.69.42-33.3,6.8-43.42,18.94-22.4,26.86-15.27,73.5-15.19,74l0,.22L654,750a20.19,20.19,0,0,0-15.44,12.31,30.93,30.93,0,0,0-2.23,9.36c-1.35,15,14.9,35.89,47.67,45.27l.67.19c.12,0,.23.07.35.09A136.54,136.54,0,0,0,721.56,822a182.47,182.47,0,0,0,22.24-1.41l.35,0,.75-.1,1.67-.22.25,0c19.28-2.68,33.4-10.59,43.29-20.54C804.36,785.32,809.86,766.82,809.42,753.71ZM678.23,717.35c1.15-19.22,10-34.39,20-34.39a5.82,5.82,0,0,1,.59,0c10.2.61,17.53,17,16.35,36.58-1.15,19.21-10,34.39-20,34.39l-.58,0C684.38,753.32,677.06,736.94,678.23,717.35Z"/><path class="cls-22" d="M808.61,692.64C807,686.9,804,680.26,798,676.31c-.32-.21-.64-.42-1-.6a21.47,21.47,0,0,0-8.78-2.77c-6.83-.69-13.66,3.14-19.25,10.77-9.77,13.34-15.21,38.24-7.6,57.19.35,0,.72,0,1.08.06,4.61.35,9.28,1.62,13,4.6.35.28.68.56,1,.88a71.79,71.79,0,0,0,7.54-1.39c7.13-1.68,13.9-4.26,17-6.45l0,0,.15-.11.07-.05h0a5.9,5.9,0,0,0,.72-.63C808.75,731.32,813.15,709.21,808.61,692.64Zm-.14,21.46a55.09,55.09,0,0,1-4.76,19.83,0,0,0,0,1,0,0,12.76,12.76,0,0,1-3,3.64l-.14.11,0,0c-2.88,2.11-9.5,4.64-16.53,6.31l-.19.05-1.13.26c-6.94-5-11.14-18.07-10.28-32.41,1.11-18.48,10.1-33,20.06-32.43S809.58,695.62,808.47,714.1Z"/><path class="cls-23" d="M806.84,715c-.42,7.29-1.43,12.94-4,18.57,0,0-1,1.93-1,1.93-.9,1.58-1.43,2.51-1.76,3.13l-.22.54,0,0c-2.77,2.12-9.06,4.22-15.83,5.9l-.18,0-.14,0h0l-.15,0c-7.31-4.8-11.52-18-10.69-32.32,1.07-18.53,9.73-33.12,19.31-32.52S807.9,696.47,806.84,715Z"/><path class="cls-24" d="M803.33,714.14c-.71,11.81-5.44,21.16-10.63,21.16h-.25c-5.05-.3-8.64-9.37-8.36-20.58a4.44,4.44,0,0,0,1,.91,3.88,3.88,0,0,0,1.55.67,3.81,3.81,0,0,0,.75.07c1.72,0,3.52-1.12,5.12-3.23a22.23,22.23,0,0,0,3.82-9.18,21.28,21.28,0,0,0-.41-10.91,11.05,11.05,0,0,0-.5-1.15C800.51,692.63,804,702.43,803.33,714.14Z"/><path class="cls-25" d="M796.32,704a22.23,22.23,0,0,1-3.82,9.18c-1.6,2.11-3.4,3.23-5.12,3.23a3.81,3.81,0,0,1-.75-.07,3.88,3.88,0,0,1-1.55-.67,4.44,4.44,0,0,1-1-.91,9.22,9.22,0,0,1-1.72-3.54,22.32,22.32,0,0,1-.12-9.94c1.48-7.68,5.75-13.1,9.69-12.34a5.16,5.16,0,0,1,3.47,3,11.05,11.05,0,0,1,.5,1.15A21.28,21.28,0,0,1,796.32,704Z"/><path class="cls-26" d="M772.28,757.22c-.79,1.74-2.73,3.89-4.13,4.17l-.33,0a3.64,3.64,0,0,1-2.48-1.46,3.52,3.52,0,0,1-.91-3.25c.62-1.59,3.5-3,5.57-3.15,1.53-.12,2.19.44,2.47.93A3,3,0,0,1,772.28,757.22Z"/><path class="cls-26" d="M747.43,760.75a4.63,4.63,0,0,1-3.41,2,2.28,2.28,0,0,1-.45,0,12.71,12.71,0,0,1-7.15-5.44,2.51,2.51,0,0,1-.14-2.37c.48-.91,1.63-1.39,3.31-1.39h0c3,0,7.35,1.58,8.4,3.58A3.48,3.48,0,0,1,747.43,760.75Z"/><path class="cls-22" d="M729.09,713.24A62.68,62.68,0,0,0,722.9,699c-4.69-7.91-15.14-21-32.51-20.11-9,.49-17.9,9.45-24,24A70.15,70.15,0,0,0,661,728.66c0,6.89,1.44,13.24,4.92,17.81l.85,1c4.45,5,17.37,7.25,29.88,7.25,3,0,5.92-.13,8.72-.37,11.64-1,19.72-3.88,22.14-7.84C732.4,738.54,732.78,725.74,729.09,713.24Zm-14.2,6.29c-1.13,19-9.89,33.94-19.72,33.94l-.57,0c-8.7-.52-15.27-12.68-16.14-28.46a65,65,0,0,1,0-7.64c1.13-19,9.9-34,19.72-34a5.62,5.62,0,0,1,.58,0c7.72.46,13.77,10.1,15.63,23.31A63.84,63.84,0,0,1,714.89,719.53Z"/><path class="cls-23" d="M698.83,683a5.82,5.82,0,0,0-.59,0c-10,0-18.86,15.17-20,34.39-1.17,19.59,6.15,36,16.36,36.58l.58,0c10,0,18.86-15.18,20-34.39C716.36,700,709,683.59,698.83,683Zm7.46,36c-.71,11.8-5.43,21.15-10.62,21.15h-.26c-5.17-.3-8.83-9.84-8.32-21.48a9,9,0,0,1-1.86-3.68,22.62,22.62,0,0,1-.12-9.94c1.49-7.69,5.75-13.1,9.69-12.34,1.77.34,3.13,1.86,4,4.12C703.65,698,707,707.62,706.29,719Z"/><path class="cls-25" d="M699.19,707.79a22.48,22.48,0,0,1-3.82,9.18c-1.61,2.11-3.4,3.23-5.12,3.23a3.81,3.81,0,0,1-.75-.07,3.87,3.87,0,0,1-1.44-.6,4.47,4.47,0,0,1-1-.84,9,9,0,0,1-1.86-3.68,22.62,22.62,0,0,1-.12-9.94c1.49-7.69,5.75-13.1,9.69-12.34,1.77.34,3.13,1.86,4,4.12q.19.55.36,1.17A22.6,22.6,0,0,1,699.19,707.79Z"/><path class="cls-24" d="M706.29,719c-.71,11.8-5.43,21.15-10.62,21.15h-.26c-5.17-.3-8.83-9.84-8.32-21.48a4.47,4.47,0,0,0,1,.84,3.87,3.87,0,0,0,1.44.6,3.81,3.81,0,0,0,.75.07c1.72,0,3.51-1.12,5.12-3.23a24.78,24.78,0,0,0,3.76-19q-.17-.62-.36-1.17C703.65,698,707,707.62,706.29,719Z"/><path class="cls-21" d="M865.76,1025.77a16.1,16.1,0,0,1-2.76,4.43,7.1,7.1,0,0,1-.85.79,5.47,5.47,0,0,1-3.5,1.31,6,6,0,0,1-1.29-.15,10.28,10.28,0,0,1-6.42-4.09c-.1.21-.19.41-.28.62-1.82,4.14-3.55,8-4.33,10.45s-3.47,4.14-7,4.29h-.51a10.87,10.87,0,0,1-9.28-4.81c-1.43,5.33-2.81,9.81-8,9.81-8,0-12.56-4.16-12.88-11.72-.15-3.62.76-6.92,1.82-10.74.7-2.51,1.44-5.2,2-8.38-2-4.45-4.61-6.81-8.27-7.45a17.18,17.18,0,0,0-4,5.9l-.18.47-.82-.3a1.34,1.34,0,0,0-.07-.18c-2-5.32-7.6-15.72-8.34-17.09l-.08-.15.88-.48.07.13a71.5,71.5,0,0,0-1.88-22.25c.34-.42,3.06,10.55,3.06,10.55,9.63-1.19,18.65-19.87,18.65-19.87,5.39,3.73,12.49,14,12.49,14a26.55,26.55,0,0,0,2.15-17.06,42.1,42.1,0,0,0,14.9,4.13l-5.62-4.55.52.08h0l3.13.51h0c5.53,3,8.65,5.38,9.76,6.71,1.66,2,12,17.64,13.93,20.79,1.35,2.26,2.11,7.52,2.79,12.15.32,2.23.62,4.33.94,5.58C867.62,1013.2,866.74,1023.59,865.76,1025.77Z"/><path class="cls-21" d="M795.65,1217a66.56,66.56,0,0,0-4.62-12.37,7.09,7.09,0,0,0-.39-.78c-4.69-9.14-10.78-15.14-16.72-21-5.28-5.21-10.3-10.16-14-17a24.83,24.83,0,0,1-4.22-2.82,23.06,23.06,0,0,0-2.9-.74,23,23,0,0,1-9.76,16.19s-5.7-9.71-14.08-16.26l-2.18.08c-.15,3.14-1.46,10.14-9.44,16.18,0,0-1.34-8.92-15.14-13.81,0,0-1,6.59-1.22,9.78,0,0-2.08-.89-5.09-2.58-5.29-3-13.45-8.44-18.25-15.93a43,43,0,0,1-13.13-8.14c-.27-.24-.52-.49-.78-.75-10.08,25.88-.93,39.4,10.48,50.16,1.47,1.39,2.14,4.18,3,7.72,1.59,6.71,4,16.78,14.4,26.52-.1.27-.19.54-.29.82a46.35,46.35,0,0,0-2.07,20.5c.91,6.47,3.85,15.3,12.74,20.66a29,29,0,0,0,15.07,4,36.62,36.62,0,0,0,22.49-7.91,25.23,25.23,0,0,0,8.46,1.38,29.4,29.4,0,0,0,22-9.7c5.71,0,12-3.81,17.2-10.49C793.67,1242.44,798.82,1228.79,795.65,1217Zm-103,14.39a2.77,2.77,0,0,1,.1-.26l0,0,.05,0Z"/><path class="cls-21" d="M975.51,1154h0a30.65,30.65,0,0,1-1.25,4.73,36.13,36.13,0,0,1-22.45,22,72.67,72.67,0,0,1-14.78,2.84c-4.9.57-9.14,1.07-11.81,2.94a58.7,58.7,0,0,0-6.77,6.21c-9.29,9.32-23.32,23.4-52,29a55.91,55.91,0,0,1-10.7,1.06,45.45,45.45,0,0,1-31-11.64,42.6,42.6,0,0,1-14.12-34.36l1-.72h0a141,141,0,0,0,16.47-14.19c2.52-2.52,5.06-4.8,7.5-6.84,13.68-5.1,29.41-5.32,29.41-5.32s-3.5-6.07-15.15-4.94c0,0,15.34-3.19,20.58-6.94a9.69,9.69,0,0,1-6-2.38c7.08-5.54,15-13,22.15-19.79l.46-.43-.28-.63c0-.06,0-.12-.07-.17s-.06-.14-.07-.18l2.35-2.25c4.56-4.36,8.5-8.12,11.39-10.6,5.31-4.56,19.69-9.76,31.79-7.26,7,1.46,12.11,5.18,15.06,11.07,13.87,1.41,22.14,10.23,22.71,24.24C976.14,1138.9,976.71,1147.49,975.51,1154Z"/><g id="Camada_6" data-name="Camada 6"><path class="cls-27" d="M777,836.81l-3.71,6.56-.08.15-.09-.1-.2-.23c-2.61-2.89-9.76-6.69-19.16-3.49-15.3,5.21-44.14,4.45-71.59-2.3-27.65-6.79-41.72,37.36-41.72,37.36,0-12.09,2.62-22.32,6.67-30.38l-.31.35s-5.13-1.15-7.64-3.86a44.3,44.3,0,0,0,10.57-3.49s-6.12-.2-10.57-10.32a28.94,28.94,0,0,0,23,0l0,0h0a25.43,25.43,0,0,1,7.09-3c13.76-3.36,15.48-7.35,15.48-7.35,30,9.12,59.34,3.31,59.34,3.31.52,2.84,11.57,8.13,17.14,10.21l.44.18,13.51-.49-5.92,7.2-.16.2.31,0Z"/><path class="cls-27" d="M769.41,837.28l-.31,0,.16-.2Z"/><path class="cls-27" d="M773.69,844.29a4.88,4.88,0,0,0-.6-.87l.09.1.08-.15C773.43,843.71,773.58,844,773.69,844.29Z"/><path class="cls-27" d="M769.18,1169a31.74,31.74,0,0,1-9.25-3.2,24.83,24.83,0,0,1-4.22-2.82,23.06,23.06,0,0,0-2.9-.74,23,23,0,0,1-9.76,16.19s-5.7-9.71-14.08-16.26l-2.18.08c-.15,3.14-1.46,10.14-9.44,16.18,0,0-1.34-8.92-15.14-13.81,0,0-1,6.59-1.22,9.78,0,0-15.8-6.75-23.34-18.51a43,43,0,0,1-13.13-8.14c-.27-.24-.52-.49-.78-.75a31.1,31.1,0,0,1-4-4.94l-.23-.34.31-.29c.08-.09,8.69-8.27,12.13-14.89.73-1.42,2.16-4.77,4.14-9.42,7.35-17.28,22.66-53.25,40-77.41q1.44-2,2.78-4.07l.81-1.23.88-1.4-.86-.58-.89-.59-1.3-.84a187.6,187.6,0,0,0-30.83-15.57c-15-5.77-24.37-15-28.17-28.15-18.18-.13-40.9,4-54.71,22.42l-.6-.13a67.37,67.37,0,0,1,33.18-28.86,111.83,111.83,0,0,0,17-8c.47,0,.72-.07.72-.07a18.72,18.72,0,0,0-3,9.83,25.34,25.34,0,0,1,8.83-4.35c5,12.83,20.88,25.27,33.64,29.92,15.88,5.79,32.57,16.58,32.57,16.58v0c-.61,1.57-39.17,102,39.33,109.61l.08.12a226.34,226.34,0,0,0-5.68,22.41C763,1162.58,769.18,1169,769.18,1169Z"/><path class="cls-27" d="M793,999.3s-29.17-13.42-73.41-17.09c-46.54-3.87-48.07-6.14-48.07-6.14a55.79,55.79,0,0,0-11.63,2,25.34,25.34,0,0,0-8.83,4.35,18.72,18.72,0,0,1,3-9.83s-.25,0-.72.07a23,23,0,0,1-13-3.58s4.09,0,6.21-.9A15.84,15.84,0,0,1,641,965s8.18-2.46,9.81-7.61c3.56,7.8,7,13.54,31.83,14.29,28.13.84,90.83,6.35,108.82,23.38Z"/><path class="cls-27" d="M886.62,1115.71c-7.15,6.83-15.07,14.25-22.15,19.79a9.69,9.69,0,0,0,6,2.38c-5.24,3.75-20.58,6.94-20.58,6.94,11.65-1.13,15.15,4.94,15.15,4.94s-15.73.22-29.41,5.32c-2.44,2-5,4.32-7.5,6.84a141,141,0,0,1-16.47,14.19h0l-1,.72c-3.67,2.62-5.91,3.9-6,3.93l-.75-.45c.49-13-2.53-28.24-5.45-43-1.71-8.63-3.33-16.79-4.06-23.78-1.21-11.55-2.58-28.1-3.45-38.94l.49-6.45c12.09,36.37,30.08,84.62,92.49,41.73l1.09.23c.56,1.48,1.09,2.87,1.59,4.16,0,0,0,.1.07.18s0,.11.07.17l.28.63Z"/><path class="cls-27" d="M773.09,885s2.39,41.29.16,59.3c0,0,29.57,10.68,26.22,26.24,0,0,5.58-1.7,10-11.68,0,0,11.53,8.5,16.8,5,0,0,1.87,9.2-2.15,17.06,0,0-5.5-8.58-12.49-14,0,0-6.35,16.26-18.65,19.87a134.57,134.57,0,0,0-4.29-13s-3.61-20-30.48-26.23C758.2,947.54,771.11,933.56,773.09,885Z"/><path class="cls-27" d="M644.94,1212.91a184.16,184.16,0,0,1-14.33,35.45c-4.33,7.9-15.23,18-28.93,21.42a39,39,0,0,1-9.57,1.21,37.72,37.72,0,0,1-20.78-6.33c-10.82-7.05-16.9-15.6-18.08-25.42-1.49-12.49,5.47-24.89,12.49-32.33a128.15,128.15,0,0,0,23.72-36.56l.48.17c-10.35,51.79,42.06,63.18,54.5,41.72Z"/><path class="cls-27" d="M587.24,599.48c-1,33.29,20.82,44.5,35.18,46.39,0,0-23.33-.92-43.6,10.88C578.82,656.75,566.63,623.38,587.24,599.48Z"/><path class="cls-27" d="M551.56,690.74c-1.84,18.26,4.33,29.2,10.87,29.92,0,0-3.24,5.14-3.84,8C558.59,728.63,545.11,715.65,551.56,690.74Z"/><path class="cls-27" d="M684.75,816.69a4.26,4.26,0,0,1-.35.42,16.13,16.13,0,0,1-6.82,4.33c-5,1.72-14.36,3.64-15.4,5.62s-15.1,4.69-23,0c0,0,4.5,9.12,10.57,10.32,0,0-8.25,3.16-10.57,3.49a14.27,14.27,0,0,0,8,3.51s-8.66,14.25-8.42,39a28.75,28.75,0,0,1-11.94,3.16l-.26-.52c3.62-7.6-5.47-32.09-20.23-41.84-14.93-9.85-30.17-30.48-30.57-50.91q-.63-.53-1.23-1.08l1.19-1.21s7.58,8.46,16.41,11c10.13,20,56.81,20.29,68.2,4.77h0a24.72,24.72,0,0,0,2.94,1.73l.48.26C667.24,810.56,673.84,813.47,684.75,816.69Z"/><path class="cls-27" d="M807,803c-1.59,11.23-8.63,20.21-15.27,24.36a35,35,0,0,1-15.24,22l-3-6.36a12.74,12.74,0,0,0,3.46-6.12l-7.87.49s4.46-1.21,6.08-7.4c0,0-7.63,2.55-13.61-.12,0,0-5.73-3.55-9.69-4.18-3.23-.51-6.35-3.89-7.41-5.14-.25-.29-.38-.46-.38-.46s27.7-4.8,32.88-10.65c.15.09.29.19.44.27,9.64,5.84,25.4.49,28.4-8Z"/><path class="cls-27" d="M779.6,634.52c17.45,1.16,27-11.8,27-11.8s-7.21-7.53-11.86-9.4C794.79,613.32,784.41,629.82,779.6,634.52Z"/><path class="cls-27" d="M691.74,573.42c9.6-6.91,12.33-8.94,24.13-11.58s24.93-4.85,27.92-7.22c0,0,2.83-6.18,3.18-11.27,0,0-1.41,7.38-26.7,13.72C701.4,561.79,691.74,573.42,691.74,573.42Z"/></g><path class="cls-27" d="M787.17,1250.74c-5.23,6.68-11.49,10.49-17.2,10.49a29.4,29.4,0,0,1-22,9.7,25.23,25.23,0,0,1-8.46-1.38,36.62,36.62,0,0,1-22.49,7.91,29,29,0,0,1-15.07-4c-8.89-5.36-11.83-14.19-12.74-20.66a46.35,46.35,0,0,1,2.07-20.5c.1-.28.19-.55.29-.82l5.54-9.12s3.47,26.34,24,26.19,21.1-17.74,17.25-25.67c0,0,15,11.58,25.12,5.59,7-4.1,5.37-8.17,3.68-10.33,2.78,2.5,9,6.8,16.39,4.22,9.61-3.35,9.62-12.86,7.42-17.67a66.56,66.56,0,0,1,4.62,12.37C798.82,1228.79,793.67,1242.44,787.17,1250.74Z"/><path class="cls-27" d="M790.11,799.61c-9.89,9.95-24,17.86-43.29,20.54l-.25,0-1.67.22-.75.1-.35,0A182.47,182.47,0,0,1,721.56,822,136.54,136.54,0,0,1,685,817.26c-.12,0-.23-.06-.35-.09L684,817c-32.77-9.38-49-30.27-47.67-45.27a30.93,30.93,0,0,1,2.23-9.36l.67-.08s9.75,38.38,53,47.76c40.52,8.79,76.35,1.63,97.75-10.82Z"/><path class="cls-28" d="M593.42,592.56q1.55-1.87,3.12-3.56c13.73-14.7,23.66-27.48,16.32-46.83l-.27-.74.78.06a27.75,27.75,0,0,1,8.17,2.32c.73.33,1.48.71,2.24,1.14C625.62,565.4,608.39,587.31,593.42,592.56Z"/><path class="cls-28" d="M799,535.38h0s-24.09,25.29-56.53,27.7a219.87,219.87,0,0,0-50.72,10.33c10.4-11.55,41.41-14.65,52.35-18.38a24.6,24.6,0,0,0,2.71-2,60.2,60.2,0,0,0,6.31-3c24.29-13.3,35.58-28.19,36-37.05l.08-1.77.85,1.55A124.83,124.83,0,0,1,799,535.38Z"/><path class="cls-28" d="M622.42,645.87c-54.1,11.85-70.6,44.36-70.86,44.86,4.06-13.6,13.74-25.76,27.26-34C594.32,643.77,622.42,645.87,622.42,645.87Z"/><path class="cls-29" d="M697.75,697.72h.2c2.11.12,4.12,2.35,5.51,6.11A38.21,38.21,0,0,1,705.29,719c-.72,12.1-5.56,20.22-9.62,20.22h-.2c-4.15-.24-8.09-8.84-7.34-21.23.72-12.1,5.56-20.22,9.62-20.22m0-1c-5.19,0-9.92,9.36-10.62,21.16-.72,12,3,22,8.28,22.29h.26c5.19,0,9.91-9.36,10.62-21.16.72-12-3-22-8.28-22.29Z"/><path class="cls-29" d="M794.79,692.84H795c4.15.25,8.09,8.85,7.35,21.24-.73,12.1-5.56,20.22-9.63,20.22h-.2c-2.1-.12-4.11-2.35-5.51-6.11a38.21,38.21,0,0,1-1.83-15.12c.73-12.1,5.56-20.22,9.63-20.22m0-1c-5.19,0-9.92,9.35-10.63,21.16-.71,12,3,22,8.28,22.29h.26c5.19,0,9.92-9.36,10.62-21.16.72-12-3-22-8.28-22.29Z"/><ellipse class="cls-30" cx="789.28" cy="702.59" rx="13.46" ry="6.67" transform="translate(-50.49 1343.99) rotate(-79.05)"/><ellipse class="cls-30" cx="692.15" cy="706.43" rx="13.46" ry="6.67" transform="translate(-132.93 1251.73) rotate(-79.05)"/><path class="cls-31" d="M666.68,747.57c-15.12-17,2.19-67.56,23.66-68.71,32.78-1.75,49.46,47.86,37.17,67.82C721.16,757,675.6,757.59,666.68,747.57Z"/><path class="cls-31" d="M776.45,746.44a52.47,52.47,0,0,0,7.51-1.21c7.23-1.7,14.21-4.34,17.2-6.54h0c11.47-8.49,17.27-62.22-12.85-65.24-21.64-2.17-38.66,39.77-27,67.46"/><path class="cls-31" d="M736.73,755.15c1.33-2.52,9.52-.35,10.84,2.19,1.07,2.06-1.73,5.28-3.91,4.9C741.11,761.8,735.48,757.51,736.73,755.15Z"/><path class="cls-31" d="M764.9,756.89c-.62,1.58,1.67,4.29,3.15,4,1.73-.33,5-4.45,4-6.15S765.67,754.91,764.9,756.89Z"/><path class="cls-31" d="M719.47,774.19s5.2,9,18.93,9.39c14.38.43,16-7,18.91-6.89,3.37.14,4.48,4.74,12.61,3.71,10.23-1.3,10.23-11.42,10.23-11.42"/><path class="cls-32" d="M797.27,676.31c3.32-1.55,4.6-4.19,3.2-7.11-2.67-5.55-9.72-13.56-15.11-13.67-34-.65-35.29,30.72-35.29,30.72s-8.46-38.53-51.06-37.57C626.42,650.33,640.88,741,640.88,741l14.51,9.36s-16.72.44-18.61,21.38c-1.38,15.32,15.32,35.81,48,44.94,16,4.49,35.89,6.24,59.34,3.31l2.66-.35c66.47-9.22,70.22-79.85,54.42-81"/><path class="cls-31" d="M579.43,657c-9.13-25.05,2.72-51.86,17.47-67.63,14.3-15.3,23.69-28.2,16.43-47.35,0,0,23.48,1.73,23.47,28.82"/><path class="cls-31" d="M743.1,555c8.1-14.25-.59-30.34-.59-30.34-3.5,6.39-17,21.19-55.75,25.87-20.19,2.44-37.18,10.12-50,20.27-11.79,9.35-20,20.79-23.85,32.13"/><path class="cls-31" d="M691.74,573.42c16.92-14.95,40.56-11.4,61.61-22.92C778,537,789.19,522.05,789.62,513c0,0,38.06,68.82-10,121.48"/><path class="cls-31" d="M791.28,827c6.93-4.25,14.47-14,15.45-26.14,6.92-7.12,10.62-20.18,9.7-27.82-1.09-8.95-.66-7,3.67-13,9.24-12.83,11.64-40.59-1.08-53.56,13.74-14.23,10.35-44.52-2.07-53.76"/><path class="cls-31" d="M775.85,849.1h0A34.64,34.64,0,0,0,791.28,827a35.53,35.53,0,0,0,.89-11.38"/><path class="cls-31" d="M558.19,728.63c-16.36-20.4-7.74-54.26,21.24-71.66,11.32-6.81,25.74-11.1,43-11.1"/><path class="cls-31" d="M562.43,720.66C544.51,746.75,560.09,791.57,592,802"/><path class="cls-31" d="M576.17,793.05c.29,20.82,16.29,41.44,30.34,50.72,14.74,9.74,24.09,34.28,20.2,42.46a30.77,30.77,0,0,0,12.47-3.67"/><path class="cls-31" d="M649.75,958.37l-.72-2.25c-.08-.26-.16-.53-.23-.8l-.93-3.45c-.16-.65-.32-1.31-.47-2l-.24-1c-.13-.56-.26-1.14-.38-1.74,0-.22-.1-.44-.14-.67-.19-.9-.38-1.84-.57-2.81-1.47-7.51-3-17-4.73-29.15a191,191,0,0,1-2.16-31.9q.06-2.34.18-4.56c0-.77.08-1.52.14-2.27s.1-1.36.16-2a.66.66,0,0,1,0-.14,94.44,94.44,0,0,1,4.78-23.14c.18-.51.37-1,.56-1.5l.24-.61c.49-1.26,1-2.46,1.53-3.58"/><path class="cls-31" d="M671.49,976.07l.47.09.59.12q1.29.24,2.76.48l1.76.28c1,.16,2.07.31,3.18.47l1.37.18c3.22.44,6.8.87,10.66,1.32l2,.23.26,0,.85.1,1.89.22,3.1.35,2.11.24,2.14.25,2.18.25,2.08.24,5.74.68,4.6.56,5,.64,4.31.57,2.36.32c2.19.31,4.39.62,6.58.95,2.54.39,5.07.78,7.58,1.2l2.33.39,4.63.83,2.29.43,2.27.45,1.74.35.84.17c1.38.29,2.74.59,4.09.89h0l2.12.49c1.54.36,3.05.74,4.53,1.12q2.59.67,5.06,1.39l1,.31c1.19.36,2.36.73,3.5,1.11l1.44.48a82.67,82.67,0,0,1,10.29,4.29,70,70,0,0,0-1.92-22.48c-2.18-8.17-6.52-16.54-15-21.16a113.73,113.73,0,0,0-16.19-7.37c-1.24-.45-2.47-.86-3.69-1.25s-2.41-.75-3.62-1.09h0c-17.14-4.76-34.45-5-62.53-9"/><path class="cls-31" d="M662.18,827.06c.74-.39,1.5-.75,2.26-1.09l.95-.41,1.16-.46c4.42-1.73,8.88-2.82,12.36-4.24l.11-.05c2.59-1.06,4.63-2.3,5.73-4.12"/><path class="cls-31" d="M688.17,940.27S690.33,886.61,685,864"/><path class="cls-31" d="M764.27,847.67c9.32,21.56,10.73,73.08-6.07,99.87"/><path class="cls-31" d="M769.73,837.24l-.09-.13"/><path class="cls-31" d="M761.92,829.78c-.41-.25-.81-.48-1.23-.71s-1-.56-1.57-.82-1-.48-1.51-.71c-.68-.32-1.36-.61-2-.89l-1.67-.69c-1.48-.6-2.89-1.16-4.17-1.73-.19-.08-.38-.16-.57-.26-.57-.25-1.11-.52-1.6-.79a8.64,8.64,0,0,1-.94-.56,3,3,0,0,1-.43-.29,4.78,4.78,0,0,1-.49-.36l-.28-.24a7,7,0,0,1-.55-.54,1.73,1.73,0,0,1-.17-.21,1.5,1.5,0,0,1-.19-.25,4.5,4.5,0,0,1-.43-.73"/><path class="cls-31" d="M773.18,843.26c.9,1.78,1.79,3.74,2.67,5.84h0c5.07,12.14,9.66,29.38,11.53,48.51,2.4,24.65,2.91,41.1,3,46.9v.19"/><path class="cls-31" d="M848.75,964.27l.54,0c-19.36-3.19-27.93-14.75-51.18-18.75l-1.21-.2-2.36-.34c-1.33-.17-2.71-.32-4.14-.44a126.23,126.23,0,0,0-17.15-.18"/><path class="cls-31" d="M836.28,963.06c7.07,3.57,11.05,6.49,12.31,8,1.57,1.89,11.91,17.44,13.89,20.73s2.73,13.83,3.67,17.59.09,14.11-.85,16.18-3.32,7.14-7.83,6.1c-3.53-.8-5.83-2.92-6.58-4.75"/><path class="cls-31" d="M853.44,996.62c1.15,5.71,3.11,9,3.12,14.59,0,4.64-8.62,21.32-10.71,27.77-1.79,5.53-13.3,5.54-16.41-1.74"/><path class="cls-31" d="M814.11,1008.36c-.56,14.46-5.17,20.59-4.85,28.33.27,6.5,3.86,11.24,12.38,11.24,6.77,0,6.49-8.36,9.63-16.54,3.4-8.85,7-17.75,6.77-21.6-.22-3.25-.71-7.06-1-10.49"/><path class="cls-31" d="M809.24,1006s-7,3.19-9.56,10.38"/><path class="cls-31" d="M804.14,1009.6c3.35.5,6.58,2.45,9,7.93h0"/><path class="cls-31" d="M725.77,1024.69a116.86,116.86,0,0,1-9.34,15.34c-21.93,30.59-40.56,80-44.08,86.77s-12.23,15-12.23,15c.1.16.22.32.33.48a29.38,29.38,0,0,0,3.87,4.6,37.79,37.79,0,0,0,8.27,6"/><path class="cls-31" d="M754.81,1162.21h0"/><path class="cls-31" d="M799.06,1041.32q.08-.21.12-.39c.07-.25.14-.48.2-.7s.15-.59.21-.83.07-.36.09-.51,1.9-16.58.61-21.35-9-19-9-19"/><path class="cls-31" d="M721.17,1032.9l-.56-.39A184.28,184.28,0,0,0,691,1016.69c-.73-.31-1.44-.6-2.15-.88s-1.4-.56-2.08-.82c-.5-.19-1-.38-1.48-.59-9.31-3.84-18.35-10.16-24-20a40.86,40.86,0,0,1-3.4-7.58,45.26,45.26,0,0,1-1.76-7.06"/><path class="cls-31" d="M664.32,1146.89c-10.69,27.14.24,40.51,10.24,49.93,4.59,4.34.84,20.42,17.28,35.37"/><path class="cls-31" d="M697.84,1221.5c-9.76,10.49-14.35,40.18,4.39,51.48,15.38,9.27,35.5,1,41.73-9,3.84-6.16,13.58-28.29-9.76-44.41"/><path class="cls-31" d="M739.46,1269c10.84,4,26.21-.4,33-12.12,5.1-8.79,9-30.74-11.69-47.09"/><path class="cls-31" d="M769.71,1260.73c14.51.29,30.49-24.84,25.46-43.59-7.9-29.41-29.6-32.58-38.77-52.57"/><path class="cls-31" d="M923.82,1146.89c18.65-1.64,33.4-20,23.11-41.16-9-18.55-37.68-11.22-46.21-3.9-1.1.94-2.35,2.08-3.74,3.36l-1.22,1.14c-1.87,1.75-3.94,3.73-6.15,5.84l-1.49,1.43c-2.76,2.64-5.71,5.44-8.72,8.23l-1.64,1.52c-.55.51-1.1,1-1.65,1.51l-.83.75c-3.7,3.35-7.4,6.56-10.9,9.31"/><path class="cls-31" d="M831.34,1158.15h0l-.91.84-.88.84-.89.86c-.29.28-.59.57-.88.87-12.95,13-23.31,18.75-23.31,18.75.79-20.87-7.56-48.15-9.51-66.8-.12-1.17-.25-2.39-.37-3.64-.18-1.83-.36-3.74-.55-5.7-.07-.73-.14-1.46-.2-2.2-.9-9.77-1.78-20.43-2.39-28-.17-2.22-.32-4.18-.45-5.78,0-.31,0-.61-.07-.89s0-.37,0-.55a1.8,1.8,0,0,1,0-.22,1.66,1.66,0,0,0,0-.32c0-.13,0-.19,0-.19-.11-1.55-.18-2.42-.18-2.42"/><path class="cls-31" d="M946.93,1105.73c14.75,1.39,22.07,11.11,22.54,23.93.5,13.36-13.08,28.39-28.67,27"/><path class="cls-31" d="M969.47,1129.66c14.75,22.27,0,44.82-17.81,50.66-11.15,3.66-21.52,2.19-26.72,5.85-8.68,6.09-21.63,27.91-58.56,35.11-33.61,6.55-56.56-19.32-54.16-45.58"/><path class="cls-31" d="M862.45,1030.05c5.27,23,8.3,30.5,14.4,55.45a239.55,239.55,0,0,0,9.61,29.68"/><path class="cls-31" d="M646.07,943.61c-22.19,4.12-63.78,17.9-84.15,63.89-21,47.4,7.46,99.88,26.9,112.81s2.81,59.85-22.72,86.94c-10.34,11-24.52,37.44,5.5,57,24.44,15.91,50.77-1.88,58.57-16.12,19.43-35.48,40.24-116.32-4.85-153.51-25.15-20.75-41.44-42.16-28.9-72.86,11.93-29.2,40.27-35.19,62.44-34.94"/><path class="cls-29" d="M649,845.75a16.38,16.38,0,0,1-2.87-.32,14.14,14.14,0,0,1-2.75-.86,14.37,14.37,0,0,1-2.54-1.35,12,12,0,0,1-2.25-1.88.7.7,0,0,1,0-1,.64.64,0,0,1,.25-.15h0l10.56-3.52.1,1.47a11.44,11.44,0,0,1-3.81-1.54,17.8,17.8,0,0,1-3.09-2.57,24.4,24.4,0,0,1-2.49-3.09,27.06,27.06,0,0,1-2-3.44,1.05,1.05,0,0,1,.49-1.41,1,1,0,0,1,.86,0l.07,0a29.31,29.31,0,0,0,22-.38l1.07,2.76-.08,0a1.48,1.48,0,0,1-1.19-2.71h0a64.54,64.54,0,0,1,11.48-4.31,49.48,49.48,0,0,0,5.51-1.88,9.19,9.19,0,0,0,4.17-3l0,0a1.22,1.22,0,0,1,2.06,1.31,11.55,11.55,0,0,1-5.13,4.28,53.79,53.79,0,0,1-5.78,2.17c-1.92.61-3.81,1.19-5.64,1.87a47.76,47.76,0,0,0-5.33,2.29l-1.18-2.72.08,0h0a1.48,1.48,0,0,1,1.06,2.77,30.19,30.19,0,0,1-12.1,2.27,29.36,29.36,0,0,1-12-2.65l1.42-1.42a24.88,24.88,0,0,0,1.7,3.22,21.85,21.85,0,0,0,2.17,3,14.14,14.14,0,0,0,2.66,2.42,9.79,9.79,0,0,0,3.2,1.4h0a.76.76,0,0,1,.57.91.77.77,0,0,1-.5.56l-10.59,3.45.32-1.17a10.79,10.79,0,0,0,2,1.59,12.53,12.53,0,0,0,2.3,1.19,13.29,13.29,0,0,0,2.49.68,14.65,14.65,0,0,0,2.56.2h0a.85.85,0,1,1,0,1.7Z"/><path class="cls-29" d="M770.75,843.93a12.9,12.9,0,0,0,3.4-3.15,15.06,15.06,0,0,0,1.24-2,9.82,9.82,0,0,0,.82-2.13l.77.93a70.4,70.4,0,0,0-7.8.49.78.78,0,0,1-.3-1.53h0a4,4,0,0,0,1.69-1.12,12,12,0,0,0,1.41-1.79,21.64,21.64,0,0,0,1.18-2c.35-.7.7-1.44,1-2.13l1.39,1.47a18,18,0,0,1-7,1.22,27.69,27.69,0,0,1-7-1,1.88,1.88,0,0,1-.3-.12l-.05,0a43.93,43.93,0,0,0-4.45-2.22c-.77-.33-1.5-.76-2.27-1.12l-2.34-1c-1.57-.71-3.17-1.42-4.73-2.32a13.62,13.62,0,0,1-2.28-1.57,6.8,6.8,0,0,1-1.81-2.36.87.87,0,0,1,1.55-.78l0,.06a7.52,7.52,0,0,0,3.51,2.76c1.48.7,3.07,1.27,4.68,1.85l2.44.88c.81.31,1.66.54,2.45.92a48.35,48.35,0,0,1,4.7,2.51l-.35-.15a28.37,28.37,0,0,0,6.29,1.18,16.8,16.8,0,0,0,6.2-.72l.08,0a1.09,1.09,0,0,1,1.36.69,1.12,1.12,0,0,1,0,.81c-.39.8-.8,1.51-1.24,2.24a25.42,25.42,0,0,1-1.45,2.11,12.81,12.81,0,0,1-1.76,1.94,5.89,5.89,0,0,1-2.45,1.43l-.27-1.54,4-.3c1.32-.09,2.65-.16,4-.19h0a.76.76,0,0,1,.77.75.55.55,0,0,1,0,.18,14.47,14.47,0,0,1-.87,2.53,15.73,15.73,0,0,1-1.29,2.3,17.72,17.72,0,0,1-3.56,3.88h0a1.08,1.08,0,0,1-1.35-1.68Z"/><path class="cls-29" d="M689.69,934.9c11.25,1.72,22.56,3.06,33.91,4.4,5.67.69,11.35,1.44,17,2.54a119.36,119.36,0,0,1,16.64,4.45A108.58,108.58,0,0,1,773,953.23a39.12,39.12,0,0,1,3.77,2.19,26.7,26.7,0,0,1,3.45,2.73,30.79,30.79,0,0,1,5.44,6.86,48.31,48.31,0,0,1,5.61,16.36,71.69,71.69,0,0,1,.78,17.26.76.76,0,0,1-.82.7.9.9,0,0,1-.28-.08h0a90,90,0,0,0-14.12-5.45c-4.85-1.48-9.78-2.7-14.74-3.78-9.93-2.14-20-3.7-30.07-5.08s-20.21-2.47-30.34-3.61l-15.21-1.72c-5.07-.62-10.14-1.25-15.23-2.23a1.32,1.32,0,0,1-1-1.54,2.17,2.17,0,0,1,.07-.24v0h0l1.38,1.81h0a75.41,75.41,0,0,0-10.45,1.89c-1.73.43-3.44.92-5.1,1.5-.83.29-1.65.61-2.43,1a7.65,7.65,0,0,0-2,1.26l0,0a.81.81,0,0,1-1.14,0,.83.83,0,0,1-.22-.68h0a40.58,40.58,0,0,1,.78-5.27,20.34,20.34,0,0,1,1.83-5.22h0l1.38,2.18a22.6,22.6,0,0,1-3.88-.1,25,25,0,0,1-3.75-.71,20.05,20.05,0,0,1-3.58-1.34,18.26,18.26,0,0,1-3.26-2h0l0,0a.94.94,0,0,1-.21-1.3,1,1,0,0,1,.72-.38c1,0,2.07-.09,3.1-.16a27.75,27.75,0,0,0,3-.36h0l0,1.12a21.19,21.19,0,0,1-3-1.33,13.87,13.87,0,0,1-2.76-1.93h0a.68.68,0,0,1,.29-1.17l.09,0a14.82,14.82,0,0,0,2.59-.92,12.48,12.48,0,0,0,2.3-1.37,7.14,7.14,0,0,0,1.71-1.82,5,5,0,0,0,.77-2.13h0a1.51,1.51,0,0,1,2.91-.16h0a1.51,1.51,0,0,1-2.87.93,111.44,111.44,0,0,1-3.45-14.16c-.89-4.74-1.64-9.49-2.37-14.24-1.37-9.51-2.9-19-3.92-28.6-.53-4.79-.93-9.62-1-14.46a130.7,130.7,0,0,1,.64-14.53c.25-2.41.56-4.82.95-7.22s.91-4.78,1.52-7.14a65.73,65.73,0,0,1,5.06-13.7,1,1,0,0,1,1.28-.41,1,1,0,0,1,.45,1.22,76.77,76.77,0,0,0-4.2,13.5,114,114,0,0,0-2,14c-.4,4.72-.49,9.48-.51,14.22s.1,9.51.41,14.27.87,9.49,1.6,14.22,1.43,9.48,2.24,14.2,1.65,9.43,2.62,14.1a117,117,0,0,0,3.59,13.72l-2.87.94h0l2.91-.15h0a8,8,0,0,1-1.64,3.1,9.8,9.8,0,0,1-2.57,2.07,14,14,0,0,1-2.89,1.22,15.76,15.76,0,0,1-3,.62l.39-1.2h0a11.89,11.89,0,0,0,2.42,1.82,18.69,18.69,0,0,0,2.78,1.34h0a.59.59,0,0,1,.34.76.61.61,0,0,1-.37.35h0a24,24,0,0,1-3.16.75c-1,.2-2.08.37-3.13.53l.48-1.69h0a16.21,16.21,0,0,0,3,1.58,17.5,17.5,0,0,0,3.26,1,21.61,21.61,0,0,0,3.4.4,20.32,20.32,0,0,0,3.34-.12h0a1.42,1.42,0,0,1,1.59,1.22,1.37,1.37,0,0,1-.23,1h0a18,18,0,0,0-2.09,4.31,35.61,35.61,0,0,0-1.32,4.86h0l-1.41-.65a9.17,9.17,0,0,1,2.45-1.73c.84-.44,1.68-.81,2.54-1.16,1.71-.69,3.45-1.27,5.2-1.8a76.2,76.2,0,0,1,10.72-2.46h0a1.33,1.33,0,0,1,1.38,1.82h0l-1-1.8c4.91,1,10,1.65,15,2.3l15.17,1.82c10.12,1.19,20.25,2.45,30.35,3.92s20.19,3.18,30.17,5.45c5,1.13,9.95,2.4,14.84,3.94a96.11,96.11,0,0,1,14.33,5.66l-1.12.61a70,70,0,0,0-.74-16.85,54.33,54.33,0,0,0-2-8.19,38.86,38.86,0,0,0-3.45-7.63,28.87,28.87,0,0,0-5.2-6.48,24.5,24.5,0,0,0-3.26-2.56,41.09,41.09,0,0,0-3.64-2.08,107,107,0,0,0-15.56-6.74,109.19,109.19,0,0,0-16.44-4.21c-5.57-1-11.22-1.68-16.88-2.3l-17-1.73q-8.52-.9-17-2a1.42,1.42,0,0,1-1.23-1.58,1.43,1.43,0,0,1,1.59-1.23Z"/><path class="cls-29" d="M773.22,943.8a117.46,117.46,0,0,1,20,.35,80,80,0,0,1,19.52,4.61c6.3,2.35,12.2,5.55,18.15,8.43A83.61,83.61,0,0,0,840,961a55.64,55.64,0,0,0,9.5,2.35,1,1,0,0,1-.07,2.07h0a36,36,0,0,1-6.82-.16c-2.23-.23-4.42-.57-6.61-.9l1-2,5,4.73h0a1.2,1.2,0,0,1,0,1.71,1.19,1.19,0,0,1-.94.38,32.32,32.32,0,0,1-4-.5c-1.31-.25-2.61-.54-3.9-.9A49.68,49.68,0,0,1,825.7,965l1.84-1.53a24.39,24.39,0,0,1,.6,4.63,28.16,28.16,0,0,1-.18,4.59,27.63,27.63,0,0,1-.92,4.5,28.79,28.79,0,0,1-1.65,4.31,1.39,1.39,0,0,1-1.86.69,1.33,1.33,0,0,1-.56-.46l0,0c-.88-1.25-1.82-2.5-2.77-3.72s-1.93-2.43-2.94-3.6-2-2.31-3.1-3.39a33.68,33.68,0,0,0-3.29-3l2-.54c-1.11,2.17-2.3,4.19-3.59,6.21a60.72,60.72,0,0,1-4.2,5.81,34.75,34.75,0,0,1-5.13,5.16,14.1,14.1,0,0,1-6.85,3.18h0a1.06,1.06,0,0,1-1.23-.88v-.13c-.09-.88-.19-1.82-.31-2.73s-.26-1.83-.44-2.74a20.62,20.62,0,0,0-.68-2.68,10.63,10.63,0,0,0-1.18-2.51.15.15,0,0,1,.22-.2,8.06,8.06,0,0,1,1.95,2.24,16.15,16.15,0,0,1,1.3,2.68,23.68,23.68,0,0,1,.87,2.83,20.13,20.13,0,0,1,.49,2.93l-1.25-1h0a12.06,12.06,0,0,0,5.65-2.83,31.75,31.75,0,0,0,4.66-4.88,61.64,61.64,0,0,0,3.91-5.65c1.19-1.95,2.33-4,3.31-6a1.41,1.41,0,0,1,1.87-.65l.15.09,0,0a24.85,24.85,0,0,1,3.82,3.19c1.16,1.14,2.23,2.34,3.26,3.57s2,2.47,3,3.74,1.9,2.55,2.82,3.88l-2.46.18a25.34,25.34,0,0,0,1.52-3.84,23.4,23.4,0,0,0,.88-4.05,25.11,25.11,0,0,0,.22-4.15,21.81,21.81,0,0,0-.47-4v-.06a1.32,1.32,0,0,1,1-1.57,1.29,1.29,0,0,1,.85.1,47.06,47.06,0,0,0,7.06,2.69c1.2.36,2.43.65,3.66.9a30.61,30.61,0,0,0,3.66.51l-.89,2.1-4.94-4.81h0a1.16,1.16,0,0,1,1-2c2.17.37,4.33.74,6.48,1a33.57,33.57,0,0,0,6.39.27l-.08,2.07a58.93,58.93,0,0,1-9.79-2.63,84.23,84.23,0,0,1-9.22-4.06l-8.86-4.57a95.78,95.78,0,0,0-9-4,77.52,77.52,0,0,0-19.17-4.67,124.73,124.73,0,0,0-19.81-.57.52.52,0,0,1-.56-.5A.53.53,0,0,1,773.22,943.8Z"/><path class="cls-29" d="M727.92,1025.77a163.48,163.48,0,0,1-9.8,14.09c-1.77,2.21-3.42,4.43-5.07,6.71s-3.17,4.62-4.69,7A310.69,310.69,0,0,0,692.09,1083q-3.66,7.6-7.1,15.3t-6.57,15.52l-3.17,7.82a50.5,50.5,0,0,1-3.62,7.72c-1.5,2.45-3.28,4.66-5,7s-3.42,4.53-5.09,7l.32-2.71a23.59,23.59,0,0,0,3.18,4.14,51,51,0,0,0,4,3.81,65.06,65.06,0,0,0,9,6.55h0l.05,0a1.07,1.07,0,0,1,.25.22,60.32,60.32,0,0,0,4.89,5.57,58.79,58.79,0,0,0,5.52,4.94,60.55,60.55,0,0,0,6.08,4.23,46.34,46.34,0,0,0,6.52,3.37l-1.35.86c.11-1.69.31-3.32.52-5s.43-3.27.67-4.91a1,1,0,0,1,1.17-.86l.18,0h0a31.18,31.18,0,0,1,9.65,5.25A21,21,0,0,1,716,1173a18.79,18.79,0,0,1,1.45,2.45,12,12,0,0,1,1,2.82l-1.77-.72a29.93,29.93,0,0,0,3.71-3.4,22.89,22.89,0,0,0,2.89-4.06,19.3,19.3,0,0,0,1.83-4.59,15.22,15.22,0,0,0,.48-4.78v0a1.18,1.18,0,0,1,1.85-1.07,47.1,47.1,0,0,1,4.91,3.86c1.53,1.4,3,2.88,4.36,4.42s2.68,3.14,3.92,4.79,2.4,3.33,3.5,5.14l-1.81-.39a25.71,25.71,0,0,0,3.81-3.4,21.48,21.48,0,0,0,4.81-8.86,20.94,20.94,0,0,0,.5-2.48,16.38,16.38,0,0,0,.18-2.43v0a1.29,1.29,0,0,1,1.26-1.34,1.31,1.31,0,0,1,1,.48,21.68,21.68,0,0,0,7,5.45,30.47,30.47,0,0,0,4.16,1.75,29.19,29.19,0,0,0,4.32,1.11l-1.25,2.18-9.75-12.15a1.4,1.4,0,0,1-.27-1.19c3.17-13.67,7.43-27,11.9-40.2l7-19.73q3.53-9.84,7.17-19.64l7.29-19.59c1.21-3.26,2.41-6.53,3.57-9.79.57-1.63,1.15-3.27,1.67-4.9.28-.81.52-1.62.75-2.42.09-.37.24-.83.28-1.13l.11-.49.06-.62c.34-3.43.61-6.88.77-10.31.08-1.72.12-3.43.1-5.11,0-.84,0-1.68-.1-2.48a9.94,9.94,0,0,0-.35-2.17,38.52,38.52,0,0,0-1.84-4.56c-.71-1.55-1.47-3.1-2.24-4.64-1.55-3.08-3.17-6.15-4.83-9.17v0a2.15,2.15,0,0,1,3.77-2.06v0c1.65,3.11,3.24,6.22,4.78,9.38.77,1.59,1.52,3.18,2.25,4.8a45.31,45.31,0,0,1,2,5.15,14.78,14.78,0,0,1,.45,3c.06.93.08,1.84.08,2.74,0,1.8-.07,3.57-.17,5.34-.21,3.53-.53,7-.92,10.51l-.08.68-.16.79c-.11.55-.24.93-.37,1.4-.26.87-.53,1.72-.82,2.56-.56,1.68-1.16,3.32-1.77,5q-1.81,4.92-3.7,9.79l-7.52,19.5q-3.75,9.75-7.39,19.53l-3.6,9.79q-1.72,4.92-3.38,9.87c-4.52,13.15-8.82,26.39-12,39.86l-.27-1.19,9.68,12.22,0,0a1.34,1.34,0,0,1-1.27,2.15,32,32,0,0,1-4.81-1.25,34.49,34.49,0,0,1-4.52-1.93,24.19,24.19,0,0,1-7.75-6.17l2.31-.89a17.17,17.17,0,0,1-.21,2.94,22.29,22.29,0,0,1-.58,2.79,24,24,0,0,1-5.42,9.88,28.89,28.89,0,0,1-4.23,3.74,1.25,1.25,0,0,1-1.74-.27l-.06-.09v0c-1-1.66-2.15-3.33-3.33-4.92s-2.43-3.16-3.76-4.65-2.7-2.91-4.16-4.25a46.68,46.68,0,0,0-4.62-3.69l1.85-1.12a17.41,17.41,0,0,1-.57,5.63,21.93,21.93,0,0,1-2.09,5.14,25.22,25.22,0,0,1-3.22,4.45,32,32,0,0,1-4.05,3.67,1.11,1.11,0,0,1-1.54-.19,1.18,1.18,0,0,1-.22-.47v-.07a10.12,10.12,0,0,0-.76-2.2,15.42,15.42,0,0,0-1.25-2.15,18.62,18.62,0,0,0-3.41-3.69,29.19,29.19,0,0,0-9-5l1.36-.81c-.25,1.61-.49,3.23-.7,4.85s-.43,3.25-.55,4.84v0a1,1,0,0,1-1,.9,1.08,1.08,0,0,1-.31-.07,48.43,48.43,0,0,1-6.81-3.59,63.1,63.1,0,0,1-6.23-4.41,62.38,62.38,0,0,1-5.64-5.14,63.7,63.7,0,0,1-5-5.77l.3.24h0a65.6,65.6,0,0,1-10-5.72,53.91,53.91,0,0,1-4.64-3.56,28.29,28.29,0,0,1-4.23-4.42l-.16-.21a1.73,1.73,0,0,1,.36-2.42l.12-.08a40,40,0,0,0,11.81-11.63,49.52,49.52,0,0,0,3.79-7.4l3.45-7.7q3.39-7.72,6.91-15.39c2.32-5.13,4.68-10.23,7.12-15.29q7.21-15.25,15.53-30c2.76-4.9,5.7-9.76,8.76-14.49a88.93,88.93,0,0,0,7.59-14.78,2.41,2.41,0,1,1,4.49,1.77A2.81,2.81,0,0,1,727.92,1025.77Z"/><path class="cls-29" d="M792.13,1065.9q.39,7.18.91,14.38c.33,4.79.64,9.58,1.05,14.37s.79,9.57,1.23,14.35.94,9.51,1.78,14.24c1.64,9.44,3.73,18.82,5.39,28.31.86,4.73,1.52,9.51,2.13,14.3s1.14,9.6,1.57,14.54l-2.58-1.58h0c2.37-1.37,4.79-3,7.1-4.67s4.59-3.45,6.8-5.29,4.36-3.74,6.47-5.71l6.33-6a.84.84,0,0,1,.18-.15l0,0,0,0,.08,0a67.18,67.18,0,0,1,16.86-5.73q4.32-.95,8.68-1.57c2.92-.42,5.81-.76,8.78-1l-.91,1.71a6.93,6.93,0,0,0-1.16-1.26,9.73,9.73,0,0,0-1.51-1.1,13.53,13.53,0,0,0-3.53-1.45,19.14,19.14,0,0,0-3.86-.58c-.66,0-1.33,0-2,0l-2,.14h0a1.25,1.25,0,0,1-.35-2.46c3.5-.78,7-1.69,10.44-2.75,1.71-.53,3.4-1.11,5-1.77a22.82,22.82,0,0,0,4.55-2.31l.59,2.46a12.42,12.42,0,0,1-1.89-.48,14.44,14.44,0,0,1-1.75-.69,13.24,13.24,0,0,1-3.19-2.1,1.38,1.38,0,0,1-.13-2l.16-.16,0,0c10.14-8.16,19.41-17.46,29-26.5,2.4-2.26,4.79-4.51,7.33-6.69a31.93,31.93,0,0,1,9.06-5,48.32,48.32,0,0,1,9.82-2.51,41.09,41.09,0,0,1,10.16-.3,27.5,27.5,0,0,1,9.89,2.79,20.49,20.49,0,0,1,7.72,6.89,26.1,26.1,0,0,1,2.35,4.58c.31.79.6,1.58.87,2.38s.53,1.62.7,2.45a29.17,29.17,0,0,1,.74,10.11,27,27,0,0,1-9.14,17.54,30.35,30.35,0,0,1-18.13,7.45.15.15,0,0,1,0-.3,30.29,30.29,0,0,0,17.35-8,25.3,25.3,0,0,0,3.17-3.61,24.27,24.27,0,0,0,2.48-4.08,23.33,23.33,0,0,0,1.68-4.46,24.07,24.07,0,0,0,.79-4.69,27,27,0,0,0-1-9.41c-.18-.77-.48-1.51-.71-2.27s-.58-1.48-.89-2.21a24.8,24.8,0,0,0-2.22-4.14,18,18,0,0,0-6.91-6,24.93,24.93,0,0,0-9-2.36,43.62,43.62,0,0,0-18.67,2.94,29.28,29.28,0,0,0-8.14,4.47c-2.43,2.1-4.81,4.37-7.18,6.62q-7.08,6.81-14.33,13.53c-4.84,4.47-9.79,8.85-15,12.94l.07-2.15a11.09,11.09,0,0,0,2.51,1.67,12.12,12.12,0,0,0,2.86,1h.07a1.36,1.36,0,0,1,.52,2.45,25,25,0,0,1-5.17,2.58c-1.75.68-3.51,1.25-5.27,1.78-3.54,1.05-7.08,1.93-10.7,2.69l-.37-2.46,2.17-.12c.72,0,1.45,0,2.18,0a21.58,21.58,0,0,1,4.35.71,16,16,0,0,1,4.13,1.76,12.73,12.73,0,0,1,1.84,1.37,8.68,8.68,0,0,1,1.59,1.85,1.12,1.12,0,0,1-.83,1.71h-.08c-2.84.26-5.72.65-8.57,1.11s-5.68,1-8.48,1.68a65.11,65.11,0,0,0-16.05,5.73l.11-.06,0,0,.18-.15-6.21,6.1c-2.11,2.05-4.28,4-6.5,6s-4.53,3.76-6.88,5.53a85.27,85.27,0,0,1-7.38,5h0l-.35.15a1.6,1.6,0,0,1-2.12-.83,1.64,1.64,0,0,1-.11-.9A59.37,59.37,0,0,0,803,1166c-.42-4.76-1.19-9.49-2-14.21-1.65-9.45-3.73-18.83-5.38-28.32-.4-2.38-.8-4.76-1.13-7.15s-.57-4.79-.83-7.18q-.75-7.17-1.42-14.35l-2.75-28.71a1.31,1.31,0,1,1,2.61-.25Z"/><ellipse class="cls-24" cx="696.71" cy="718.45" rx="21.76" ry="9.6" transform="translate(-62.06 1371.01) rotate(-86.58)"/><ellipse class="cls-24" cx="793.74" cy="713.57" rx="21.76" ry="9.6" transform="translate(34.05 1463.28) rotate(-86.58)"/><ellipse class="cls-22" cx="789.28" cy="702.59" rx="13.46" ry="6.67" transform="translate(-50.49 1343.99) rotate(-79.05)"/><ellipse class="cls-22" cx="692.15" cy="706.43" rx="13.46" ry="6.67" transform="translate(-132.93 1251.73) rotate(-79.05)"/><path class="cls-33" d="M798.24,676.83c1.76-.86,3.53-2.16,3.92-4.21s-.69-3.75-1.67-5.36a32.73,32.73,0,0,0-8.38-9.39,15.59,15.59,0,0,0-5.09-2.58,19.07,19.07,0,0,0-5.79-.28,40.09,40.09,0,0,0-11.18,2c-10.14,3.46-17.15,11.86-20,22a30.58,30.58,0,0,0-1.21,6.84l2.39.54a43.44,43.44,0,0,0-3.66-9.73,51.83,51.83,0,0,0-14.41-18c-8.66-6.77-19.46-10.11-30.36-10.57-10.41-.44-21.26,1.15-30.75,5.58a50.31,50.31,0,0,0-19,15.49,67,67,0,0,0-10.23,21,104.49,104.49,0,0,0-3.92,21.84,138.33,138.33,0,0,0-.22,18.21c.17,3.3.43,6.6.89,9.88.14,1,.79,1.24,1.69,1.82l10.66,6.88,2.51,1.61.18-.64c-5.2.15-10.5,3.17-13.72,7.13-6.12,7.51-6.83,18.39-2.91,27,4.55,10,13.43,17.62,22.7,23.15,12.26,7.32,26.31,11.48,40.39,13.46a164.43,164.43,0,0,0,48.12-.61,80.1,80.1,0,0,0,31.21-11.5,68.83,68.83,0,0,0,29.19-40.81,49,49,0,0,0,1.43-18.4c-.5-3.66-1.69-8.16-5.24-10a7.68,7.68,0,0,0-2.88-.82c-.44,0-.77.07-.61.5s1.24.59,1.6.63l.25.05a2,2,0,0,1,.53.28,5.76,5.76,0,0,1,1.46,1.49,14.51,14.51,0,0,1,2.09,5.19c1.23,5.43.8,11.23-.21,16.65a68.26,68.26,0,0,1-24.12,40.21A73.37,73.37,0,0,1,756.66,817a120.68,120.68,0,0,1-20.54,3.25,166.43,166.43,0,0,1-24.15.41c-14-.82-28.11-3.62-41-9.36-10.59-4.72-20.8-11.66-27.44-21.33a32.56,32.56,0,0,1-5.18-11.7,26.39,26.39,0,0,1,1.35-14.2c2.45-6.66,8.11-11.92,15.22-13a9.89,9.89,0,0,1,1.22-.13c.45,0,.59-.39.18-.65l-8-5.15-5-3.22A10.69,10.69,0,0,0,642,741c-.4-.16.1,0,.06.14a6.69,6.69,0,0,0-.28-2.06c-.19-1.61-.34-3.22-.47-4.83a142,142,0,0,1-.31-16.11,117.54,117.54,0,0,1,2.55-20.81,76.94,76.94,0,0,1,7.86-21.24,51.94,51.94,0,0,1,15.69-17.4,56.28,56.28,0,0,1,26-9.07c11.26-1.19,22.91,0,32.88,5.67a47.81,47.81,0,0,1,17.19,17.29,51.62,51.62,0,0,1,5.49,12.75c.06.23.11.45.16.67.13.56,2.38,1.14,2.4.55A34.76,34.76,0,0,1,756.16,671a29.34,29.34,0,0,1,10.68-10.6,31.59,31.59,0,0,1,8.71-3.31,38.18,38.18,0,0,1,5.51-.83,18.79,18.79,0,0,1,5.7,0,12.85,12.85,0,0,1,5.06,3.11,33.2,33.2,0,0,1,4.76,5.29c1.21,1.63,2.72,3.63,3.14,5.66.54,2.55-1.29,4.47-3.43,5.52-.82.4,1.37,1.33,2,1Z"/><path class="cls-34" d="M666.53,747.71a23.19,23.19,0,0,1-3.81-6.4,33.16,33.16,0,0,1-2-7.2,53.08,53.08,0,0,1-.14-15A66.33,66.33,0,0,1,664,704.42a56.35,56.35,0,0,1,7-13.44,50,50,0,0,1,5-5.81,31.41,31.41,0,0,1,6.09-4.72,17.89,17.89,0,0,1,7.4-2.37c.33,0,.66-.07,1-.08l1,0,1.89,0c.63,0,1.26.14,1.89.21a17.23,17.23,0,0,1,1.87.28,33.54,33.54,0,0,1,13.74,5.88c.5.38,1,.73,1.51,1.12l1.43,1.22c1,.78,1.82,1.71,2.74,2.55a51.73,51.73,0,0,1,4.77,5.78,59.2,59.2,0,0,1,7.09,13.15,64,64,0,0,1,3.83,14.48,58.91,58.91,0,0,1,.56,7.52,45.81,45.81,0,0,1-.62,7.56,31.13,31.13,0,0,1-2.25,7.36c-.29.59-.61,1.16-.91,1.74l-.24.43-.32.44a6.6,6.6,0,0,1-.68.86l-.77.74a8.12,8.12,0,0,1-.81.64,11.85,11.85,0,0,1-1.7,1.08,31.45,31.45,0,0,1-7.22,2.7,59.34,59.34,0,0,1-7.42,1.37,85,85,0,0,1-15,.49A87.43,87.43,0,0,1,680,753.76a50.48,50.48,0,0,1-7.14-2.12A17,17,0,0,1,666.53,747.71Zm.3-.27a16.3,16.3,0,0,0,6.22,3.67,41.48,41.48,0,0,0,7.11,1.75,84.42,84.42,0,0,0,14.64.95,114,114,0,0,0,14.56-1.16c2.4-.38,4.78-.81,7.1-1.41a28.8,28.8,0,0,0,6.6-2.47,12,12,0,0,0,2.65-1.92,4.26,4.26,0,0,0,.47-.58l.23-.29.21-.38c.28-.51.57-1,.84-1.52a30.17,30.17,0,0,0,2.21-6.71,42.39,42.39,0,0,0,.78-7.13,51.67,51.67,0,0,0-.38-7.24,61.21,61.21,0,0,0-3.41-14.13,57.91,57.91,0,0,0-6.62-13,51.79,51.79,0,0,0-4.55-5.69,37.78,37.78,0,0,0-5.48-4.79,36,36,0,0,0-3-2c-.52-.31-1.08-.55-1.61-.83a15.24,15.24,0,0,0-1.64-.77l-1.69-.67c-.56-.23-1.16-.34-1.74-.52a26.4,26.4,0,0,0-3.53-.76,12.05,12.05,0,0,0-1.8-.17c-.6,0-1.2-.1-1.8-.1l-1.8.06-.9,0c-.29,0-.57.09-.86.13a16.66,16.66,0,0,0-6.42,2.54,28.89,28.89,0,0,0-5.29,4.66,43.45,43.45,0,0,0-4.25,5.74,71.08,71.08,0,0,0-3.46,6.29c-1.07,2.15-2,4.35-2.92,6.59A83.86,83.86,0,0,0,663,719.49,52.91,52.91,0,0,0,661.87,734C662.17,738.79,663.59,743.73,666.83,747.44Z"/><path class="cls-34" d="M775.25,746.55a78.2,78.2,0,0,0,13.26-3c2.16-.68,4.29-1.44,6.38-2.31a29.43,29.43,0,0,0,5.88-3.12l.39-.12a.52.52,0,0,0-.31.08.62.62,0,0,0-.15.1.84.84,0,0,1,.15-.11.62.62,0,0,1,.33-.08l-.39.13c2.41-2,3.89-5.11,5.05-8.16a52.49,52.49,0,0,0,2.49-9.6,68.12,68.12,0,0,0,.44-19.8c-.86-6.49-2.8-13-6.75-18a19.34,19.34,0,0,0-7.27-5.72,21.12,21.12,0,0,0-2.18-.81c-.75-.18-1.49-.44-2.26-.55s-1.55-.24-2.31-.31a14,14,0,0,0-2.24,0,16.24,16.24,0,0,0-8.3,3.37,30.12,30.12,0,0,0-6.55,6.77,60.24,60.24,0,0,0-8.45,17.46,74.23,74.23,0,0,0-3.2,19.44A58.09,58.09,0,0,0,762,741.93l-.36.16a50.66,50.66,0,0,1-5-19.78,68.22,68.22,0,0,1,2.16-20.5,56,56,0,0,1,8.7-18.91,34.46,34.46,0,0,1,7.61-7.54,20.09,20.09,0,0,1,10.33-3.73,18.83,18.83,0,0,1,2.81,0c.91.11,1.79.3,2.68.44s1.75.49,2.62.73a23.05,23.05,0,0,1,2.53,1,22.8,22.8,0,0,1,8.29,6.87,32.2,32.2,0,0,1,4.75,9.41,49.49,49.49,0,0,1,2.09,10.15,69.8,69.8,0,0,1-1,20.46,53.79,53.79,0,0,1-2.91,9.85c-.33.79-.66,1.59-1.06,2.36a25.26,25.26,0,0,1-1.27,2.27,14.49,14.49,0,0,1-3.49,4l-.38.13a.65.65,0,0,0,.31-.08,1,1,0,0,0,.14-.11.63.63,0,0,1-.15.12.71.71,0,0,1-.32.08l.38-.13a30.26,30.26,0,0,1-6.26,3.07q-3.22,1.22-6.54,2.11A78.13,78.13,0,0,1,775.29,747Z"/><path class="cls-34" d="M736.19,754.88a2.53,2.53,0,0,1,1.67-1.17,9.35,9.35,0,0,1,2-.33,12.82,12.82,0,0,1,4.13.41,9.33,9.33,0,0,1,3.8,2,4.33,4.33,0,0,1,.74.94,2.51,2.51,0,0,1,.37,1.28,4.33,4.33,0,0,1-.68,2.32,6.8,6.8,0,0,1-1.5,1.75,5.05,5.05,0,0,1-2.18,1.14,3.23,3.23,0,0,1-.71.07c-.13,0-.26,0-.38,0l-.31-.06a8.83,8.83,0,0,1-1.1-.32,12.22,12.22,0,0,1-2-1,10.32,10.32,0,0,1-3.11-3,7.06,7.06,0,0,1-1-1.95A2.87,2.87,0,0,1,736.19,754.88Zm.18.08a2.16,2.16,0,0,0,.16,1.84,4.61,4.61,0,0,0,1.28,1.4,21.45,21.45,0,0,0,3.3,1.94,17.11,17.11,0,0,0,1.7.77,7.37,7.37,0,0,0,.83.28l.19,0,.12,0h.29a4.27,4.27,0,0,0,2.68-1.8,3,3,0,0,0,.59-1.46,1.23,1.23,0,0,0-.13-.65,3.31,3.31,0,0,0-.47-.68,8.37,8.37,0,0,0-3.19-1.95,15.1,15.1,0,0,0-3.83-.93,6,6,0,0,0-2,.1A2.15,2.15,0,0,0,736.37,755Z"/><path class="cls-34" d="M764.48,756.73a3.22,3.22,0,0,0,.75,2.85,3.29,3.29,0,0,0,2.4,1.38c.76,0,1.49-.81,2.12-1.52a12.71,12.71,0,0,0,1.67-2.34,2.6,2.6,0,0,0,.43-2.11,1.42,1.42,0,0,0-.78-.66,3.77,3.77,0,0,0-1.34-.21,8.3,8.3,0,0,0-2.94.66A4.44,4.44,0,0,0,764.48,756.73Zm-.1,0a5,5,0,0,1,2.3-2.12,8.68,8.68,0,0,1,3-1,4.26,4.26,0,0,1,1.59.06,2.15,2.15,0,0,1,1.33.87,2.09,2.09,0,0,1,.26,1.58,4.86,4.86,0,0,1-.55,1.49,10.43,10.43,0,0,1-1.94,2.49,8.55,8.55,0,0,1-1.24,1,2.37,2.37,0,0,1-1.53.44A3.84,3.84,0,0,1,765,759.7,3.61,3.61,0,0,1,764.38,756.69Z"/><path class="cls-34" d="M579.24,657a48.72,48.72,0,0,1-4.41-15.49,56,56,0,0,1,.42-16.34,73.19,73.19,0,0,1,4.61-15.78,84.72,84.72,0,0,1,8-14.41,72.41,72.41,0,0,1,5.1-6.52l2.7-3,2.6-2.9a94.17,94.17,0,0,0,9.24-12.05,37.06,37.06,0,0,0,3.22-6.5,27.23,27.23,0,0,0,1.75-6.83,26.81,26.81,0,0,0-.08-7.1A37.26,37.26,0,0,0,610.7,543l-1.43-4.25,4.24.46c.62.06,1,.14,1.53.23s.93.19,1.39.31a28,28,0,0,1,2.71.79,27.56,27.56,0,0,1,5.11,2.3,26.28,26.28,0,0,1,8.34,7.35,24.47,24.47,0,0,1,2.7,4.8c.39.82.65,1.7,1,2.55s.52,1.72.68,2.6l.27,1.31.19,1.32c.14.88.18,1.76.24,2.64s0,1.76,0,2.63l-.17,2.6h-.4a36.46,36.46,0,0,0-1.38-10.13c-.21-.83-.54-1.62-.82-2.43s-.65-1.57-1.07-2.32a23.21,23.21,0,0,0-2.8-4.26,24.48,24.48,0,0,0-8-6.3,28.56,28.56,0,0,0-9.73-2.9l.3-.4A34.71,34.71,0,0,1,616,557.56a35.48,35.48,0,0,1-5.22,15,84.87,84.87,0,0,1-9.62,12.67c-1.75,2-3.6,3.9-5.36,5.85a79.4,79.4,0,0,0-17.93,34.71,56.17,56.17,0,0,0,1.72,31.12Z"/><path class="cls-34" d="M743.49,554.59a25.82,25.82,0,0,0,2.69-11.48,30.42,30.42,0,0,0-.19-3.93,38.26,38.26,0,0,0-1.68-7.69,45.44,45.44,0,0,0-3-7.17h2.51a33,33,0,0,1-6.51,8.13,50.94,50.94,0,0,1-8.16,6.21,70,70,0,0,1-9,4.74,93.55,93.55,0,0,1-9.51,3.51,134,134,0,0,1-19.7,4.33c-1.65.25-3.34.43-5,.67s-3.24.43-4.84.74c-3.22.55-6.4,1.29-9.54,2.15s-6.22,1.94-9.26,3.09-6,2.52-8.9,4a97,97,0,0,0-16.45,10.42,76.52,76.52,0,0,0-23.62,30.78l-.66-.22a63.3,63.3,0,0,1,8.63-18.12,74,74,0,0,1,13.51-15.05,84.55,84.55,0,0,1,8.09-6.12,100.67,100.67,0,0,1,8.75-5.14c3-1.52,6.13-2.87,9.29-4.08s6.4-2.2,9.67-3,6.57-1.58,9.9-2.1c1.66-.31,3.33-.5,5-.73s3.26-.42,4.89-.68a121.32,121.32,0,0,0,19.1-4.38,91,91,0,0,0,9.14-3.41,70.07,70.07,0,0,0,8.65-4.37,55.05,55.05,0,0,0,7.83-5.59,29.61,29.61,0,0,0,6.18-7.09l1.36-2.3,1.15,2.29A42,42,0,0,1,748,539a28.82,28.82,0,0,1-.71,8.28,24.45,24.45,0,0,1-3.16,7.62Z"/><path class="cls-34" d="M691.61,573.27a46.8,46.8,0,0,1,12.73-8,94,94,0,0,1,14.34-4.63c9.72-2.43,19.62-4.26,28.65-8.32a94.08,94.08,0,0,0,13-7.2,111.37,111.37,0,0,0,11.94-8.81,67.44,67.44,0,0,0,10.16-10.61,35.57,35.57,0,0,0,3.79-6.13,17,17,0,0,0,1.87-6.59l.26-5.64,2.65,5a122.23,122.23,0,0,1,6.71,15.06,142.48,142.48,0,0,1,4.82,15.71,125.26,125.26,0,0,1,2.86,16.23,104.58,104.58,0,0,1,.43,16.51,90.39,90.39,0,0,1-7.49,32,87.7,87.7,0,0,1-18.55,26.82l-.3-.27a109,109,0,0,0,9.23-13.24c1.45-2.25,2.6-4.68,3.84-7,.6-1.19,1.09-2.44,1.63-3.65l.8-1.83c.26-.62.47-1.25.7-1.88A90,90,0,0,0,800,591.42a95.19,95.19,0,0,0,1.78-15.8,109.86,109.86,0,0,0-.53-15.91,133.7,133.7,0,0,0-2.51-15.77,140.57,140.57,0,0,0-4.32-15.42,116,116,0,0,0-6.15-14.73l2.91-.68a19.91,19.91,0,0,1-2.32,7.73,38.23,38.23,0,0,1-4.21,6.54,70,70,0,0,1-10.77,10.85A114.38,114.38,0,0,1,761.5,547l-3.24,2-3.3,1.84c-1.08.64-2.25,1.17-3.39,1.74l-1.71.83-1.76.72c-9.41,3.93-19.42,5.51-29.15,7.68A91.07,91.07,0,0,0,704.64,566a45.83,45.83,0,0,0-12.76,7.59Z"/><path class="cls-34" d="M815.19,652.83l-.1-1.45c0-.48,0-1-.05-1.43-.13-1-.21-1.9-.36-2.84s-.29-1.89-.51-2.82-.39-1.87-.67-2.79-.53-1.84-.83-2.75-.62-1.82-1-2.7-.71-1.79-1.13-2.67-.83-1.74-1.29-2.6-.92-1.71-1.41-2.55l-1.56-2.47-1.69-2.4c-.62-.76-1.22-1.54-1.83-2.33a55.56,55.56,0,0,0-8.67-8.37l.12-.25,2.67,1.55,2.53,1.75,2.41,1.91,2.28,2.08a47.19,47.19,0,0,1,7.57,9.69,56.14,56.14,0,0,1,5.18,11.26c.34,1,.59,2,.89,3s.43,2.06.66,3.1.34,2.11.5,3.17.16,2.16.27,3.26Z"/><path class="cls-34" d="M793.79,827.19c9.15-5.7,14.44-16.49,15.35-27l-.21.52c5.31-5.54,8.46-13.28,9.63-20.79a39.59,39.59,0,0,0,0-10.43c-.22-2.11-.42-4.08.88-5.87a68.54,68.54,0,0,0,5.08-7.23,43.4,43.4,0,0,0,3.58-8.93,57.09,57.09,0,0,0,1.9-21.13c-.77-7.57-3.28-15.21-8.66-20.77l-.07.72c5.64-5.92,8.26-14,8.93-22a46,46,0,0,0-4-23.54,24.28,24.28,0,0,0-6.94-9c-.78-.58-2.34-.08-3.13.22-.33.13-2.14.94-1.41,1.49,5.59,4.22,8.41,11.37,9.79,18a46.29,46.29,0,0,1-1.12,23.82,29.67,29.67,0,0,1-6.53,11.21c-.22.23-.3.47-.07.71,6,6.14,8.22,15,8.59,23.32a52.88,52.88,0,0,1-4.74,24.86c-1.57,3.29-3.83,5.92-5.91,8.87-1.85,2.63-1.08,5.93-.73,8.92A32.21,32.21,0,0,1,812.61,786a38.07,38.07,0,0,1-6.29,12.94c-.42.54-.86,1.07-1.33,1.57a2.8,2.8,0,0,0-.77,2,37.09,37.09,0,0,1-4,12.94,29.46,29.46,0,0,1-10.15,11.43c-.82.51-.53,1.1.33,1.19a5.75,5.75,0,0,0,3.41-.93Z"/><path class="cls-34" d="M776.44,849.19h0l-.11,0c1.94-2.92,3.75-5.4,5.33-8a76,76,0,0,0,4.23-7.66c1.27-2.6,2.37-5.3,3.42-8.13.51-1.41,1.07-2.86,1.54-4.36s1-3,1.49-4.69l.39-.06a29,29,0,0,1-.28,9.7,37.37,37.37,0,0,1-3,9.27,33.9,33.9,0,0,1-9,11.43,39.39,39.39,0,0,1-4,2.8l0,0h-.07Z"/><path class="cls-34" d="M558,728.78a37,37,0,0,1-7.6-14.38A43.38,43.38,0,0,1,549.21,698a56.8,56.8,0,0,1,13.56-29.87,69.35,69.35,0,0,1,12.29-11.29,60.11,60.11,0,0,1,14.8-7.71,82.94,82.94,0,0,1,8-2.31,73.2,73.2,0,0,1,8.17-1.34,69.62,69.62,0,0,1,16.39.15v.5a158.18,158.18,0,0,0-15.79,2.82,97.24,97.24,0,0,0-15,4.84,95.81,95.81,0,0,0-13.84,7.15,60.41,60.41,0,0,0-12.06,9.86,53.43,53.43,0,0,0-14.07,27.55,41.27,41.27,0,0,0,.21,15.7,35.11,35.11,0,0,0,2.46,7.53,37.58,37.58,0,0,0,4,6.9Z"/><path class="cls-34" d="M562.63,720.8a57,57,0,0,0-4.1,23.17A71.13,71.13,0,0,0,563,766.34a72.54,72.54,0,0,0,11.16,19.94,64.28,64.28,0,0,0,17.93,15.43l0,0a.25.25,0,0,1,.09.34.26.26,0,0,1-.29.11,46.79,46.79,0,0,1-11.18-5.25A52.58,52.58,0,0,1,571.3,789a62.15,62.15,0,0,1-13-20.93,61,61,0,0,1-3.79-24.32,48.87,48.87,0,0,1,2.2-12.17,41.86,41.86,0,0,1,5.47-11.07.25.25,0,0,1,.35-.06.25.25,0,0,1,.08.3Z"/><path class="cls-34" d="M576.37,793.05A63.25,63.25,0,0,0,586.25,818l1.89,2.75c.63.92,1.35,1.78,2,2.67s1.38,1.74,2.08,2.59l1.06,1.29,1.12,1.23c.74.82,1.48,1.64,2.28,2.41s1.55,1.57,2.36,2.31c1.59,1.53,3.25,3,5,4.32.87.64,1.7,1.36,2.61,1.94l2.82,1.93a40.58,40.58,0,0,1,5.71,5,44,44,0,0,1,4.7,5.72,61.43,61.43,0,0,1,3.81,6.23,55.52,55.52,0,0,1,5,13.62,35.52,35.52,0,0,1,.83,7.31,14.78,14.78,0,0,1-1.72,7.47h0l-1.09-1.67a23.93,23.93,0,0,0,3.12-.15,30.86,30.86,0,0,0,3.15-.52,30,30,0,0,0,6.14-2h0a.19.19,0,0,1,.26.1.19.19,0,0,1-.08.25,32,32,0,0,1-6.09,2.5,29.6,29.6,0,0,1-6.47,1.17.17.17,0,0,1-.17-.23v0h0a9.64,9.64,0,0,0,.76-3.28,18.51,18.51,0,0,0-.06-3.41,36.73,36.73,0,0,0-1.36-6.72,59,59,0,0,0-5.42-12.6,54.45,54.45,0,0,0-8.17-11,37.21,37.21,0,0,0-5.18-4.45c-1.87-1.31-3.8-2.65-5.57-4.13A78.83,78.83,0,0,1,583.8,819.4c-4.53-8-7.66-17-7.83-26.35a.2.2,0,0,1,.2-.2.2.2,0,0,1,.2.17Z"/><path class="cls-34" d="M687.92,940.26c-.89-6.4-1.36-12.77-1.7-19.13-.1-1.59-.19-3.17-.23-4.76l-.21-4.76c-.11-3.17-.14-6.35-.28-9.51l-.29-19c-.11-6.33-.12-12.64-.45-19.06v0a.25.25,0,0,1,.49-.06,131.88,131.88,0,0,1,2.59,19c.49,6.36.78,12.74.93,19.11s.17,12.76.1,19.13-.2,12.76-.45,19.13a.25.25,0,0,1-.25.24.26.26,0,0,1-.24-.22Z"/><path class="cls-34" d="M764.46,847.59a53,53,0,0,1,5.42,11.94q1,3.13,1.77,6.33c.53,2.13.92,4.28,1.3,6.43a118.92,118.92,0,0,1,1.5,13c.23,4.37.21,8.75.06,13.12s-.66,8.74-1.33,13.07a103.19,103.19,0,0,1-2.88,12.85,77.82,77.82,0,0,1-4.74,12.31,50.66,50.66,0,0,1-7.19,11l-.34-.21c4.48-7.28,7.28-15.48,9.21-23.78a142.9,142.9,0,0,0,3.28-25.4,161,161,0,0,0-.7-25.6c-1-8.48-2.48-17-5.73-24.9Z"/><path class="cls-34" d="M790.2,944.7a1.58,1.58,0,0,1,.13-.31l.11-.18.1-.17.05-.09v0s0-.09,0,.12l-.14-.79-.3-1.62-.53-3.24-1-6.45-.92-6.45c-.31-2.15-.55-4.3-.84-6.45-.62-4.29-1-8.6-1.58-12.89s-.89-8.63-1.44-12.83-1.08-8.46-1.76-12.67-1.47-8.41-2.26-12.61-1.78-8.38-2.85-12.54c-.49-2.1-1.09-4.18-1.65-6.27-.28-1-.59-2.07-.93-3.1s-.65-2.07-1-3.1l.36-.2a81.84,81.84,0,0,1,5.24,11.95c1.48,4.09,2.77,8.25,3.9,12.45a187.64,187.64,0,0,1,4.95,25.61c.93,8.65,1.6,17.31,2.19,26q.43,6.51.73,13l.26,6.52.09,3.25,0,1.63v.83a.39.39,0,0,1-.05.15l0,0-.07.08-.13.17-.12.15-.08,0Z"/><path class="cls-34" d="M838.06,966.45a35,35,0,0,1,7.81,4.83c.27.24-.34-.39,0,.06.12.13.24.25.35.38s.41.48.6.73c.48.61.92,1.25,1.36,1.89,3.34,4.76,6.54,9.61,9.71,14.48.65,1,1.28,2,1.91,3l.33.52c.22.35-.25-.49,0,0a13.57,13.57,0,0,1,.69,1.5,30.92,30.92,0,0,1,1,4.25c.32,1.76.58,3.53.84,5.3.39,2.71,1.1,5.45,1.32,8.18a47.21,47.21,0,0,1-.38,9.65q-.13,1.15-.36,2.31c0,.13-.06.26-.08.39s-.15.57-.05.23-.11.28-.15.38A12.77,12.77,0,0,1,861,1028c-1.09,1.26-2.07,1.76-3.66,1.37a8.73,8.73,0,0,1-2.75-1,2.17,2.17,0,0,1-.89-1.12c-1.11-2.52-5.76-1.66-4.48,1.25a8.27,8.27,0,0,0,4.13,4,12,12,0,0,0,7,1.33c3.53-.63,5.75-3.88,7.13-6.93,1.21-2.65,1.3-5.94,1.46-8.8a38.74,38.74,0,0,0-.53-9.8c-.7-3.55-1-7.15-1.7-10.71a22.19,22.19,0,0,0-3-8.11c-3.31-5.23-6.76-10.38-10.26-15.49a42.36,42.36,0,0,0-3.67-5c-2.71-2.88-6.42-4.7-9.9-6.47a2.16,2.16,0,1,0-1.8,3.86Z"/><path class="cls-34" d="M851,996.6c.61,3,1.61,5.83,2.34,8.76a26.38,26.38,0,0,1,.72,4.31c0,.63.08,1.27.06,1.9,0-.6-.06.34-.09.5-.62,3.56-2.23,7-3.63,10.32-1.73,4.11-3.57,8.16-5.26,12.28-.37.92-.75,1.84-1.1,2.77l-.36,1c-.07.22-.33,1-.27.82a3.07,3.07,0,0,1-1.07,1.37,5.15,5.15,0,0,1-1.76.86,8.33,8.33,0,0,1-4.73-.22,6.8,6.8,0,0,1-4.06-3.83c-1-2.25-5.82-1.71-4.64,1,2,4.56,6.78,7.13,11.64,7.27a11.72,11.72,0,0,0,6.17-1.42,7.75,7.75,0,0,0,3.54-4.57c2.9-8.52,7.71-16.38,10.07-25.09,1.66-6.07-1.44-12.13-2.63-18a2.7,2.7,0,0,0-2.71-2c-1,0-2.48.72-2.23,2Z"/><path class="cls-34" d="M811.69,1008.93a66.57,66.57,0,0,1-1.63,12.09c-.68,3-1.57,5.84-2.29,8.78-1.31,5.4-1.73,11.86,2.14,16.37a13.14,13.14,0,0,0,8.37,4.11c3.55.48,7.24.1,9.66-2.85,2.18-2.66,2.93-6.23,3.8-9.48a131.47,131.47,0,0,1,4.3-12.49c1.61-4.25,3.42-8.62,4.19-13.12a20.45,20.45,0,0,0,0-5.47c-.25-2.69-.56-5.37-.8-8s-5.05-1.53-4.83,1c.18,2.16.42,4.33.64,6.49a32.33,32.33,0,0,1,.37,4.94c-.21,3.1-1.55,6.48-2.6,9.46-1.49,4.2-3.27,8.3-4.68,12.52-1.09,3.27-1.66,6.72-2.91,9.93a8.38,8.38,0,0,1-1.52,2.64,2.24,2.24,0,0,1-.78.49,6.74,6.74,0,0,1-1.78.12,10.09,10.09,0,0,1-7.18-2.78c-3.38-3.61-2.74-9.19-1.69-13.56.73-3,1.66-6,2.35-9.08a71.87,71.87,0,0,0,1.69-13c.05-1.26-1.59-1.7-2.56-1.51a2.69,2.69,0,0,0-2.28,2.47Z"/><path class="cls-34" d="M809.26,1006c-1.82,1.68-3.54,3.2-5.11,4.89a33.26,33.26,0,0,0-2.27,2.6c-.75.9-1.38,1.87-2.15,2.86l-.1,0a17.16,17.16,0,0,1,1.59-3.25,17.48,17.48,0,0,1,2.2-2.87,21.41,21.41,0,0,1,5.8-4.29Z"/><path class="cls-34" d="M803.64,1009.87a6.49,6.49,0,0,1,3.29.32,8.2,8.2,0,0,1,2.87,1.8,9.8,9.8,0,0,1,1.94,2.7,9.32,9.32,0,0,1,.92,3.14v0h-.1v0a16,16,0,0,0-3.46-5.16,10,10,0,0,0-2.51-1.81,10.27,10.27,0,0,0-3-.93Z"/><path class="cls-34" d="M654.78,980.17a43.29,43.29,0,0,0,5.09,16.58,39,39,0,0,0,10,11.41,57.14,57.14,0,0,0,12.62,7.2c5.73,2.47,11.53,4.67,17.14,7.42a150.68,150.68,0,0,1,19.29,11.11,3.12,3.12,0,0,0,3.53-.14,1.58,1.58,0,0,0-.11-2.62A165.75,165.75,0,0,0,688,1013.35c-8.7-3.37-17-8.14-22.27-16a38.88,38.88,0,0,1-6-17.35c-.28-2.46-5.27-2.23-5,.2Z"/><path class="cls-34" d="M661.68,1147.46c-2.91,7.45-4.94,15.49-4.22,23.55a34.34,34.34,0,0,0,5.64,15.85,49.22,49.22,0,0,0,4.72,6c1.53,1.66,3.44,3.11,4.83,4.88a11.76,11.76,0,0,1,1.77,4.81c.53,2.42.93,4.87,1.55,7.27A43,43,0,0,0,688.92,1231c.66.61,2.31.34,3.1.23.25,0,2.23-.42,1.69-.92a42.06,42.06,0,0,1-12.31-19.19c-.72-2.48-1.21-5-1.71-7.55a19.88,19.88,0,0,0-1.56-5.41c-.92-1.75-2.63-3-4-4.39a53.57,53.57,0,0,1-5-5.76,34.06,34.06,0,0,1-6.44-15.14c-1.34-8.75.79-17.61,4-25.73.2-.51-2.33-.47-2.54-.46-.65,0-2.16.09-2.45.83Z"/><path class="cls-34" d="M697.72,1221.68a24.62,24.62,0,0,0-2.35,4.22,34.35,34.35,0,0,0-1.67,4.47,44.59,44.59,0,0,0-1.78,9.25,40.38,40.38,0,0,0,2,17.91,26.59,26.59,0,0,0,1.87,3.87c.34.62.75,1.19,1.11,1.79s.8,1.13,1.27,1.64a20.32,20.32,0,0,0,6.38,5.09,26.7,26.7,0,0,0,7.84,2.7,29.51,29.51,0,0,0,8.45.09,33.31,33.31,0,0,0,15.86-6.2c.57-.4,1.07-.87,1.61-1.3s.95-.94,1.45-1.4.79-1,1.22-1.49a20,20,0,0,0,1.13-1.77,38.12,38.12,0,0,0,2-4,34.66,34.66,0,0,0,1.52-4.17,28.25,28.25,0,0,0-.25-17.44,31,31,0,0,0-4.36-8.12c-.49-.63-1-1.26-1.47-1.88l-1.6-1.8c-.56-.58-1.11-1.18-1.68-1.76l-1.79-1.68,0,0a.25.25,0,0,1,0-.35.24.24,0,0,1,.32,0,43.14,43.14,0,0,1,7.51,6.38,32.43,32.43,0,0,1,5.52,8.18,28.39,28.39,0,0,1,2.45,9.57,33,33,0,0,1-.78,9.85,38.8,38.8,0,0,1-3.44,9.28,22.68,22.68,0,0,1-2.76,4.15c-.58.6-1.1,1.26-1.72,1.81s-1.22,1.13-1.88,1.64a34.13,34.13,0,0,1-8.58,4.94,36.5,36.5,0,0,1-9.59,2.53,33.6,33.6,0,0,1-9.91-.26,29.84,29.84,0,0,1-9.32-3.4,25,25,0,0,1-7.49-6.48,28.25,28.25,0,0,1-4.55-8.8,41.21,41.21,0,0,1-.9-19.58,43.92,43.92,0,0,1,2.82-9.45,28.77,28.77,0,0,1,5.23-8.36.25.25,0,0,1,.38.31Z"/><path class="cls-34" d="M739.55,1269.31a31.74,31.74,0,0,0,20.36-4.87,25.88,25.88,0,0,0,7.06-6.67l.68-1,.61-1a18.29,18.29,0,0,0,1.07-2.06,29.69,29.69,0,0,0,1.59-4.63,40,40,0,0,0,1.32-9.95c0-.84,0-1.69,0-2.53l-.25-2.53c-.33-1.66-.54-3.37-1-5a39.78,39.78,0,0,0-4-9.75l-.64-1.21-.33-.61-.39-.56c-.51-.76-1-1.52-1.53-2.32a23.38,23.38,0,0,0-1.67-2.28c-.56-.78-1.15-1.53-1.71-2.35l0-.07a.24.24,0,0,1,.36-.32l2.18,1.86a22.77,22.77,0,0,1,2.11,1.94l2,2.07.5.52.44.56.89,1.14a39.31,39.31,0,0,1,3.2,4.77c.48.84.86,1.72,1.29,2.58.2.44.43.86.61,1.31l.49,1.35a37.53,37.53,0,0,1,1.1,22.7,33.27,33.27,0,0,1-2,5.43,21.58,21.58,0,0,1-1.42,2.53l-.79,1.22c-.28.4-.6.76-.9,1.14a27.37,27.37,0,0,1-8.92,7.26,31.3,31.3,0,0,1-11,3.25,26.44,26.44,0,0,1-11.36-1.45.24.24,0,0,1,.11-.47Z"/><path class="cls-34" d="M751.65,1162.58c4.37,5.81,9.88,10.63,15.19,15.55,5.88,5.45,11.61,11.1,16.23,17.69a64.7,64.7,0,0,1,6.63,11.86,46,46,0,0,1,3.87,13.51c.78,8.6-2,17.43-6.49,24.7-4.07,6.59-11,14.19-19.41,14.1-1,0,.56.72.73.78a10.38,10.38,0,0,0,3.35.7c7.43.07,13.72-5.46,17.94-11.07a43.19,43.19,0,0,0,8.84-24.34,37,37,0,0,0-2.47-13.26,65.91,65.91,0,0,0-6-12.6c-4.39-7.12-10.11-13.22-16.16-18.94s-12.5-11.06-17.51-17.71c-.51-.68-2.13-.88-2.91-1-.22,0-2.11-.31-1.82.07Z"/><path class="cls-34" d="M947,1105a28.68,28.68,0,0,1,10,2.12,22.71,22.71,0,0,1,8.43,6.21,25.12,25.12,0,0,1,4.94,9.43c.22.86.46,1.73.6,2.61a23.31,23.31,0,0,1,.38,2.64l.11,1.33v1.38l0,1.38-.19,1.36a25.13,25.13,0,0,1-3.88,10,31.83,31.83,0,0,1-7.16,7.74A28.89,28.89,0,0,1,951,1156a23.68,23.68,0,0,1-10.19.89l0-.5a23.6,23.6,0,0,0,9.65-1.8,26.88,26.88,0,0,0,8.12-5.28,27.62,27.62,0,0,0,5.74-7.66,28,28,0,0,0,2.91-8.83l.18-1.13,0-1.14,0-1.14-.06-1.19c0-.39,0-.79-.05-1.19l-.12-1.18a23.2,23.2,0,0,0-.36-2.34,22.68,22.68,0,0,0-.52-2.31c-.2-.77-.49-1.49-.74-2.25s-.62-1.45-1-2.14a17.4,17.4,0,0,0-1.23-2,20.72,20.72,0,0,0-7.12-6.34,29.74,29.74,0,0,0-9.4-3Z"/><path class="cls-34" d="M967.94,1130.13c5.15,7.86,7.1,17.33,4.13,26.39a34.83,34.83,0,0,1-15.18,18.75,39.55,39.55,0,0,1-13.22,4.67c-4.8.89-9.72,1.08-14.5,2.06a16.12,16.12,0,0,0-7.45,3.51c-1.48,1.26-2.86,2.63-4.24,4-3.83,3.83-7.66,7.65-11.86,11.09a85.35,85.35,0,0,1-18.1,11.44,87.56,87.56,0,0,1-27,7.86,46.84,46.84,0,0,1-24.14-3.45,38.48,38.48,0,0,1-23-33,40.52,40.52,0,0,1,.13-5.51,3.42,3.42,0,0,0-1.86-2.92c-.81-.44-2-.48-2.14.69-1.41,16.1,6.66,31.71,19.93,40.7a48,48,0,0,0,23.72,8c9.82.64,19.77-1.66,29-4.92A88.36,88.36,0,0,0,904,1208.16a111.68,111.68,0,0,0,14.1-12.15c1.63-1.62,3.24-3.27,4.9-4.86a21.4,21.4,0,0,1,4.45-3.61c3.86-2,8.77-2.06,13-2.58,5.26-.65,10.59-1.54,15.47-3.68a37.06,37.06,0,0,0,18.3-17.49,33.32,33.32,0,0,0,.72-27.3,42.8,42.8,0,0,0-3.88-7.29c-.53-.82-1.72-2-2.82-1.61s-.7,1.84-.24,2.54Z"/><path class="cls-34" d="M864.89,1029.49q2.28,10.79,5,21.47c1.81,7.12,3.71,14.27,5.46,21.46.87,3.59,1.73,7.19,2.55,10.79s1.66,7.14,2.65,10.68c2,7.06,4.28,14,6.84,20.93l-1.82.72c-2.82-6.85-5.39-13.8-7.63-20.88-1.12-3.53-2.12-7.15-3-10.71s-1.91-7.1-2.9-10.65c-2-7.08-4.13-14.13-6.19-21.23s-4-14.28-5.77-21.46Z"/><path class="cls-34" d="M644.49,942.16c-21.58,4-42.27,13.43-58.56,28.3a110.46,110.46,0,0,0-25.9,36.13,92.08,92.08,0,0,0-7.15,49.2,114.11,114.11,0,0,0,13.83,41.88,94.26,94.26,0,0,0,10.45,15.13,65.8,65.8,0,0,0,10.51,9.5c8.24,6.25,8,18.46,6.38,27.63-2.45,13.81-8.57,27-16.06,38.79a119.28,119.28,0,0,1-13.31,17.36,55.33,55.33,0,0,0-8.25,11.27c-5.26,9.69-7.33,21.26-2.45,31.56,3.19,6.75,8.69,12,14.78,16.16a40,40,0,0,0,23.85,7.23c14.3-.45,28.38-8.4,37-19.7,3.07-4,5.22-8.8,7.33-13.38,2.29-5,4.33-10,6.16-15.19a206.37,206.37,0,0,0,9.39-36.44c4-24.59,3.68-51.91-8.6-74.27a70,70,0,0,0-10.94-14.93c-5.17-5.34-11.24-9.74-16.59-14.91-10.09-9.75-19.5-21.66-21.44-36s3.48-30.13,13.06-40.88c8.42-9.45,20.06-14.64,32.37-16.76a95.52,95.52,0,0,1,17.06-1.24,3.16,3.16,0,0,0,2.92-1.87c.34-1.17-.69-1.76-1.71-1.77-12.2-.12-24.71,1.57-35.88,6.71a55.92,55.92,0,0,0-28,28.73c-5.78,13.27-6.8,27.95-.78,41.31,6.09,13.53,17.34,24.21,28.56,33.55a71,71,0,0,1,21.4,30.06c4.37,11.69,6,24.23,6,36.67.05,24.44-5.74,49.11-15.12,71.61a146.37,146.37,0,0,1-6.3,13.35A39.92,39.92,0,0,1,617,1260a42.87,42.87,0,0,1-19.54,8.36,35.06,35.06,0,0,1-23.22-5.1c-6.2-3.8-12-9-15.32-15.59a28.06,28.06,0,0,1-2.74-16.32,38.34,38.34,0,0,1,4.87-14,63.33,63.33,0,0,1,8.58-11.23,130.84,130.84,0,0,0,23.16-36.93,93.56,93.56,0,0,0,5.85-19.18,48.42,48.42,0,0,0,.57-16.63,22.37,22.37,0,0,0-5.81-12.33,60.69,60.69,0,0,0-5.08-4,50.74,50.74,0,0,1-5.28-5c-8.65-9.3-14.91-20.9-19.31-32.75a103.4,103.4,0,0,1-6.38-45.74c1.59-16.33,8.16-31.75,17.58-45.1,13.9-19.71,34.75-33.49,57.64-40q5.89-1.69,11.93-2.82c1-.18,2.42-1.09,2.39-2.26s-1.49-1.4-2.41-1.23Z"/><path class="cls-29" d="M743.27,744.34a25.69,25.69,0,0,1,9.81-4.87,29,29,0,0,1,11.13-.84A21,21,0,0,1,775,743.05a16.52,16.52,0,0,1,3.77,4.59,13.31,13.31,0,0,1,1.52,5.49l-.36.17a20.1,20.1,0,0,0-2.8-4.26,18.08,18.08,0,0,0-3.85-3.29,22.93,22.93,0,0,0-9.61-3.15,41.21,41.21,0,0,0-10.23,0c-1.71.2-3.4.48-5.08.83s-3.37.74-5,1.24Z"/><path class="cls-33" d="M709.74,773.43a20.84,20.84,0,0,0,5.28-1.32c1.45-.53,2.79-1.1,4.16-1.67s2.75-1.17,4.15-1.82c.16-.09.36-.16.54-.24s.33-.19.52-.27l.56-.27.53-.31a9.79,9.79,0,0,0,2.32-1.75l.11-.11a.17.17,0,0,1,.24,0,.16.16,0,0,1,0,.13,6.72,6.72,0,0,1-.85,2.8l-.36.64-.45.58a8.38,8.38,0,0,1-1,1.08,15.89,15.89,0,0,1-4.81,3.21,15.3,15.3,0,0,1-5.66,1.19c-.49,0-1,0-1.46-.07s-1-.15-1.44-.27-.92-.31-1.37-.49l-1.28-.71a.16.16,0,0,1-.07-.23.2.2,0,0,1,.13-.09Z"/><path class="cls-33" d="M719.64,774.09a24.67,24.67,0,0,0,15.4,7.16,45.64,45.64,0,0,0,8.51,0,23,23,0,0,0,8-2.23,35.5,35.5,0,0,0,3.79-2.55c.2-.11.38-.23.6-.33a5.88,5.88,0,0,1,.74-.26,3.88,3.88,0,0,1,.82,0l.69.1a7.83,7.83,0,0,1,2.35,1.08,10.58,10.58,0,0,0,3.9,1.69,13.36,13.36,0,0,0,4-.08c.68-.13,1.36-.2,2-.36.31-.09.65-.11,1-.2s.61-.18.91-.27a10.69,10.69,0,0,0,3.31-1.77A15.16,15.16,0,0,0,780,769h.4a10.51,10.51,0,0,1-.08,4.86,11,11,0,0,1-2.3,4.6,11.19,11.19,0,0,1-4.35,3.06c-.41.15-.82.31-1.25.45a11,11,0,0,1-1.27.26,12.9,12.9,0,0,1-2.53.21,12.7,12.7,0,0,1-5-1.16,21.74,21.74,0,0,1-4-2.77,4.47,4.47,0,0,0-1.73-.89l-.44-.06c-.14,0-.2.05-.31,0l-.33.15c-.11.07-.24.19-.36.27a20.32,20.32,0,0,0-1.55,1.54c-.54.57-1.1,1.16-1.71,1.7a16.87,16.87,0,0,1-4.19,2.75,15.38,15.38,0,0,1-2.36.83,17.16,17.16,0,0,1-2.42.53,27.86,27.86,0,0,1-9.68-.15,23.82,23.82,0,0,1-9-3.72,17.82,17.82,0,0,1-6.17-7.19Z"/><path class="cls-27" d="M697.14,1222.31l-4.36,8.85-.12.24-1.35.85c.1-.28.19-.55.29-.82-10.42-9.74-12.81-19.81-14.4-26.52-.84-3.54-1.51-6.33-3-7.72-11.41-10.76-20.56-24.28-10.48-50.16.26.26.51.51.78.75a43,43,0,0,0,13.13,8.14c4.8,7.49,13,12.95,18.25,15.93l.09.24C682.26,1188.94,697.14,1222.31,697.14,1222.31Z"/><path class="cls-27" d="M975.51,1154h0a30.65,30.65,0,0,1-1.25,4.73,36.13,36.13,0,0,1-22.45,22,72.67,72.67,0,0,1-14.78,2.84c-4.9.57-9.14,1.07-11.81,2.94a58.7,58.7,0,0,0-6.77,6.21c-9.29,9.32-23.32,23.4-52,29a55.91,55.91,0,0,1-10.7,1.06,45.45,45.45,0,0,1-31-11.64,42.6,42.6,0,0,1-14.12-34.36l1-.72h0a141,141,0,0,0,16.47-14.19c2.52-2.52,5.06-4.8,7.5-6.84,26.82,58.66,50.83-5.33,88.19-8.19,0,0,17.75.2,25.28-20.34,0,0,7.16,17.16,19.42,11.66,0,0,1.68,1.08-4,6.78C964.49,1145,966.76,1157.79,975.51,1154Z"/><g id="Camada_7_cpia" data-name="Camada 7 cpia"><path class="cls-35" d="M756.54,528.39c-1.19,5-6.85,8.83-8.71,9.62A36,36,0,0,0,743,524.43l-.44-.81-.44.81c-1.09,2-8.92,11.33-20.92,17.59l1.79-3.75c-1,1.08-2,2.23-3.08,3.42a78.27,78.27,0,0,1-18.8,15.16l-.41.24a108,108,0,0,1-14,6.72c-23,9.19-42.74,6.91-47.9,5.91-.49-.09-1.1-1.53-1.12-2.35-.28-6.33-1.93-10.14-3.79-14.45l2.94,0a127,127,0,0,0,41.54-7.22h0a90.43,90.43,0,0,0,21.83-11.37C724.36,516.93,743.61,507.17,753,517,755.9,520,757.29,525.19,756.54,528.39Z"/><path class="cls-7" d="M714.67,522.89c-4.56,2.88-10.2,7.21-15.33,10.83-26.67,18.83-55.42,19.22-65.48,19.2-2.34-3.08-8.94-9.43-11.64-10.93A101.82,101.82,0,0,1,621,531.52c-.07-1-.13-2.14-.17-3.28,18.14-17.41,57.88-33.66,86.16-31q1.05,2.17,1.94,4.37A95.42,95.42,0,0,1,714.67,522.89Z"/><path class="cls-35" d="M707,497.26c-15.93-1.51-35.49,3-52.78,10.32-13.41,5.67-25.46,13.06-33.38,20.66-.47-12.21.87-29.58,10-42,6.49-8.79,17.36-14.64,29.88-15.93l.37,0C686,467.93,699.61,482,707,497.26Z"/></g><g id="Camada_7" data-name="Camada 7"><path class="cls-7" d="M637.33,569.61a103,103,0,0,0,13.16-.18c1.09,0,2.17-.14,3.25-.25s2.15-.21,3.22-.37c2.14-.26,4.27-.59,6.38-.94a112.16,112.16,0,0,0,24.47-7.37,109.64,109.64,0,0,0,22.43-12.22,106.59,106.59,0,0,0,10-8.25c1.65-1.44,3.26-3,5-4.45.89-.72,1.73-1.46,2.66-2.12s1.9-1.26,2.86-1.85h0a.22.22,0,0,1,.28.07.2.2,0,0,1-.05.26c-3.43,2.75-6.19,6.25-9.16,9.52a84.29,84.29,0,0,1-9.54,9.26,87.71,87.71,0,0,1-10.94,7.58c-1.95,1.05-3.86,2.19-5.87,3.12l-3,1.46-3,1.31a96.8,96.8,0,0,1-12.58,4.33A100.38,100.38,0,0,1,663.72,571a95.13,95.13,0,0,1-13.29.55,69.06,69.06,0,0,1-13.2-1.56.19.19,0,0,1-.15-.23.2.2,0,0,1,.2-.16Z"/><path class="cls-7" d="M622.22,543.08c-.52-1.81-1-3.64-1.36-5.49s-.67-3.71-.93-5.58a109.35,109.35,0,0,1-1-11.33,73.06,73.06,0,0,1,2.86-22.88,48,48,0,0,1,4.8-10.87c.55-.84,1-1.73,1.64-2.53L630,482a42.93,42.93,0,0,1,4.24-4.4l1.14-1c.38-.33.81-.61,1.22-.92.84-.58,1.64-1.22,2.51-1.76l2.65-1.53a10.86,10.86,0,0,1,1.36-.69l1.39-.63a46.87,46.87,0,0,1,5.69-2.11c1-.3,1.94-.49,2.91-.73a27.41,27.41,0,0,1,2.94-.61,63.6,63.6,0,0,1,11.86-.74,48.57,48.57,0,0,1,11.87,1.93,42.37,42.37,0,0,1,19.94,13A59.34,59.34,0,0,1,711,502a90,90,0,0,1,2.79,11.06c.34,1.86.65,3.72.88,5.59s.36,3.76.46,5.63v0a.21.21,0,0,1-.19.21.21.21,0,0,1-.21-.17A96.55,96.55,0,0,0,709,502.8a60.48,60.48,0,0,0-11.56-18.92,40,40,0,0,0-18.67-11.51,46.73,46.73,0,0,0-11-1.66,60.45,60.45,0,0,0-11.08.79,24.71,24.71,0,0,0-2.72.55c-.9.22-1.82.37-2.7.64a43.15,43.15,0,0,0-5.21,1.89l-1.27.56a8.55,8.55,0,0,0-1.25.62l-2.41,1.36c-.79.48-1.52,1.05-2.28,1.58-.37.27-.77.51-1.12.81l-1,.91a37.29,37.29,0,0,0-3.94,3.91l-1.71,2.18c-.58.72-1,1.53-1.56,2.3a49.21,49.21,0,0,0-4.78,10A76.24,76.24,0,0,0,621,520.75,107.67,107.67,0,0,0,622.62,543a.2.2,0,0,1-.17.23.19.19,0,0,1-.22-.14Z"/><path class="cls-7" d="M633.37,552.7c1.62-.12,3.23-.28,4.84-.5s3.21-.39,4.81-.59c3.2-.48,6.37-1,9.51-1.71s6.27-1.32,9.35-2.15c1.53-.45,3.08-.81,4.6-1.27l4.55-1.42a115.57,115.57,0,0,0,17.29-7.46c1.34-.8,2.71-1.54,4.06-2.31s2.59-1.71,3.88-2.56c.65-.44,1.28-.84,1.94-1.32l2-1.44,4-2.85a175.73,175.73,0,0,1,16.91-10.38,82,82,0,0,1,9.31-4.09,34.76,34.76,0,0,1,10.35-2.18,20.56,20.56,0,0,1,5.59.54,15.16,15.16,0,0,1,5.24,2.37,17.45,17.45,0,0,1,3.94,4,14,14,0,0,1,2.41,5.08,11.06,11.06,0,0,1-.22,5.66,14,14,0,0,1-2.56,4.68,18.64,18.64,0,0,1-8.14,5.85.2.2,0,0,1-.25-.13.2.2,0,0,1,.11-.25h0a16.47,16.47,0,0,0,4-2.66,19.76,19.76,0,0,0,3.22-3.56,12.75,12.75,0,0,0,2-4.32,9.2,9.2,0,0,0-.13-4.69,12.23,12.23,0,0,0-2.26-4.16,14.87,14.87,0,0,0-3.52-3.2,14.71,14.71,0,0,0-9.16-2,34,34,0,0,0-9.33,2.31,76,76,0,0,0-8.76,4.13,181.28,181.28,0,0,0-16.43,10.36l-4,2.78c-1.31.94-2.63,1.89-4,2.76s-2.71,1.82-4.11,2.65L690.06,541a106.75,106.75,0,0,1-18.15,7.14,132.29,132.29,0,0,1-19.1,3.91,124.13,124.13,0,0,1-19.46,1.1.2.2,0,0,1,0-.39Z"/></g><path class="cls-27" d="M654.21,507.58c-13.41,5.67-25.46,13.06-33.38,20.66-.47-12.21.87-29.58,10-42,6.49-8.79,17.36-14.64,29.88-15.93l-.13.23A73.94,73.94,0,0,0,654.21,507.58Z"/><path class="cls-27" d="M700.65,557.09a108,108,0,0,1-14,6.72c-23,9.19-42.74,6.91-47.9,5.91-.49-.09-1.1-1.53-1.12-2.35-.28-6.33-1.93-10.14-3.79-14.45l2.94,0a127,127,0,0,0,41.54-7.22c-.38.24-7.5,4.85-5,10.73S689.29,563.39,700.65,557.09Z"/><path class="cls-7" d="M767.22,1218.09a16.72,16.72,0,0,1-1.56-1.56A8.69,8.69,0,0,1,767.22,1218.09Z"/></g><g id="Camada_9" data-name="Camada 9"><path class="cls-5" d="M583.76,1415.56H294.43c35.25-64.41-26.28-122.68,28.81-201.54,0,0-2.81,46.54,33.51,65.53,1.12-94,104.73-156.5,104.73-156.5-19.82,72.15,28.79,73.27,41.42,113.42,59-35.42,31-119.44,30.59-120.73C534.73,1117,661.71,1244.42,583.76,1415.56Z"/><path class="cls-6" d="M585.71,1302.66c.08,26.2-9,76.16-22.4,112.9H328.78c13.8-63.6-9.93-62-6.14-133.67,20.67,29.81,57,36,57,36l.46-38c.21-17.58,4.9-35.46,14-53.12,7.59-14.81,24.74-39.86,28-43-.2.46-2.53,23.59,10,31.55,0,0,.07-14.45,6.74-25.72,11.43,37.91,41.41,42.74,50.75,82.14,0,0,57.69-23.13,70.28-76.24,2.88,5.88,5.68,12.11,8.29,18.66A240,240,0,0,1,585.71,1302.66Z"/></g></g></g></svg>