<svg id="Camada_1" data-name="Camada 1" xmlns="http://www.w3.org/2000/svg" xmlns:xlink="http://www.w3.org/1999/xlink" viewBox="0 0 1938.4 1911.55"><defs><style>.cls-1{fill:#fff;stroke:#000;}.cls-1,.cls-10,.cls-5{stroke-miterlimit:10;}.cls-2{fill:url(#Gradiente_sem_nome_63);}.cls-3{fill:#c9c8c8;}.cls-4{fill:#f0f0f0;}.cls-10,.cls-5{fill:none;stroke-width:3px;}.cls-5{stroke:#66b22e;}.cls-6{mask:url(#mask);}.cls-7{fill:#faceaa;}.cls-8{fill:#eb682f;}.cls-9{fill:#f7b98e;}.cls-10{stroke:#f9e925;}.cls-11{fill:#602a11;}.cls-12{fill:#fce5d4;}.cls-13{fill:url(#Gradiente_sem_nome_66);}.cls-14{fill:#2b4c9a;}.cls-15{fill:#ffdc7c;}.cls-16{fill:#222323;}</style><linearGradient id="Gradiente_sem_nome_63" x1="1614.56" y1="1553.96" x2="1851.57" y2="1886.38" gradientTransform="matrix(0.71, -0.84, 1.09, 0.55, -1487.82, 2225.93)" gradientUnits="userSpaceOnUse"><stop offset="0.11" stop-color="#fff"/><stop offset="0.13" stop-color="#f8f8f8"/><stop offset="0.65" stop-color="#474747"/><stop offset="0.87"/></linearGradient><mask id="mask" x="627.23" y="560.62" width="1514.86" height="1609.75" maskUnits="userSpaceOnUse"><g transform="translate(-30.71 -41.35)"><rect class="cls-1" x="891.71" y="699.51" width="752.92" height="964.2" transform="translate(1562.83 -526.5) rotate(56.81)"/><rect class="cls-2" x="1343.02" y="1235.15" width="551.02" height="964.2" transform="translate(2169.67 -577.28) rotate(56.81)"/></g></mask><linearGradient id="Gradiente_sem_nome_66" x1="1609.92" y1="1488.9" x2="1969.11" y2="1488.9" gradientUnits="userSpaceOnUse"><stop offset="0" stop-color="#eb682f"/><stop offset="1" stop-color="#f18a52"/></linearGradient></defs><path class="cls-3" d="M1278.8,1554.48c.78,5.67,1.55,11.21,2.39,16.55h-.84c-22.6-.64-49.65-.7-80.17-.38-11.66.06-23.76.26-36.38.45-122.61,2-289.71,8.82-459.52,15.9-18,.78-35.93,1.49-53.9,2.26-.06.06-.06.06-.13.06h-.32c-3.54.13-7.15.32-10.69.45-198.85,8.25-394.22,16-519.08,15.84.32-6.69.64-13.71,1-21,.78-17.58,1.48-36.83,2.19-57.63a17.33,17.33,0,0,1,.07-1.87c4.83-157.38,6.37-399.82,4.38-642.46-.07-11.46-.2-23-.33-34.45-2.64-284-10-562.94-22.08-700.35q13.32-1.46,27.82-2.71c12-1.09,24.59-2.12,37.73-3.09,131.37-10,317.21-16.29,504-23.12,12.88-.45,25.7-1,38.58-1.41,4.89-.2,9.79-.39,14.74-.52,185-6.89,365.83-14.75,490.49-27.75-.25,7.21-.51,14.61-.7,22.28-.58,19.7-1,40.76-1.29,63-1.74,171,5.92,414.44,20.22,655.73.38,5.6.71,11.14,1,16.68.06,1.09.13,2.12.19,3.22.19,4.31.45,8.62.71,12.94v.13c0,.51.06,1,.06,1.48,3.22,52.67,6.77,105.09,10.56,156.48,4,54.35,8.31,107.47,12.88,158.53,8,89.26,16.88,172.07,26.28,243.54C1278.87,1462.21,1275.07,1506.06,1278.8,1554.48Z" transform="translate(-30.71 -41.35)"/><path class="cls-4" d="M1284.92,1595.44c-.45-.06-.83-.06-1.29-.13-16.22-1.61-36.57-3-60.14-4.12-25.37-1.16-54.67-2.06-87.13-2.7-116-2.45-271.8-2.13-432.08-1.49-27.11.07-54.41.2-81.65.33h-.45c-187.91.77-373.75,1.22-501.06-2.71q-15.06-.39-29-1c2-22.74,4-49.07,6.11-78.44.07-.58.07-1.22.13-1.86,10.82-157.13,21.45-399.31,28.66-641.89.13-4.44.26-8.82.38-13.26,8.12-278.83,11.72-556,5.74-703.06-.26-6.5-.52-12.81-.84-18.8,20-1.35,42-2.45,65.75-3.29,125.18-4.82,299.36-4.37,476.83-4.12,22.09,0,44.18.07,66.27.07,176.31.13,350.17-.58,476.84-7.47,10-.52,19.7-1.1,29.1-1.74-1.93,25.69-3.67,54.28-5.21,85.19-8,166-9.53,400.54-5,635.32q.19,8.4.38,16.8c.13,8,.33,15.91.52,23.83.06,4.31.13,8.63.26,12.94V884c1.09,46.88,2.38,93.57,4.05,139.48,1.81,54.41,4.06,107.8,6.57,159.18,7.34,146.95,17.39,277.93,30.07,371.81.78,5.67,1.55,11.21,2.39,16.55C1282.35,1579.53,1283.63,1587.65,1284.92,1595.44Z" transform="translate(-30.71 -41.35)"/><path class="cls-3" d="M741.18,119c-199.63-.13-402.34-1.35-543.1,4,3.41-31,6.69-58.4,9.78-81.71C325.64,55,529.25,86.36,741.18,119Z" transform="translate(-30.71 -41.35)"/><path class="cls-5" d="M741.18,119a.24.24,0,0,0,.19.06h.32" transform="translate(-30.71 -41.35)"/><path class="cls-3" d="M1136.36,1588.49c-3.22,32.26-5.66,61.43-7.21,86.8-89.06-26-290.61-56.09-506.52-88C810.66,1586.55,1000.75,1585.59,1136.36,1588.49Z" transform="translate(-30.71 -41.35)"/><path class="cls-5" d="M622.18,1587.33h.45" transform="translate(-30.71 -41.35)"/><path class="cls-3" d="M1374.62,211.22c-34.25,130.21-92.27,415.28-136.77,659.72-5.67-248.11-4.38-500.41,4.06-675.95C1289.3,201.11,1345.84,207.87,1374.62,211.22Z" transform="translate(-30.71 -41.35)"/><path class="cls-3" d="M127.05,861.47c-7.21,242.58-17.84,484.76-28.66,641.89-.06.64-.06,1.28-.13,1.86-23.44-5.41-51.9-12.49-67.55-16C62.91,1373,99.55,1107.46,127.05,861.47Z" transform="translate(-30.71 -41.35)"/><path class="cls-3" d="M296.71,361.36A47.33,47.33,0,0,0,313,379.16a66.56,66.56,0,0,0,22.46,9.18,90.3,90.3,0,0,0,24.29,1.58,190.15,190.15,0,0,0,24.3-3.19c8.06-1.49,16.09-3.28,24.2-4.74l12.14-2.27,12.18-2.05c4.05-.71,8.13-1.3,12.2-1.9s8.14-1.25,12.22-1.79c8.17-1.06,16.33-2.19,24.51-3.07,65.49-7.45,131.4-9.3,197.14-10.89l98.61-2.48,49.31-1.07,12.33-.2c4.1-.06,8.22-.17,12.41-.13s8.42.18,12.69.59A83.58,83.58,0,0,1,876.72,359c8.33,2.16,16.09,5.41,23.68,8.52l5.68,2.3,5.69,2.13c1.91.68,3.78,1.47,5.71,2.06l5.78,1.89,2.89.94,2.92.83,5.85,1.65c2,.55,3.94.95,5.91,1.43s3.94,1,5.92,1.36a237.91,237.91,0,0,0,24,3.63l6.06.55,6.08.26c4.05.27,8.11.08,12.17.09,2,0,4-.16,6.08-.27l6.08-.39,6-.74c2-.26,4-.45,6-.86,4-.76,8-1.34,12-2.43l5.93-1.48,5.82-1.87c3.93-1.13,7.65-2.82,11.46-4.3,1.93-.69,3.73-1.66,5.59-2.53l5.54-2.67h0a.39.39,0,0,1,.53.18.4.4,0,0,1-.16.52l-5.38,3.06c-1.81,1-3.57,2.11-5.46,2.93-3.76,1.72-7.45,3.63-11.37,5L1038,383l-5.94,1.83c-3.95,1.33-8,2.14-12.06,3.13-2,.54-4.08.8-6.13,1.16l-6.15,1-6.21.66c-2.07.21-4.13.5-6.21.55-4.16.19-8.32.51-12.49.38l-6.25,0-6.23-.35a222.93,222.93,0,0,1-49.14-8.69l-6-1.81c-2-.57-4-1.35-5.93-2l-5.89-2.09-5.8-2.22c-7.66-3-15.18-5.95-22.82-7.77a75,75,0,0,0-11.55-1.91c-3.93-.34-7.91-.44-12-.43-8.08.06-16.38.27-24.57.41l-49.32.66-98.64,1c-65.73.79-131.48,1.84-196.82,8.46-8.18.75-16.32,1.75-24.47,2.67-4.08.47-8.14,1.06-12.21,1.58s-8.14,1.06-12.19,1.71l-12.17,1.84-12.14,2.07c-8.1,1.32-16.15,3-24.28,4.34a193.28,193.28,0,0,1-24.62,2.83,92.25,92.25,0,0,1-24.74-2,67.47,67.47,0,0,1-22.78-9.75A48.24,48.24,0,0,1,296,361.71a.41.41,0,0,1,.19-.53.39.39,0,0,1,.53.18Z" transform="translate(-30.71 -41.35)"/><path class="cls-3" d="M294.2,550.88l46.3,13.69,23.15,6.85c7.73,2.21,15.37,4.9,23.21,5.47s15.56-1.57,23.16-4l23-7.39,23-7.39c7.66-2.44,15.3-5,23.11-7.22a138.75,138.75,0,0,1,24-4.84,90.84,90.84,0,0,1,12.34-.4c4.1.15,8.17.5,12.18.9,8,.77,15.93,1.71,23.73,1.21l1.46-.06c.49,0,1-.09,1.47-.14l2.93-.28c1.95-.21,3.89-.54,5.84-.81s3.88-.71,5.81-1.13,3.87-.84,5.79-1.36c15.41-3.86,30.55-9.64,46.66-12.9,2-.44,4-.76,6.07-1.09,1-.17,2-.33,3.06-.45s2-.27,3.07-.35c4.1-.43,8.21-.66,12.3-.72,8.2-.14,16.35.32,24.42,1s16.07,1.5,24.09,2.32l24,2.46,48.08,4.86c8,.8,16,1.77,24,2.75l24,2.91c15.95,1.93,31.87,3.82,47.83,5.13s32,2.37,48,3,32.08,1,48.15,1.25,32.15.22,48.24.17l24.14,0,12.08,0,12.07,0a.4.4,0,0,1,0,.8l-12.05.82-12.06.73L1006.68,558c-16.09.8-32.19,1.46-48.31,1.81s-32.25.42-48.39.18-32.29-1-48.42-2.11q-12.09-.9-24.16-2.11c-8-.82-16-1.77-24-2.74s-16-2.06-24-3.09-15.94-2.09-23.93-3l-47.91-5.68-24-2.8c-8-.94-16-1.89-23.94-2.65-15.89-1.52-31.8-2.16-47.25.94-15.52,2.93-30.68,8.48-46.54,12.26-2,.51-4,.89-6,1.32s-4,.73-6,1.1-4.07.59-6.12.78l-3.08.26c-.52,0-1,.09-1.55.12l-1.55,0c-8.3.42-16.46-.66-24.42-1.52-4-.45-7.94-.84-11.88-1a87.1,87.1,0,0,0-11.76.23,136,136,0,0,0-23.33,4.41c-7.71,2.06-15.39,4.49-23.09,6.81l-23.11,7-23.1,7a108.56,108.56,0,0,1-11.84,3,45.52,45.52,0,0,1-12.34.71,65.48,65.48,0,0,1-12-2.39c-3.9-1.12-7.72-2.37-11.56-3.56l-23-7.23L294,551.64a.4.4,0,1,1,.23-.76Z" transform="translate(-30.71 -41.35)"/><path class="cls-3" d="M300.36,725.53a31.75,31.75,0,0,1,10-6.55,42.63,42.63,0,0,1,11.67-2.82c8-.84,16.07.32,23.77,2.32s15.23,4.59,22.84,6.62a108.65,108.65,0,0,0,23.22,3.65,219.24,219.24,0,0,0,23.63-.2c7.89-.43,15.81-.95,23.71-1.46,15.8-1,31.58-2.27,47.23-4.29q11.76-1.49,23.37-3.67c7.75-1.46,15.55-3.13,23.54-4.15a105.25,105.25,0,0,1,24.26-.35A170.55,170.55,0,0,1,581.35,719c15.51,3.87,30.55,8.91,45.88,11.71a115.52,115.52,0,0,0,23,1.92,142.62,142.62,0,0,0,23.07-2.8c15.34-3,30.53-7.73,46.46-10.5a170,170,0,0,1,48.42-1.61A218.5,218.5,0,0,1,792,722c7.77,1.74,15.42,3.5,23,4.73a110.76,110.76,0,0,0,22.85,1.38,166.17,166.17,0,0,0,23-2.67c15.39-2.67,30.74-6.82,46.59-9.48a264.39,264.39,0,0,1,141.29,14.92.4.4,0,0,1,.23.52.41.41,0,0,1-.49.23h0a284.46,284.46,0,0,0-46.09-10.72l-5.84-.83c-2-.24-3.91-.43-5.87-.65-3.9-.49-7.83-.69-11.75-1-7.84-.4-15.69-.72-23.54-.48a274.36,274.36,0,0,0-46.67,5c-15.36,3-30.61,7.34-46.4,10.41a172.41,172.41,0,0,1-24.13,3,115.67,115.67,0,0,1-24.53-1.4c-8-1.29-15.82-3.24-23.51-5a210.64,210.64,0,0,0-22.94-4.32,162,162,0,0,0-46.32.75c-15.38,2.43-30.63,6.91-46.44,9.78a148,148,0,0,1-24.13,2.62,120.36,120.36,0,0,1-24.24-2.32c-15.85-3.11-30.9-8.39-46.1-12.37a164.21,164.21,0,0,0-22.94-4.57l-5.79-.5c-1.93-.13-3.86-.1-5.8-.15a92.45,92.45,0,0,0-11.6.69c-7.74.88-15.48,2.43-23.32,3.81s-15.75,2.52-23.65,3.41c-15.83,1.77-31.69,2.75-47.54,3.52-7.92.37-15.83.76-23.77,1.06a224.25,224.25,0,0,1-23.9-.2,111,111,0,0,1-23.6-4.12c-7.67-2.19-15.11-4.95-22.72-7s-15.42-3.37-23.25-2.68a41.61,41.61,0,0,0-11.41,2.56,31,31,0,0,0-9.85,6.19h0a.4.4,0,0,1-.55-.58Z" transform="translate(-30.71 -41.35)"/><path class="cls-3" d="M300.62,904.7a51.54,51.54,0,0,1,21.69-9.9,93.38,93.38,0,0,1,23.88-1.68c16,.76,31.64,4.16,47.39,3.92,7.84,0,15.63-1.39,23.54-2.42a111,111,0,0,1,12-1.07c2-.08,4-.19,6-.1l3,.06c1,0,2,0,3,.13A182.48,182.48,0,0,1,465,896.72c7.86,1.46,15.63,3.21,23.38,4.94s15.47,3.41,23.24,4.7A152.27,152.27,0,0,0,535,908.67c15.62.33,31.18-2.68,46.93-5,31.68-4.84,63.74-5.17,95.48-5.44s63.56-.6,95.37-.54c15.91.11,31.82.29,47.73.7,8,.24,15.91.49,23.86.84l23.83,1.17c15.87.91,31.7,1.78,47.51,2.26s31.62.53,47.37-.24a317.56,317.56,0,0,0,46.92-5.68l5.78-1.24c1.93-.41,3.87-.8,5.76-1.36l5.72-1.56,2.86-.78,1.43-.39,1.4-.48c3.73-1.28,7.5-2.48,11.22-3.84l11-4.44h0a.4.4,0,0,1,.52.23.39.39,0,0,1-.19.5l-10.76,5.23c-3.66,1.59-7.39,3-11.09,4.52l-1.39.56-1.42.48-2.84,1-5.69,1.9c-1.89.68-3.82,1.17-5.75,1.7l-5.79,1.59A296.26,296.26,0,0,1,963.45,908c-15.94,1.42-31.94,1.74-47.89,1.68s-31.88-.74-47.75-1.33-31.7-1.23-47.55-1.67-31.72-.86-47.58-1.11c-31.74-.65-63.5-.83-95.27-1s-63.47-.2-94.76,4.18c-15.64,2.13-31.54,5-47.77,4.49a157.26,157.26,0,0,1-24-2.67c-7.89-1.42-15.67-3.21-23.41-5s-15.43-3.73-23.17-5.31A179.54,179.54,0,0,0,441,896.83c-1-.11-1.95-.15-2.93-.18l-2.94-.1c-2-.12-3.92,0-5.88,0a110.68,110.68,0,0,0-11.75.84c-7.84.9-15.8,2.14-23.87,2.05-16.11,0-31.72-3.72-47.49-4.73A91.53,91.53,0,0,0,322.55,896a50.57,50.57,0,0,0-21.43,9.35.4.4,0,0,1-.5-.63Z" transform="translate(-30.71 -41.35)"/><path class="cls-3" d="M278.29,1184a85.63,85.63,0,0,1,11.58,4.92,109,109,0,0,1,10.88,6.3,101.41,101.41,0,0,1,27.24,26,100.75,100.75,0,0,1,6.62,10.78,99.42,99.42,0,0,1,8.69,23.76,1.39,1.39,0,0,1-2.66.78v0a359.53,359.53,0,0,1-11.75-39.09,232.83,232.83,0,0,1-6-40.51c-.68-13.67,0-27.57,3.48-41l.67-2.52.79-2.5c.49-1.67,1.14-3.3,1.76-4.93s1.39-3.22,2.08-4.83l1.22-2.35.61-1.17.67-1.14,1.37-2.28,1.52-2.19a25.19,25.19,0,0,1,1.6-2.13c.57-.69,1.09-1.42,1.71-2.07a45.85,45.85,0,0,1,8-7.21,39,39,0,0,1,20.43-7,46.22,46.22,0,0,1,10.84.81,57.79,57.79,0,0,1,10.27,3.23,75,75,0,0,1,17.94,11.23,109.39,109.39,0,0,1,14.61,15A169.48,169.48,0,0,1,444.07,1159c3,6.23,5.53,12.62,7.91,19.07l1.73,4.87,1.59,4.9c.55,1.63,1.05,3.27,1.53,4.92l1.46,4.94-8,.44a110.27,110.27,0,0,1,7.84-27.68c3.91-8.85,9.21-17.31,16.66-24.1a47.17,47.17,0,0,1,6-4.62,40,40,0,0,1,6.92-3.47,31,31,0,0,1,15.57-1.77,33.54,33.54,0,0,1,7.56,2.13,39.67,39.67,0,0,1,6.73,3.74,52.44,52.44,0,0,1,10.67,10.35A95.26,95.26,0,0,1,541.87,1178c1.65,4.44,3.12,8.92,4.36,13.45.66,2.25,1.2,4.53,1.77,6.81s1.07,4.56,1.5,6.86a313.7,313.7,0,0,1,5.85,55.49.4.4,0,0,1-.79,0c-1-9.21-2.23-18.39-3.74-27.5l-1.2-6.81c-.45-2.26-.86-4.53-1.35-6.78s-.93-4.51-1.47-6.75l-.78-3.36-.86-3.33c-1.14-4.45-2.44-8.85-3.85-13.2s-3-8.62-4.76-12.8c-3.55-8.34-7.85-16.36-13.46-23.13a45.78,45.78,0,0,0-9.48-8.65,32.57,32.57,0,0,0-5.47-2.89,25.85,25.85,0,0,0-5.81-1.49,23.34,23.34,0,0,0-11.71,1.61,32.41,32.41,0,0,0-5.42,2.88,45.61,45.61,0,0,0-4.93,3.9c-6.23,5.8-10.91,13.42-14.48,21.49a110.45,110.45,0,0,0-7.4,25.63,4.08,4.08,0,0,1-7.95.44l-1.37-4.82c-.45-1.61-.92-3.22-1.43-4.81l-1.5-4.78-1.62-4.73c-2.18-6.3-4.55-12.55-7.28-18.62a187.45,187.45,0,0,0-9-17.79,145.49,145.49,0,0,0-11.08-16.44,103.87,103.87,0,0,0-13.48-14.31,69,69,0,0,0-16.24-10.52,52.75,52.75,0,0,0-9-3,40.56,40.56,0,0,0-9.37-.84,31.89,31.89,0,0,0-9.18,1.65,32.59,32.59,0,0,0-8.39,4.13,40.33,40.33,0,0,0-7.15,6.25c-.56.56-1,1.22-1.55,1.83a21,21,0,0,0-1.48,1.9l-1.4,2-1.28,2.07-.64,1-.58,1.08-1.15,2.15c-.66,1.49-1.42,2.93-2,4.47s-1.23,3-1.72,4.61l-.78,2.34-.67,2.38c-3.51,12.75-4.38,26.23-3.92,39.59.22,6.69.91,13.38,1.78,20s2.11,13.28,3.46,19.87a355,355,0,0,0,10.87,39l-2.67.75a96.66,96.66,0,0,0-8-23.29,98.12,98.12,0,0,0-6.26-10.66,104,104,0,0,0-7.64-9.75A105.2,105.2,0,0,0,300,1196.25a110.71,110.71,0,0,0-10.64-6.45,85.81,85.81,0,0,0-11.34-5.09h0a.39.39,0,0,1-.24-.51A.39.39,0,0,1,278.29,1184Z" transform="translate(-30.71 -41.35)"/><path class="cls-3" d="M593.85,1212.33a36.82,36.82,0,0,0-9.61,4.31,29.62,29.62,0,0,0-7.61,7.06,27.08,27.08,0,0,0-5.25,19.34,17.54,17.54,0,0,0,3.61,9,8.94,8.94,0,0,0,3.58,2.64,7.86,7.86,0,0,0,4.28.4,17.44,17.44,0,0,0,8.26-4.57,47.28,47.28,0,0,0,6.67-7.72,2.3,2.3,0,0,1,3.17-.57l.06,0a141,141,0,0,0,12.33,7.52,74.57,74.57,0,0,0,13,5.57,35.89,35.89,0,0,0,13.38,1.76,23.41,23.41,0,0,0,12-4.44,47.39,47.39,0,0,0,9.55-9.76c3-3.75,5.7-7.88,9.75-11.77a24.86,24.86,0,0,1,3.47-2.72,17.29,17.29,0,0,1,4.42-2,15.57,15.57,0,0,1,9.73.54,27.38,27.38,0,0,1,7.41,4.26,54.21,54.21,0,0,1,5.86,5.29l-5.81.32a59.11,59.11,0,0,1,6-6.14,30.38,30.38,0,0,1,7.54-5,22.21,22.21,0,0,1,9.15-2,23.27,23.27,0,0,1,8.92,2c5.48,2.33,9.76,6.09,13.62,10a90.54,90.54,0,0,1,10.09,12.8.4.4,0,0,1-.62.51A140.89,140.89,0,0,0,739,1238.28c-4.13-3.19-8.55-6-13.16-7.48A19,19,0,0,0,719,1230a15.54,15.54,0,0,0-6.3,2c-4,2.2-7.43,5.83-10.51,9.85a3.82,3.82,0,0,1-5.36.7,2.31,2.31,0,0,1-.24-.2l-.21-.19a61.2,61.2,0,0,0-5.22-4.36,22.39,22.39,0,0,0-5.34-3,10.73,10.73,0,0,0-1.27-.38,8.45,8.45,0,0,0-1.2-.17,6.47,6.47,0,0,0-2.24.21,9.33,9.33,0,0,0-2.27,1,20.58,20.58,0,0,0-2.34,1.77,46.87,46.87,0,0,0-4.66,4.9l-4.77,5.61a57.06,57.06,0,0,1-11.51,10.65,31.22,31.22,0,0,1-7.4,3.57,30.65,30.65,0,0,1-8.07,1.45,42.11,42.11,0,0,1-15.54-2.56,79.32,79.32,0,0,1-13.78-6.48,142.7,142.7,0,0,1-12.5-8.24l3.24-.53a51.4,51.4,0,0,1-7.64,8.21,27.26,27.26,0,0,1-4.78,3.27,16.81,16.81,0,0,1-5.74,1.89,11.66,11.66,0,0,1-6.24-.89,12.51,12.51,0,0,1-4.8-3.86,20.65,20.65,0,0,1-3.85-10.82,29.47,29.47,0,0,1,6.63-20.82,30.34,30.34,0,0,1,8.39-7,37.7,37.7,0,0,1,10.12-3.91.39.39,0,0,1,.48.29A.4.4,0,0,1,593.85,1212.33Z" transform="translate(-30.71 -41.35)"/><g class="cls-6"><path class="cls-7" d="M1782.56,1367.55c-152.68-233.88-434.4-181.79-493.9,55.76-9.79,38.9-13.59,82.75-9.86,131.17.39,5.48.91,11,1.55,16.55.84,8,1.93,16,3.28,24.28a584.45,584.45,0,0,0,12.11,58.28s-11.53-9.66-31-26.47v-.06c-11.34-9.66-25.37-21.83-41.28-35.87-7.34-6.44-15.13-13.33-23.31-20.54-28.4-25.37-61.11-54.93-94.92-86.61h-.06q-16.42-15.36-33-31.23c-2.13-2-4.19-4.06-6.31-6.06-2.32-2.25-4.64-4.44-7-6.69-29.43-28.4-58.66-57.64-85.71-86.23-2.12-2.19-4.12-4.31-6.18-6.5-2.25-2.45-4.51-4.83-6.7-7.21-23.31-25.12-44.75-49.52-62.84-72.32,0,0,.12-1.29.32-3.73.13-2.06.32-5,.51-8.57,1.36-24.27,3.29-79.85-4.7-125.31-1.22-7-2.7-13.84-4.44-20.28,17.51-62.72,63.11-97.37,112.37-102.07l2.25-.19.77-1c73-95.62,152.88-144.69,232.72-159.57a3,3,0,0,0,.65-.12c1.42-.26,2.9-.52,4.38-.71,101.61-17.13,203,20.8,290.09,88.35a14.62,14.62,0,0,1,1.74,1.35,641.44,641.44,0,0,1,94,90.86c62.79,74.05,111.15,162.34,136.46,249.14A487,487,0,0,1,1782.56,1367.55Z" transform="translate(-30.71 -41.35)"/><path class="cls-7" d="M991.73,1096.06c-14.87,45-89.31,164-94,171.36Z" transform="translate(-30.71 -41.35)"/><path class="cls-8" d="M1969.11,1728.41l-25.89,21.19-248.43,203.29s-289.71-178.43-399-299.3a584.45,584.45,0,0,1-12.11-58.28c-1.35-8.24-2.44-16.29-3.28-24.28-.64-5.6-1.16-11.07-1.55-16.55-3.73-48.42.07-92.27,9.86-131.17,40.63-162.33,185.13-238.06,321.26-195.11,63,19.9,124.35,65.3,172.64,139.35C1906.91,1558,1969.11,1728.41,1969.11,1728.41Z" transform="translate(-30.71 -41.35)"/><path class="cls-9" d="M1105.2,1484c-74.76,19.19-231.18-64-207.67-216.24,19.83,25,43.66,51.9,69.54,79.53,30.91,32.9,64.85,66.78,98.85,99.42C1079.05,1459.37,1092.19,1471.87,1105.2,1484Z" transform="translate(-30.71 -41.35)"/><line class="cls-10" x1="1074.55" y1="1442.69" x2="1074.48" y2="1442.69"/><path class="cls-11" d="M1072.23,1452.81a38.68,38.68,0,0,0-3.22,3.34c-3.8,4.51-7.79,8.89-11.91,13.14s-8.25,8.57-12.69,12.62l-1.61-1c1.87-5.73,4.12-11.2,6.18-16.8s4.57-10.89,7-16.23c1.16-2.51,2-5.22,3-7.79,2.32,2.25,4.64,4.44,7,6.69C1068,1448.75,1070.1,1450.81,1072.23,1452.81Z" transform="translate(-30.71 -41.35)"/><path class="cls-11" d="M973.25,1353.83c-1.35,1.93-2.77,3.93-4,6-5.48,8.44-11,16.81-16.75,25.18-5.92,8.24-11.52,16.61-17.64,24.73l-1.67-.9c3.34-9.6,7.21-18.94,10.75-28.4,3.73-9.4,7.66-18.68,11.66-28,1.73-4.06,3.21-8.24,4.82-12.36,2.19,2.38,4.45,4.76,6.7,7.21C969.13,1349.52,971.13,1351.64,973.25,1353.83Z" transform="translate(-30.71 -41.35)"/><path class="cls-12" d="M989.93,1095.68c-13.46,40.69-79.53,148-92.08,168.39.13-2.06.32-5,.51-8.57,1.36-24.27,3.29-79.85-4.7-125.31-1.22-7-2.7-13.84-4.44-20.28,17.51-62.72,63.11-97.37,112.37-102.07C997.79,1012.61,979.05,1045.19,989.93,1095.68Z" transform="translate(-30.71 -41.35)"/><path class="cls-9" d="M1782.56,1367.55c-152.68-233.88-434.4-181.79-493.9,55.76-9.79,38.9-13.59,82.75-9.86,131.17.39,5.48.91,11,1.55,16.55.84,8,1.93,16,3.28,24.28a584.45,584.45,0,0,0,12.11,58.28h0C1141.33,1297.73,1520.94,990,1756,1309l8.59-33.06A487,487,0,0,1,1782.56,1367.55Z" transform="translate(-30.71 -41.35)"/><path class="cls-12" d="M1782.56,1367.55c-325.75-752.74-735.19-377.22-777.95-360.87,73-95.62,152.88-144.69,232.72-159.57a3,3,0,0,0,.65-.12c1.42-.26,2.9-.52,4.38-.71,101.61-17.13,203,20.8,290.09,88.35a14.62,14.62,0,0,1,1.74,1.35,641.44,641.44,0,0,1,94,90.86C1713.27,1127.29,1772,1254,1782.56,1367.55Z" transform="translate(-30.71 -41.35)"/><path class="cls-13" d="M1969.11,1728.41l-25.89,21.19c-102.4-304.27-333.3-521.4-333.3-521.4,63,19.9,124.35,65.3,172.64,139.35C1906.91,1558,1969.11,1728.41,1969.11,1728.41Z" transform="translate(-30.71 -41.35)"/></g><path class="cls-14" d="M1593.31,1111l-428.61,89.12c-2.13-61-19.71-107.21-45.27-139l413-126.47,11.27-3.48c-28.4,8.82-39,56-23.7,105.35C1534.26,1082.48,1566,1114,1593.31,1111Z" transform="translate(-30.71 -41.35)"/><path class="cls-14" d="M898.36,1255.5,875,1260.33l-1.1-.06c-13.46-11.72-24.6-31.68-29.49-55.64-4.7-23-2.58-44.88,4.51-60.72l44.75-13.72C901.65,1175.65,899.72,1231.23,898.36,1255.5Z" transform="translate(-30.71 -41.35)"/><path class="cls-15" d="M873.89,1260.27l-74-5c-6.89-8.57-12.3-20.35-15.07-33.87a82.8,82.8,0,0,1-.64-31.49l64.78-46c-7.09,15.84-9.21,37.73-4.51,60.72C849.29,1228.59,860.43,1248.55,873.89,1260.27Z" transform="translate(-30.71 -41.35)"/><path class="cls-16" d="M799.84,1255.31,754,1252.22l-7-35.81L784.13,1190a82.8,82.8,0,0,0,.64,31.49C787.54,1235,793,1246.74,799.84,1255.31Z" transform="translate(-30.71 -41.35)"/><path class="cls-15" d="M1622.93,1004.49c-15.33-49.32-50.81-82.16-79.27-73.34s-39,56-23.7,105.35c14.3,46,46,77.53,73.35,74.5a.61.61,0,0,0,.32-.06l5.6-1.16C1627.63,1101,1638.25,1053.82,1622.93,1004.49Zm-40.38,51.65c-11.72,3.67-26-8.89-31.94-28S1549.32,990.58,1561,987s26,8.88,31.88,28S1594.21,1052.53,1582.55,1056.14Z" transform="translate(-30.71 -41.35)"/><path class="cls-16" d="M1582.55,1056.14c-11.72,3.67-26-8.89-31.94-28S1549.32,990.58,1561,987s26,8.88,31.88,28S1594.21,1052.53,1582.55,1056.14Z" transform="translate(-30.71 -41.35)"/><path class="cls-11" d="M1164.49,1204.13c-.86-11.84-1.74-23.7-3.64-35.39a272.36,272.36,0,0,0-7.71-34.57c-6.54-22.63-16.45-44.33-30.28-63.15a152,152,0,0,0-23.63-25.55,166.48,166.48,0,0,0-28.34-19.79c-2.57-1.32-5.11-2.68-7.71-4l-4-1.75c-1.33-.57-2.64-1.2-4-1.68a135.17,135.17,0,0,0-16.51-5.45,150.85,150.85,0,0,0-34.84-4.8.4.4,0,0,1-.39-.41.39.39,0,0,1,.33-.39,109.45,109.45,0,0,1,36.07.09c1.49.27,3,.42,4.49.79l4.45,1,2.23.52,2.19.65,4.39,1.32c1.48.39,2.88,1,4.31,1.53l4.29,1.64c2.81,1.19,5.57,2.49,8.36,3.76a127.11,127.11,0,0,1,29.94,21l3.27,3.2c1.1,1.06,2.2,2.11,3.2,3.26l3.07,3.38c1,1.12,2.07,2.22,3,3.42,1.91,2.37,3.89,4.67,5.71,7.09l2.7,3.66,1.34,1.83,1.26,1.89c13.69,20,23.05,42.6,28.92,65.81a277.38,277.38,0,0,1,6.29,35.3l.88,8.9c.22,3,.39,6,.58,8.93s.22,6,.32,8.92l.22,8.93a.4.4,0,0,1-.39.41A.41.41,0,0,1,1164.49,1204.13Z" transform="translate(-30.71 -41.35)"/></svg>